G04 #@! TF.FileFunction,Copper,L2,Bot,Signal*
%FSLAX46Y46*%
G04 Gerber Fmt 4.6, Leading zero omitted, Abs format (unit mm)*
G04 Created by KiCad (PCBNEW 4.0.6+dfsg1-1) date Tue Feb 13 22:00:55 2018*
%MOMM*%
%LPD*%
G01*
G04 APERTURE LIST*
%ADD10C,0.100000*%
%ADD11R,2.032000X1.727200*%
%ADD12O,2.032000X1.727200*%
%ADD13R,2.500000X2.500000*%
%ADD14C,2.500000*%
%ADD15R,2.032000X2.032000*%
%ADD16O,2.032000X2.032000*%
%ADD17C,0.600000*%
%ADD18C,0.325000*%
%ADD19C,0.254000*%
G04 APERTURE END LIST*
D10*
D11*
X162950000Y-103450000D03*
D12*
X162950000Y-100910000D03*
X162950000Y-98370000D03*
X162950000Y-95830000D03*
X162950000Y-93290000D03*
X162950000Y-90750000D03*
X162950000Y-88210000D03*
X162950000Y-85670000D03*
D13*
X138300000Y-87550000D03*
D14*
X133300000Y-87550000D03*
D15*
X125525000Y-96200000D03*
D16*
X125525000Y-98740000D03*
D15*
X125525000Y-106750000D03*
D16*
X125525000Y-104210000D03*
D17*
X136875000Y-99075000D03*
X155300000Y-87625000D03*
X153250000Y-97575000D03*
D18*
X138300000Y-97650000D02*
X138300000Y-87550000D01*
X136875000Y-99075000D02*
X138300000Y-97650000D01*
X138300000Y-87550000D02*
X155225000Y-87550000D01*
X155225000Y-87550000D02*
X155300000Y-87625000D01*
X138300000Y-87550000D02*
X143225000Y-87550000D01*
X143225000Y-87550000D02*
X153250000Y-97575000D01*
D19*
G36*
X140223000Y-86475000D02*
X140233006Y-86524410D01*
X140261447Y-86566035D01*
X140303841Y-86593315D01*
X140350000Y-86602000D01*
X155447394Y-86602000D01*
X156023000Y-87177606D01*
X156023000Y-87672394D01*
X155372394Y-88323000D01*
X145525000Y-88323000D01*
X145475590Y-88333006D01*
X145433965Y-88361447D01*
X145406685Y-88403841D01*
X145398048Y-88453509D01*
X145409416Y-88502623D01*
X145435197Y-88539803D01*
X154423000Y-97527606D01*
X154423000Y-98397394D01*
X154072394Y-98748000D01*
X153352606Y-98748000D01*
X144014803Y-89410197D01*
X143972789Y-89382334D01*
X143925000Y-89373000D01*
X139425000Y-89373000D01*
X139375590Y-89383006D01*
X139333965Y-89411447D01*
X139306685Y-89453841D01*
X139298000Y-89500000D01*
X139298000Y-98097394D01*
X137297394Y-100098000D01*
X136377606Y-100098000D01*
X135777000Y-99497394D01*
X135777000Y-98727606D01*
X137389803Y-97114803D01*
X137417666Y-97072789D01*
X137427000Y-97025000D01*
X137427000Y-89550000D01*
X137416994Y-89500590D01*
X137388553Y-89458965D01*
X137346159Y-89431685D01*
X137300000Y-89423000D01*
X136477000Y-89423000D01*
X136477000Y-88270250D01*
X136669000Y-88270250D01*
X136669000Y-88875785D01*
X136727004Y-89015819D01*
X136834180Y-89122996D01*
X136974214Y-89181000D01*
X137579750Y-89181000D01*
X137675000Y-89085750D01*
X137675000Y-88175000D01*
X138925000Y-88175000D01*
X138925000Y-89085750D01*
X139020250Y-89181000D01*
X139625786Y-89181000D01*
X139765820Y-89122996D01*
X139872996Y-89015819D01*
X139931000Y-88875785D01*
X139931000Y-88270250D01*
X139835750Y-88175000D01*
X138925000Y-88175000D01*
X137675000Y-88175000D01*
X136764250Y-88175000D01*
X136669000Y-88270250D01*
X136477000Y-88270250D01*
X136477000Y-86224215D01*
X136669000Y-86224215D01*
X136669000Y-86829750D01*
X136764250Y-86925000D01*
X137675000Y-86925000D01*
X137675000Y-86014250D01*
X138925000Y-86014250D01*
X138925000Y-86925000D01*
X139835750Y-86925000D01*
X139931000Y-86829750D01*
X139931000Y-86224215D01*
X139872996Y-86084181D01*
X139765820Y-85977004D01*
X139625786Y-85919000D01*
X139020250Y-85919000D01*
X138925000Y-86014250D01*
X137675000Y-86014250D01*
X137579750Y-85919000D01*
X136974214Y-85919000D01*
X136834180Y-85977004D01*
X136727004Y-86084181D01*
X136669000Y-86224215D01*
X136477000Y-86224215D01*
X136477000Y-85802000D01*
X140223000Y-85802000D01*
X140223000Y-86475000D01*
X140223000Y-86475000D01*
G37*
X140223000Y-86475000D02*
X140233006Y-86524410D01*
X140261447Y-86566035D01*
X140303841Y-86593315D01*
X140350000Y-86602000D01*
X155447394Y-86602000D01*
X156023000Y-87177606D01*
X156023000Y-87672394D01*
X155372394Y-88323000D01*
X145525000Y-88323000D01*
X145475590Y-88333006D01*
X145433965Y-88361447D01*
X145406685Y-88403841D01*
X145398048Y-88453509D01*
X145409416Y-88502623D01*
X145435197Y-88539803D01*
X154423000Y-97527606D01*
X154423000Y-98397394D01*
X154072394Y-98748000D01*
X153352606Y-98748000D01*
X144014803Y-89410197D01*
X143972789Y-89382334D01*
X143925000Y-89373000D01*
X139425000Y-89373000D01*
X139375590Y-89383006D01*
X139333965Y-89411447D01*
X139306685Y-89453841D01*
X139298000Y-89500000D01*
X139298000Y-98097394D01*
X137297394Y-100098000D01*
X136377606Y-100098000D01*
X135777000Y-99497394D01*
X135777000Y-98727606D01*
X137389803Y-97114803D01*
X137417666Y-97072789D01*
X137427000Y-97025000D01*
X137427000Y-89550000D01*
X137416994Y-89500590D01*
X137388553Y-89458965D01*
X137346159Y-89431685D01*
X137300000Y-89423000D01*
X136477000Y-89423000D01*
X136477000Y-88270250D01*
X136669000Y-88270250D01*
X136669000Y-88875785D01*
X136727004Y-89015819D01*
X136834180Y-89122996D01*
X136974214Y-89181000D01*
X137579750Y-89181000D01*
X137675000Y-89085750D01*
X137675000Y-88175000D01*
X138925000Y-88175000D01*
X138925000Y-89085750D01*
X139020250Y-89181000D01*
X139625786Y-89181000D01*
X139765820Y-89122996D01*
X139872996Y-89015819D01*
X139931000Y-88875785D01*
X139931000Y-88270250D01*
X139835750Y-88175000D01*
X138925000Y-88175000D01*
X137675000Y-88175000D01*
X136764250Y-88175000D01*
X136669000Y-88270250D01*
X136477000Y-88270250D01*
X136477000Y-86224215D01*
X136669000Y-86224215D01*
X136669000Y-86829750D01*
X136764250Y-86925000D01*
X137675000Y-86925000D01*
X137675000Y-86014250D01*
X138925000Y-86014250D01*
X138925000Y-86925000D01*
X139835750Y-86925000D01*
X139931000Y-86829750D01*
X139931000Y-86224215D01*
X139872996Y-86084181D01*
X139765820Y-85977004D01*
X139625786Y-85919000D01*
X139020250Y-85919000D01*
X138925000Y-86014250D01*
X137675000Y-86014250D01*
X137579750Y-85919000D01*
X136974214Y-85919000D01*
X136834180Y-85977004D01*
X136727004Y-86084181D01*
X136669000Y-86224215D01*
X136477000Y-86224215D01*
X136477000Y-85802000D01*
X140223000Y-85802000D01*
X140223000Y-86475000D01*
G36*
X166517000Y-109617000D02*
X123083000Y-109617000D01*
X123083000Y-104210000D01*
X123971143Y-104210000D01*
X124087151Y-104793210D01*
X124385241Y-105239335D01*
X124320747Y-105251470D01*
X124147847Y-105362728D01*
X124031855Y-105532488D01*
X123991048Y-105734000D01*
X123991048Y-107766000D01*
X124026470Y-107954253D01*
X124137728Y-108127153D01*
X124307488Y-108243145D01*
X124509000Y-108283952D01*
X126541000Y-108283952D01*
X126729253Y-108248530D01*
X126902153Y-108137272D01*
X127018145Y-107967512D01*
X127058952Y-107766000D01*
X127058952Y-105734000D01*
X127023530Y-105545747D01*
X126912272Y-105372847D01*
X126742512Y-105256855D01*
X126663714Y-105240898D01*
X126962849Y-104793210D01*
X127078857Y-104210000D01*
X126962849Y-103626790D01*
X126632488Y-103132369D01*
X126138067Y-102802008D01*
X125554857Y-102686000D01*
X125495143Y-102686000D01*
X124911933Y-102802008D01*
X124417512Y-103132369D01*
X124087151Y-103626790D01*
X123971143Y-104210000D01*
X123083000Y-104210000D01*
X123083000Y-98740000D01*
X123971143Y-98740000D01*
X124087151Y-99323210D01*
X124417512Y-99817631D01*
X124911933Y-100147992D01*
X125495143Y-100264000D01*
X125554857Y-100264000D01*
X126138067Y-100147992D01*
X126632488Y-99817631D01*
X126962849Y-99323210D01*
X127078857Y-98740000D01*
X127065928Y-98675000D01*
X135142000Y-98675000D01*
X135142000Y-99550000D01*
X135179338Y-99741157D01*
X135290790Y-99909210D01*
X135965790Y-100584210D01*
X136127360Y-100692977D01*
X136325000Y-100733000D01*
X137350000Y-100733000D01*
X137541157Y-100695662D01*
X137709210Y-100584210D01*
X139784210Y-98509210D01*
X139892977Y-98347640D01*
X139933000Y-98150000D01*
X139933000Y-90008000D01*
X143714580Y-90008000D01*
X152940790Y-99234210D01*
X153102360Y-99342977D01*
X153300000Y-99383000D01*
X154125000Y-99383000D01*
X154316157Y-99345662D01*
X154484210Y-99234210D01*
X154909210Y-98809210D01*
X155017977Y-98647640D01*
X155058000Y-98450000D01*
X155058000Y-97475000D01*
X155020662Y-97283843D01*
X154909210Y-97115790D01*
X146751420Y-88958000D01*
X155425000Y-88958000D01*
X155616157Y-88920662D01*
X155784210Y-88809210D01*
X156024394Y-88569026D01*
X161342642Y-88569026D01*
X161345291Y-88584791D01*
X161599268Y-89112036D01*
X162035680Y-89501954D01*
X162152856Y-89542942D01*
X161797875Y-89780132D01*
X161500550Y-90225111D01*
X161396143Y-90750000D01*
X161500550Y-91274889D01*
X161797875Y-91719868D01*
X162242854Y-92017193D01*
X162256966Y-92020000D01*
X162242854Y-92022807D01*
X161797875Y-92320132D01*
X161500550Y-92765111D01*
X161396143Y-93290000D01*
X161500550Y-93814889D01*
X161797875Y-94259868D01*
X162242854Y-94557193D01*
X162256966Y-94560000D01*
X162242854Y-94562807D01*
X161797875Y-94860132D01*
X161500550Y-95305111D01*
X161396143Y-95830000D01*
X161500550Y-96354889D01*
X161797875Y-96799868D01*
X162242854Y-97097193D01*
X162256966Y-97100000D01*
X162242854Y-97102807D01*
X161797875Y-97400132D01*
X161500550Y-97845111D01*
X161396143Y-98370000D01*
X161500550Y-98894889D01*
X161797875Y-99339868D01*
X162242854Y-99637193D01*
X162256966Y-99640000D01*
X162242854Y-99642807D01*
X161797875Y-99940132D01*
X161500550Y-100385111D01*
X161396143Y-100910000D01*
X161500550Y-101434889D01*
X161797875Y-101879868D01*
X162080105Y-102068448D01*
X161934000Y-102068448D01*
X161745747Y-102103870D01*
X161572847Y-102215128D01*
X161456855Y-102384888D01*
X161416048Y-102586400D01*
X161416048Y-104313600D01*
X161451470Y-104501853D01*
X161562728Y-104674753D01*
X161732488Y-104790745D01*
X161934000Y-104831552D01*
X163966000Y-104831552D01*
X164154253Y-104796130D01*
X164327153Y-104684872D01*
X164443145Y-104515112D01*
X164483952Y-104313600D01*
X164483952Y-102586400D01*
X164448530Y-102398147D01*
X164337272Y-102225247D01*
X164167512Y-102109255D01*
X163966000Y-102068448D01*
X163819895Y-102068448D01*
X164102125Y-101879868D01*
X164399450Y-101434889D01*
X164503857Y-100910000D01*
X164399450Y-100385111D01*
X164102125Y-99940132D01*
X163657146Y-99642807D01*
X163643034Y-99640000D01*
X163657146Y-99637193D01*
X164102125Y-99339868D01*
X164399450Y-98894889D01*
X164503857Y-98370000D01*
X164399450Y-97845111D01*
X164102125Y-97400132D01*
X163657146Y-97102807D01*
X163643034Y-97100000D01*
X163657146Y-97097193D01*
X164102125Y-96799868D01*
X164399450Y-96354889D01*
X164503857Y-95830000D01*
X164399450Y-95305111D01*
X164102125Y-94860132D01*
X163657146Y-94562807D01*
X163643034Y-94560000D01*
X163657146Y-94557193D01*
X164102125Y-94259868D01*
X164399450Y-93814889D01*
X164503857Y-93290000D01*
X164399450Y-92765111D01*
X164102125Y-92320132D01*
X163657146Y-92022807D01*
X163643034Y-92020000D01*
X163657146Y-92017193D01*
X164102125Y-91719868D01*
X164399450Y-91274889D01*
X164503857Y-90750000D01*
X164399450Y-90225111D01*
X164102125Y-89780132D01*
X163747144Y-89542942D01*
X163864320Y-89501954D01*
X164300732Y-89112036D01*
X164554709Y-88584791D01*
X164557358Y-88569026D01*
X164436217Y-88337000D01*
X163077000Y-88337000D01*
X163077000Y-88357000D01*
X162823000Y-88357000D01*
X162823000Y-88337000D01*
X161463783Y-88337000D01*
X161342642Y-88569026D01*
X156024394Y-88569026D01*
X156509210Y-88084210D01*
X156617977Y-87922640D01*
X156632489Y-87850974D01*
X161342642Y-87850974D01*
X161463783Y-88083000D01*
X162823000Y-88083000D01*
X162823000Y-88063000D01*
X163077000Y-88063000D01*
X163077000Y-88083000D01*
X164436217Y-88083000D01*
X164557358Y-87850974D01*
X164554709Y-87835209D01*
X164300732Y-87307964D01*
X163864320Y-86918046D01*
X163747144Y-86877058D01*
X164102125Y-86639868D01*
X164399450Y-86194889D01*
X164503857Y-85670000D01*
X164399450Y-85145111D01*
X164102125Y-84700132D01*
X163657146Y-84402807D01*
X163132257Y-84298400D01*
X162767743Y-84298400D01*
X162242854Y-84402807D01*
X161797875Y-84700132D01*
X161500550Y-85145111D01*
X161396143Y-85670000D01*
X161500550Y-86194889D01*
X161797875Y-86639868D01*
X162152856Y-86877058D01*
X162035680Y-86918046D01*
X161599268Y-87307964D01*
X161345291Y-87835209D01*
X161342642Y-87850974D01*
X156632489Y-87850974D01*
X156658000Y-87725000D01*
X156658000Y-87125000D01*
X156620662Y-86933843D01*
X156509210Y-86765790D01*
X155859210Y-86115790D01*
X155697640Y-86007023D01*
X155500000Y-85967000D01*
X140858000Y-85967000D01*
X140858000Y-85675000D01*
X140823258Y-85490364D01*
X140714138Y-85320786D01*
X140547640Y-85207023D01*
X140350000Y-85167000D01*
X136596834Y-85167000D01*
X136486776Y-85110760D01*
X136285658Y-85096091D01*
X136094679Y-85160824D01*
X135943931Y-85294760D01*
X135857168Y-85476792D01*
X135857028Y-85477353D01*
X135857023Y-85477360D01*
X135857010Y-85477423D01*
X135838418Y-85551792D01*
X135831004Y-85605844D01*
X135817000Y-85675000D01*
X135817000Y-85700000D01*
X135842000Y-85798119D01*
X135842000Y-89550000D01*
X135876742Y-89734636D01*
X135985862Y-89904214D01*
X136152360Y-90017977D01*
X136350000Y-90058000D01*
X136792000Y-90058000D01*
X136792000Y-96814580D01*
X135290790Y-98315790D01*
X135182023Y-98477360D01*
X135142000Y-98675000D01*
X127065928Y-98675000D01*
X126962849Y-98156790D01*
X126664759Y-97710665D01*
X126729253Y-97698530D01*
X126902153Y-97587272D01*
X127018145Y-97417512D01*
X127058952Y-97216000D01*
X127058952Y-95184000D01*
X127023530Y-94995747D01*
X126912272Y-94822847D01*
X126742512Y-94706855D01*
X126541000Y-94666048D01*
X124509000Y-94666048D01*
X124320747Y-94701470D01*
X124147847Y-94812728D01*
X124031855Y-94982488D01*
X123991048Y-95184000D01*
X123991048Y-97216000D01*
X124026470Y-97404253D01*
X124137728Y-97577153D01*
X124307488Y-97693145D01*
X124386286Y-97709102D01*
X124087151Y-98156790D01*
X123971143Y-98740000D01*
X123083000Y-98740000D01*
X123083000Y-87898154D01*
X131541696Y-87898154D01*
X131808771Y-88544526D01*
X132302873Y-89039491D01*
X132948778Y-89307694D01*
X133648154Y-89308304D01*
X134294526Y-89041229D01*
X134789491Y-88547127D01*
X135057694Y-87901222D01*
X135058304Y-87201846D01*
X134791229Y-86555474D01*
X134297127Y-86060509D01*
X133651222Y-85792306D01*
X132951846Y-85791696D01*
X132305474Y-86058771D01*
X131810509Y-86552873D01*
X131542306Y-87198778D01*
X131541696Y-87898154D01*
X123083000Y-87898154D01*
X123083000Y-83083000D01*
X166517000Y-83083000D01*
X166517000Y-109617000D01*
X166517000Y-109617000D01*
G37*
X166517000Y-109617000D02*
X123083000Y-109617000D01*
X123083000Y-104210000D01*
X123971143Y-104210000D01*
X124087151Y-104793210D01*
X124385241Y-105239335D01*
X124320747Y-105251470D01*
X124147847Y-105362728D01*
X124031855Y-105532488D01*
X123991048Y-105734000D01*
X123991048Y-107766000D01*
X124026470Y-107954253D01*
X124137728Y-108127153D01*
X124307488Y-108243145D01*
X124509000Y-108283952D01*
X126541000Y-108283952D01*
X126729253Y-108248530D01*
X126902153Y-108137272D01*
X127018145Y-107967512D01*
X127058952Y-107766000D01*
X127058952Y-105734000D01*
X127023530Y-105545747D01*
X126912272Y-105372847D01*
X126742512Y-105256855D01*
X126663714Y-105240898D01*
X126962849Y-104793210D01*
X127078857Y-104210000D01*
X126962849Y-103626790D01*
X126632488Y-103132369D01*
X126138067Y-102802008D01*
X125554857Y-102686000D01*
X125495143Y-102686000D01*
X124911933Y-102802008D01*
X124417512Y-103132369D01*
X124087151Y-103626790D01*
X123971143Y-104210000D01*
X123083000Y-104210000D01*
X123083000Y-98740000D01*
X123971143Y-98740000D01*
X124087151Y-99323210D01*
X124417512Y-99817631D01*
X124911933Y-100147992D01*
X125495143Y-100264000D01*
X125554857Y-100264000D01*
X126138067Y-100147992D01*
X126632488Y-99817631D01*
X126962849Y-99323210D01*
X127078857Y-98740000D01*
X127065928Y-98675000D01*
X135142000Y-98675000D01*
X135142000Y-99550000D01*
X135179338Y-99741157D01*
X135290790Y-99909210D01*
X135965790Y-100584210D01*
X136127360Y-100692977D01*
X136325000Y-100733000D01*
X137350000Y-100733000D01*
X137541157Y-100695662D01*
X137709210Y-100584210D01*
X139784210Y-98509210D01*
X139892977Y-98347640D01*
X139933000Y-98150000D01*
X139933000Y-90008000D01*
X143714580Y-90008000D01*
X152940790Y-99234210D01*
X153102360Y-99342977D01*
X153300000Y-99383000D01*
X154125000Y-99383000D01*
X154316157Y-99345662D01*
X154484210Y-99234210D01*
X154909210Y-98809210D01*
X155017977Y-98647640D01*
X155058000Y-98450000D01*
X155058000Y-97475000D01*
X155020662Y-97283843D01*
X154909210Y-97115790D01*
X146751420Y-88958000D01*
X155425000Y-88958000D01*
X155616157Y-88920662D01*
X155784210Y-88809210D01*
X156024394Y-88569026D01*
X161342642Y-88569026D01*
X161345291Y-88584791D01*
X161599268Y-89112036D01*
X162035680Y-89501954D01*
X162152856Y-89542942D01*
X161797875Y-89780132D01*
X161500550Y-90225111D01*
X161396143Y-90750000D01*
X161500550Y-91274889D01*
X161797875Y-91719868D01*
X162242854Y-92017193D01*
X162256966Y-92020000D01*
X162242854Y-92022807D01*
X161797875Y-92320132D01*
X161500550Y-92765111D01*
X161396143Y-93290000D01*
X161500550Y-93814889D01*
X161797875Y-94259868D01*
X162242854Y-94557193D01*
X162256966Y-94560000D01*
X162242854Y-94562807D01*
X161797875Y-94860132D01*
X161500550Y-95305111D01*
X161396143Y-95830000D01*
X161500550Y-96354889D01*
X161797875Y-96799868D01*
X162242854Y-97097193D01*
X162256966Y-97100000D01*
X162242854Y-97102807D01*
X161797875Y-97400132D01*
X161500550Y-97845111D01*
X161396143Y-98370000D01*
X161500550Y-98894889D01*
X161797875Y-99339868D01*
X162242854Y-99637193D01*
X162256966Y-99640000D01*
X162242854Y-99642807D01*
X161797875Y-99940132D01*
X161500550Y-100385111D01*
X161396143Y-100910000D01*
X161500550Y-101434889D01*
X161797875Y-101879868D01*
X162080105Y-102068448D01*
X161934000Y-102068448D01*
X161745747Y-102103870D01*
X161572847Y-102215128D01*
X161456855Y-102384888D01*
X161416048Y-102586400D01*
X161416048Y-104313600D01*
X161451470Y-104501853D01*
X161562728Y-104674753D01*
X161732488Y-104790745D01*
X161934000Y-104831552D01*
X163966000Y-104831552D01*
X164154253Y-104796130D01*
X164327153Y-104684872D01*
X164443145Y-104515112D01*
X164483952Y-104313600D01*
X164483952Y-102586400D01*
X164448530Y-102398147D01*
X164337272Y-102225247D01*
X164167512Y-102109255D01*
X163966000Y-102068448D01*
X163819895Y-102068448D01*
X164102125Y-101879868D01*
X164399450Y-101434889D01*
X164503857Y-100910000D01*
X164399450Y-100385111D01*
X164102125Y-99940132D01*
X163657146Y-99642807D01*
X163643034Y-99640000D01*
X163657146Y-99637193D01*
X164102125Y-99339868D01*
X164399450Y-98894889D01*
X164503857Y-98370000D01*
X164399450Y-97845111D01*
X164102125Y-97400132D01*
X163657146Y-97102807D01*
X163643034Y-97100000D01*
X163657146Y-97097193D01*
X164102125Y-96799868D01*
X164399450Y-96354889D01*
X164503857Y-95830000D01*
X164399450Y-95305111D01*
X164102125Y-94860132D01*
X163657146Y-94562807D01*
X163643034Y-94560000D01*
X163657146Y-94557193D01*
X164102125Y-94259868D01*
X164399450Y-93814889D01*
X164503857Y-93290000D01*
X164399450Y-92765111D01*
X164102125Y-92320132D01*
X163657146Y-92022807D01*
X163643034Y-92020000D01*
X163657146Y-92017193D01*
X164102125Y-91719868D01*
X164399450Y-91274889D01*
X164503857Y-90750000D01*
X164399450Y-90225111D01*
X164102125Y-89780132D01*
X163747144Y-89542942D01*
X163864320Y-89501954D01*
X164300732Y-89112036D01*
X164554709Y-88584791D01*
X164557358Y-88569026D01*
X164436217Y-88337000D01*
X163077000Y-88337000D01*
X163077000Y-88357000D01*
X162823000Y-88357000D01*
X162823000Y-88337000D01*
X161463783Y-88337000D01*
X161342642Y-88569026D01*
X156024394Y-88569026D01*
X156509210Y-88084210D01*
X156617977Y-87922640D01*
X156632489Y-87850974D01*
X161342642Y-87850974D01*
X161463783Y-88083000D01*
X162823000Y-88083000D01*
X162823000Y-88063000D01*
X163077000Y-88063000D01*
X163077000Y-88083000D01*
X164436217Y-88083000D01*
X164557358Y-87850974D01*
X164554709Y-87835209D01*
X164300732Y-87307964D01*
X163864320Y-86918046D01*
X163747144Y-86877058D01*
X164102125Y-86639868D01*
X164399450Y-86194889D01*
X164503857Y-85670000D01*
X164399450Y-85145111D01*
X164102125Y-84700132D01*
X163657146Y-84402807D01*
X163132257Y-84298400D01*
X162767743Y-84298400D01*
X162242854Y-84402807D01*
X161797875Y-84700132D01*
X161500550Y-85145111D01*
X161396143Y-85670000D01*
X161500550Y-86194889D01*
X161797875Y-86639868D01*
X162152856Y-86877058D01*
X162035680Y-86918046D01*
X161599268Y-87307964D01*
X161345291Y-87835209D01*
X161342642Y-87850974D01*
X156632489Y-87850974D01*
X156658000Y-87725000D01*
X156658000Y-87125000D01*
X156620662Y-86933843D01*
X156509210Y-86765790D01*
X155859210Y-86115790D01*
X155697640Y-86007023D01*
X155500000Y-85967000D01*
X140858000Y-85967000D01*
X140858000Y-85675000D01*
X140823258Y-85490364D01*
X140714138Y-85320786D01*
X140547640Y-85207023D01*
X140350000Y-85167000D01*
X136596834Y-85167000D01*
X136486776Y-85110760D01*
X136285658Y-85096091D01*
X136094679Y-85160824D01*
X135943931Y-85294760D01*
X135857168Y-85476792D01*
X135857028Y-85477353D01*
X135857023Y-85477360D01*
X135857010Y-85477423D01*
X135838418Y-85551792D01*
X135831004Y-85605844D01*
X135817000Y-85675000D01*
X135817000Y-85700000D01*
X135842000Y-85798119D01*
X135842000Y-89550000D01*
X135876742Y-89734636D01*
X135985862Y-89904214D01*
X136152360Y-90017977D01*
X136350000Y-90058000D01*
X136792000Y-90058000D01*
X136792000Y-96814580D01*
X135290790Y-98315790D01*
X135182023Y-98477360D01*
X135142000Y-98675000D01*
X127065928Y-98675000D01*
X126962849Y-98156790D01*
X126664759Y-97710665D01*
X126729253Y-97698530D01*
X126902153Y-97587272D01*
X127018145Y-97417512D01*
X127058952Y-97216000D01*
X127058952Y-95184000D01*
X127023530Y-94995747D01*
X126912272Y-94822847D01*
X126742512Y-94706855D01*
X126541000Y-94666048D01*
X124509000Y-94666048D01*
X124320747Y-94701470D01*
X124147847Y-94812728D01*
X124031855Y-94982488D01*
X123991048Y-95184000D01*
X123991048Y-97216000D01*
X124026470Y-97404253D01*
X124137728Y-97577153D01*
X124307488Y-97693145D01*
X124386286Y-97709102D01*
X124087151Y-98156790D01*
X123971143Y-98740000D01*
X123083000Y-98740000D01*
X123083000Y-87898154D01*
X131541696Y-87898154D01*
X131808771Y-88544526D01*
X132302873Y-89039491D01*
X132948778Y-89307694D01*
X133648154Y-89308304D01*
X134294526Y-89041229D01*
X134789491Y-88547127D01*
X135057694Y-87901222D01*
X135058304Y-87201846D01*
X134791229Y-86555474D01*
X134297127Y-86060509D01*
X133651222Y-85792306D01*
X132951846Y-85791696D01*
X132305474Y-86058771D01*
X131810509Y-86552873D01*
X131542306Y-87198778D01*
X131541696Y-87898154D01*
X123083000Y-87898154D01*
X123083000Y-83083000D01*
X166517000Y-83083000D01*
X166517000Y-109617000D01*
M02*
