G04 #@! TF.FileFunction,Soldermask,Top*
%FSLAX46Y46*%
G04 Gerber Fmt 4.6, Leading zero omitted, Abs format (unit mm)*
G04 Created by KiCad (PCBNEW 4.0.6+dfsg1-1) date Tue Feb 13 22:00:55 2018*
%MOMM*%
%LPD*%
G01*
G04 APERTURE LIST*
%ADD10C,0.100000*%
%ADD11R,1.900000X1.650000*%
%ADD12R,2.432000X2.127200*%
%ADD13O,2.432000X2.127200*%
%ADD14R,2.900000X2.900000*%
%ADD15C,2.900000*%
%ADD16R,1.200000X1.150000*%
%ADD17R,2.432000X2.432000*%
%ADD18O,2.432000X2.432000*%
%ADD19R,1.700000X1.900000*%
%ADD20R,1.900000X1.700000*%
%ADD21R,2.150000X0.850000*%
%ADD22R,1.400000X1.400000*%
%ADD23C,1.000000*%
G04 APERTURE END LIST*
D10*
D11*
X149000000Y-88050000D03*
X146500000Y-88050000D03*
X148750000Y-99650000D03*
X146250000Y-99650000D03*
D12*
X162950000Y-103450000D03*
D13*
X162950000Y-100910000D03*
X162950000Y-98370000D03*
X162950000Y-95830000D03*
X162950000Y-93290000D03*
X162950000Y-90750000D03*
X162950000Y-88210000D03*
X162950000Y-85670000D03*
D14*
X138300000Y-87550000D03*
D15*
X133300000Y-87550000D03*
D16*
X146875000Y-105300000D03*
X148375000Y-105300000D03*
D17*
X125525000Y-96200000D03*
D18*
X125525000Y-98740000D03*
D17*
X125525000Y-106750000D03*
D18*
X125525000Y-104210000D03*
D19*
X152050000Y-105300000D03*
X152050000Y-102600000D03*
X154300000Y-105300000D03*
X154300000Y-102600000D03*
X156550000Y-105300000D03*
X156550000Y-102600000D03*
X158900000Y-105275000D03*
X158900000Y-102575000D03*
D20*
X154500000Y-93200000D03*
X157200000Y-93200000D03*
D21*
X143900000Y-90325000D03*
X143900000Y-90975000D03*
X143900000Y-91625000D03*
X143900000Y-92275000D03*
X143900000Y-92925000D03*
X143900000Y-93575000D03*
X143900000Y-94225000D03*
X143900000Y-94875000D03*
X143900000Y-95525000D03*
X143900000Y-96175000D03*
X143900000Y-96825000D03*
X143900000Y-97475000D03*
X151100000Y-97475000D03*
X151100000Y-96825000D03*
X151100000Y-96175000D03*
X151100000Y-95525000D03*
X151100000Y-94875000D03*
X151100000Y-94225000D03*
X151100000Y-93575000D03*
X151100000Y-92925000D03*
X151100000Y-92275000D03*
X151100000Y-91625000D03*
X151100000Y-90975000D03*
X151100000Y-90325000D03*
D11*
X148700000Y-102175000D03*
X146200000Y-102175000D03*
D22*
X131600000Y-93825000D03*
X131600000Y-96325000D03*
X129375000Y-96350000D03*
X129375000Y-98850000D03*
X133975000Y-93825000D03*
X133975000Y-96325000D03*
X131600000Y-98875000D03*
X131600000Y-101375000D03*
X139225000Y-101675000D03*
X139225000Y-104175000D03*
X136550000Y-106700000D03*
X136550000Y-109200000D03*
X136575000Y-101675000D03*
X136575000Y-104175000D03*
X134275000Y-104175000D03*
X134275000Y-106675000D03*
D11*
X149000000Y-85675000D03*
X146500000Y-85675000D03*
D23*
X136875000Y-99075000D03*
X155300000Y-87625000D03*
X153250000Y-97575000D03*
M02*
