G04 #@! TF.FileFunction,Legend,Top*
%FSLAX46Y46*%
G04 Gerber Fmt 4.6, Leading zero omitted, Abs format (unit mm)*
G04 Created by KiCad (PCBNEW 4.0.6+dfsg1-1) date Tue Feb 13 22:00:55 2018*
%MOMM*%
%LPD*%
G01*
G04 APERTURE LIST*
%ADD10C,0.100000*%
%ADD11C,0.200000*%
%ADD12C,0.250000*%
%ADD13C,0.300000*%
%ADD14C,0.150000*%
%ADD15C,0.120000*%
G04 APERTURE END LIST*
D10*
D11*
X143875000Y-103875000D02*
X143875000Y-103925000D01*
X150950000Y-103875000D02*
X143875000Y-103875000D01*
X150950000Y-109825000D02*
X150950000Y-103875000D01*
X143875000Y-109825000D02*
X150950000Y-109825000D01*
X143875000Y-103875000D02*
X143875000Y-109825000D01*
D12*
X146838096Y-106650000D02*
X146742858Y-106602381D01*
X146600001Y-106602381D01*
X146457143Y-106650000D01*
X146361905Y-106745238D01*
X146314286Y-106840476D01*
X146266667Y-107030952D01*
X146266667Y-107173810D01*
X146314286Y-107364286D01*
X146361905Y-107459524D01*
X146457143Y-107554762D01*
X146600001Y-107602381D01*
X146695239Y-107602381D01*
X146838096Y-107554762D01*
X146885715Y-107507143D01*
X146885715Y-107173810D01*
X146695239Y-107173810D01*
X147314286Y-107602381D02*
X147314286Y-106602381D01*
X147885715Y-107602381D01*
X147885715Y-106602381D01*
X148361905Y-107602381D02*
X148361905Y-106602381D01*
X148600000Y-106602381D01*
X148742858Y-106650000D01*
X148838096Y-106745238D01*
X148885715Y-106840476D01*
X148933334Y-107030952D01*
X148933334Y-107173810D01*
X148885715Y-107364286D01*
X148838096Y-107459524D01*
X148742858Y-107554762D01*
X148600000Y-107602381D01*
X148361905Y-107602381D01*
X144600000Y-109352381D02*
X144600000Y-108685714D01*
X144600000Y-108352381D02*
X144552381Y-108400000D01*
X144600000Y-108447619D01*
X144647619Y-108400000D01*
X144600000Y-108352381D01*
X144600000Y-108447619D01*
X145028571Y-109304762D02*
X145123809Y-109352381D01*
X145314285Y-109352381D01*
X145409524Y-109304762D01*
X145457143Y-109209524D01*
X145457143Y-109161905D01*
X145409524Y-109066667D01*
X145314285Y-109019048D01*
X145171428Y-109019048D01*
X145076190Y-108971429D01*
X145028571Y-108876190D01*
X145028571Y-108828571D01*
X145076190Y-108733333D01*
X145171428Y-108685714D01*
X145314285Y-108685714D01*
X145409524Y-108733333D01*
X146028571Y-109352381D02*
X145933333Y-109304762D01*
X145885714Y-109257143D01*
X145838095Y-109161905D01*
X145838095Y-108876190D01*
X145885714Y-108780952D01*
X145933333Y-108733333D01*
X146028571Y-108685714D01*
X146171429Y-108685714D01*
X146266667Y-108733333D01*
X146314286Y-108780952D01*
X146361905Y-108876190D01*
X146361905Y-109161905D01*
X146314286Y-109257143D01*
X146266667Y-109304762D01*
X146171429Y-109352381D01*
X146028571Y-109352381D01*
X146933333Y-109352381D02*
X146838095Y-109304762D01*
X146790476Y-109209524D01*
X146790476Y-108352381D01*
X147742858Y-109352381D02*
X147742858Y-108828571D01*
X147695239Y-108733333D01*
X147600001Y-108685714D01*
X147409524Y-108685714D01*
X147314286Y-108733333D01*
X147742858Y-109304762D02*
X147647620Y-109352381D01*
X147409524Y-109352381D01*
X147314286Y-109304762D01*
X147266667Y-109209524D01*
X147266667Y-109114286D01*
X147314286Y-109019048D01*
X147409524Y-108971429D01*
X147647620Y-108971429D01*
X147742858Y-108923810D01*
X148076191Y-108685714D02*
X148457143Y-108685714D01*
X148219048Y-108352381D02*
X148219048Y-109209524D01*
X148266667Y-109304762D01*
X148361905Y-109352381D01*
X148457143Y-109352381D01*
X148790477Y-109352381D02*
X148790477Y-108685714D01*
X148790477Y-108352381D02*
X148742858Y-108400000D01*
X148790477Y-108447619D01*
X148838096Y-108400000D01*
X148790477Y-108352381D01*
X148790477Y-108447619D01*
X149409524Y-109352381D02*
X149314286Y-109304762D01*
X149266667Y-109257143D01*
X149219048Y-109161905D01*
X149219048Y-108876190D01*
X149266667Y-108780952D01*
X149314286Y-108733333D01*
X149409524Y-108685714D01*
X149552382Y-108685714D01*
X149647620Y-108733333D01*
X149695239Y-108780952D01*
X149742858Y-108876190D01*
X149742858Y-109161905D01*
X149695239Y-109257143D01*
X149647620Y-109304762D01*
X149552382Y-109352381D01*
X149409524Y-109352381D01*
X150171429Y-108685714D02*
X150171429Y-109352381D01*
X150171429Y-108780952D02*
X150219048Y-108733333D01*
X150314286Y-108685714D01*
X150457144Y-108685714D01*
X150552382Y-108733333D01*
X150600001Y-108828571D01*
X150600001Y-109352381D01*
X123752381Y-83603571D02*
X124085715Y-83603571D01*
X124228572Y-84127381D02*
X123752381Y-84127381D01*
X123752381Y-83127381D01*
X124228572Y-83127381D01*
X124561905Y-84127381D02*
X125085715Y-83460714D01*
X124561905Y-83460714D02*
X125085715Y-84127381D01*
X125323810Y-83460714D02*
X125704762Y-83460714D01*
X125466667Y-83127381D02*
X125466667Y-83984524D01*
X125514286Y-84079762D01*
X125609524Y-84127381D01*
X125704762Y-84127381D01*
X126038096Y-84032143D02*
X126085715Y-84079762D01*
X126038096Y-84127381D01*
X125990477Y-84079762D01*
X126038096Y-84032143D01*
X126038096Y-84127381D01*
X127800001Y-83175000D02*
X127704763Y-83127381D01*
X127561906Y-83127381D01*
X127419048Y-83175000D01*
X127323810Y-83270238D01*
X127276191Y-83365476D01*
X127228572Y-83555952D01*
X127228572Y-83698810D01*
X127276191Y-83889286D01*
X127323810Y-83984524D01*
X127419048Y-84079762D01*
X127561906Y-84127381D01*
X127657144Y-84127381D01*
X127800001Y-84079762D01*
X127847620Y-84032143D01*
X127847620Y-83698810D01*
X127657144Y-83698810D01*
X128276191Y-84127381D02*
X128276191Y-83127381D01*
X128847620Y-84127381D01*
X128847620Y-83127381D01*
X129323810Y-84127381D02*
X129323810Y-83127381D01*
X129561905Y-83127381D01*
X129704763Y-83175000D01*
X129800001Y-83270238D01*
X129847620Y-83365476D01*
X129895239Y-83555952D01*
X129895239Y-83698810D01*
X129847620Y-83889286D01*
X129800001Y-83984524D01*
X129704763Y-84079762D01*
X129561905Y-84127381D01*
X129323810Y-84127381D01*
D11*
X140200000Y-103100000D02*
X140150000Y-103100000D01*
D12*
X161628572Y-105778571D02*
X161771429Y-105826190D01*
X161819048Y-105873810D01*
X161866667Y-105969048D01*
X161866667Y-106111905D01*
X161819048Y-106207143D01*
X161771429Y-106254762D01*
X161676191Y-106302381D01*
X161295238Y-106302381D01*
X161295238Y-105302381D01*
X161628572Y-105302381D01*
X161723810Y-105350000D01*
X161771429Y-105397619D01*
X161819048Y-105492857D01*
X161819048Y-105588095D01*
X161771429Y-105683333D01*
X161723810Y-105730952D01*
X161628572Y-105778571D01*
X161295238Y-105778571D01*
X162295238Y-105635714D02*
X162295238Y-106635714D01*
X162295238Y-105683333D02*
X162390476Y-105635714D01*
X162580953Y-105635714D01*
X162676191Y-105683333D01*
X162723810Y-105730952D01*
X162771429Y-105826190D01*
X162771429Y-106111905D01*
X162723810Y-106207143D01*
X162676191Y-106254762D01*
X162580953Y-106302381D01*
X162390476Y-106302381D01*
X162295238Y-106254762D01*
X163104762Y-105635714D02*
X163295238Y-106302381D01*
X163485715Y-105826190D01*
X163676191Y-106302381D01*
X163866667Y-105635714D01*
X164247619Y-106302381D02*
X164247619Y-105635714D01*
X164247619Y-105730952D02*
X164295238Y-105683333D01*
X164390476Y-105635714D01*
X164533334Y-105635714D01*
X164628572Y-105683333D01*
X164676191Y-105778571D01*
X164676191Y-106302381D01*
X164676191Y-105778571D02*
X164723810Y-105683333D01*
X164819048Y-105635714D01*
X164961905Y-105635714D01*
X165057143Y-105683333D01*
X165104762Y-105778571D01*
X165104762Y-106302381D01*
X158454763Y-100928571D02*
X158597620Y-100976190D01*
X158645239Y-101023810D01*
X158692858Y-101119048D01*
X158692858Y-101261905D01*
X158645239Y-101357143D01*
X158597620Y-101404762D01*
X158502382Y-101452381D01*
X158121429Y-101452381D01*
X158121429Y-100452381D01*
X158454763Y-100452381D01*
X158550001Y-100500000D01*
X158597620Y-100547619D01*
X158645239Y-100642857D01*
X158645239Y-100738095D01*
X158597620Y-100833333D01*
X158550001Y-100880952D01*
X158454763Y-100928571D01*
X158121429Y-100928571D01*
X159121429Y-101452381D02*
X159121429Y-100785714D01*
X159121429Y-100452381D02*
X159073810Y-100500000D01*
X159121429Y-100547619D01*
X159169048Y-100500000D01*
X159121429Y-100452381D01*
X159121429Y-100547619D01*
X159597619Y-100785714D02*
X159597619Y-101452381D01*
X159597619Y-100880952D02*
X159645238Y-100833333D01*
X159740476Y-100785714D01*
X159883334Y-100785714D01*
X159978572Y-100833333D01*
X160026191Y-100928571D01*
X160026191Y-101452381D01*
X160454762Y-100547619D02*
X160502381Y-100500000D01*
X160597619Y-100452381D01*
X160835715Y-100452381D01*
X160930953Y-100500000D01*
X160978572Y-100547619D01*
X161026191Y-100642857D01*
X161026191Y-100738095D01*
X160978572Y-100880952D01*
X160407143Y-101452381D01*
X161026191Y-101452381D01*
X158504763Y-98328571D02*
X158647620Y-98376190D01*
X158695239Y-98423810D01*
X158742858Y-98519048D01*
X158742858Y-98661905D01*
X158695239Y-98757143D01*
X158647620Y-98804762D01*
X158552382Y-98852381D01*
X158171429Y-98852381D01*
X158171429Y-97852381D01*
X158504763Y-97852381D01*
X158600001Y-97900000D01*
X158647620Y-97947619D01*
X158695239Y-98042857D01*
X158695239Y-98138095D01*
X158647620Y-98233333D01*
X158600001Y-98280952D01*
X158504763Y-98328571D01*
X158171429Y-98328571D01*
X159171429Y-98852381D02*
X159171429Y-98185714D01*
X159171429Y-97852381D02*
X159123810Y-97900000D01*
X159171429Y-97947619D01*
X159219048Y-97900000D01*
X159171429Y-97852381D01*
X159171429Y-97947619D01*
X159647619Y-98185714D02*
X159647619Y-98852381D01*
X159647619Y-98280952D02*
X159695238Y-98233333D01*
X159790476Y-98185714D01*
X159933334Y-98185714D01*
X160028572Y-98233333D01*
X160076191Y-98328571D01*
X160076191Y-98852381D01*
X161076191Y-98852381D02*
X160504762Y-98852381D01*
X160790476Y-98852381D02*
X160790476Y-97852381D01*
X160695238Y-97995238D01*
X160600000Y-98090476D01*
X160504762Y-98138095D01*
X157319048Y-90866667D02*
X157795239Y-90866667D01*
X157223810Y-91152381D02*
X157557143Y-90152381D01*
X157890477Y-91152381D01*
X158223810Y-90485714D02*
X158223810Y-91485714D01*
X158223810Y-90533333D02*
X158319048Y-90485714D01*
X158509525Y-90485714D01*
X158604763Y-90533333D01*
X158652382Y-90580952D01*
X158700001Y-90676190D01*
X158700001Y-90961905D01*
X158652382Y-91057143D01*
X158604763Y-91104762D01*
X158509525Y-91152381D01*
X158319048Y-91152381D01*
X158223810Y-91104762D01*
X159033334Y-90485714D02*
X159223810Y-91152381D01*
X159414287Y-90676190D01*
X159604763Y-91152381D01*
X159795239Y-90485714D01*
X160176191Y-91152381D02*
X160176191Y-90485714D01*
X160176191Y-90580952D02*
X160223810Y-90533333D01*
X160319048Y-90485714D01*
X160461906Y-90485714D01*
X160557144Y-90533333D01*
X160604763Y-90628571D01*
X160604763Y-91152381D01*
X160604763Y-90628571D02*
X160652382Y-90533333D01*
X160747620Y-90485714D01*
X160890477Y-90485714D01*
X160985715Y-90533333D01*
X161033334Y-90628571D01*
X161033334Y-91152381D01*
X158245238Y-93516667D02*
X158721429Y-93516667D01*
X158150000Y-93802381D02*
X158483333Y-92802381D01*
X158816667Y-93802381D01*
X159150000Y-93802381D02*
X159150000Y-93135714D01*
X159150000Y-92802381D02*
X159102381Y-92850000D01*
X159150000Y-92897619D01*
X159197619Y-92850000D01*
X159150000Y-92802381D01*
X159150000Y-92897619D01*
X159626190Y-93135714D02*
X159626190Y-93802381D01*
X159626190Y-93230952D02*
X159673809Y-93183333D01*
X159769047Y-93135714D01*
X159911905Y-93135714D01*
X160007143Y-93183333D01*
X160054762Y-93278571D01*
X160054762Y-93802381D01*
X160483333Y-92897619D02*
X160530952Y-92850000D01*
X160626190Y-92802381D01*
X160864286Y-92802381D01*
X160959524Y-92850000D01*
X161007143Y-92897619D01*
X161054762Y-92992857D01*
X161054762Y-93088095D01*
X161007143Y-93230952D01*
X160435714Y-93802381D01*
X161054762Y-93802381D01*
X158145238Y-96116667D02*
X158621429Y-96116667D01*
X158050000Y-96402381D02*
X158383333Y-95402381D01*
X158716667Y-96402381D01*
X159050000Y-96402381D02*
X159050000Y-95735714D01*
X159050000Y-95402381D02*
X159002381Y-95450000D01*
X159050000Y-95497619D01*
X159097619Y-95450000D01*
X159050000Y-95402381D01*
X159050000Y-95497619D01*
X159526190Y-95735714D02*
X159526190Y-96402381D01*
X159526190Y-95830952D02*
X159573809Y-95783333D01*
X159669047Y-95735714D01*
X159811905Y-95735714D01*
X159907143Y-95783333D01*
X159954762Y-95878571D01*
X159954762Y-96402381D01*
X160954762Y-96402381D02*
X160383333Y-96402381D01*
X160669047Y-96402381D02*
X160669047Y-95402381D01*
X160573809Y-95545238D01*
X160478571Y-95640476D01*
X160383333Y-95688095D01*
D13*
X128617857Y-105732143D02*
X128903571Y-105827381D01*
X128998810Y-105922619D01*
X129094048Y-106113095D01*
X129094048Y-106398810D01*
X128998810Y-106589286D01*
X128903571Y-106684524D01*
X128713095Y-106779762D01*
X127951190Y-106779762D01*
X127951190Y-104779762D01*
X128617857Y-104779762D01*
X128808333Y-104875000D01*
X128903571Y-104970238D01*
X128998810Y-105160714D01*
X128998810Y-105351190D01*
X128903571Y-105541667D01*
X128808333Y-105636905D01*
X128617857Y-105732143D01*
X127951190Y-105732143D01*
X124748809Y-92508333D02*
X125701190Y-92508333D01*
X124558333Y-93079762D02*
X125225000Y-91079762D01*
X125891667Y-93079762D01*
D12*
X158638096Y-87850000D02*
X158542858Y-87802381D01*
X158400001Y-87802381D01*
X158257143Y-87850000D01*
X158161905Y-87945238D01*
X158114286Y-88040476D01*
X158066667Y-88230952D01*
X158066667Y-88373810D01*
X158114286Y-88564286D01*
X158161905Y-88659524D01*
X158257143Y-88754762D01*
X158400001Y-88802381D01*
X158495239Y-88802381D01*
X158638096Y-88754762D01*
X158685715Y-88707143D01*
X158685715Y-88373810D01*
X158495239Y-88373810D01*
X159114286Y-88802381D02*
X159114286Y-87802381D01*
X159685715Y-88802381D01*
X159685715Y-87802381D01*
X160161905Y-88802381D02*
X160161905Y-87802381D01*
X160400000Y-87802381D01*
X160542858Y-87850000D01*
X160638096Y-87945238D01*
X160685715Y-88040476D01*
X160733334Y-88230952D01*
X160733334Y-88373810D01*
X160685715Y-88564286D01*
X160638096Y-88659524D01*
X160542858Y-88754762D01*
X160400000Y-88802381D01*
X160161905Y-88802381D01*
X158359524Y-84902381D02*
X158692857Y-85902381D01*
X159026191Y-84902381D01*
X159788096Y-85854762D02*
X159692858Y-85902381D01*
X159502381Y-85902381D01*
X159407143Y-85854762D01*
X159359524Y-85807143D01*
X159311905Y-85711905D01*
X159311905Y-85426190D01*
X159359524Y-85330952D01*
X159407143Y-85283333D01*
X159502381Y-85235714D01*
X159692858Y-85235714D01*
X159788096Y-85283333D01*
X160645239Y-85854762D02*
X160550001Y-85902381D01*
X160359524Y-85902381D01*
X160264286Y-85854762D01*
X160216667Y-85807143D01*
X160169048Y-85711905D01*
X160169048Y-85426190D01*
X160216667Y-85330952D01*
X160264286Y-85283333D01*
X160359524Y-85235714D01*
X160550001Y-85235714D01*
X160645239Y-85283333D01*
X141261904Y-83928571D02*
X141595238Y-83928571D01*
X141738095Y-84452381D02*
X141261904Y-84452381D01*
X141261904Y-83452381D01*
X141738095Y-83452381D01*
X142071428Y-84452381D02*
X142595238Y-83785714D01*
X142071428Y-83785714D02*
X142595238Y-84452381D01*
X142833333Y-83785714D02*
X143214285Y-83785714D01*
X142976190Y-83452381D02*
X142976190Y-84309524D01*
X143023809Y-84404762D01*
X143119047Y-84452381D01*
X143214285Y-84452381D01*
X143547619Y-84357143D02*
X143595238Y-84404762D01*
X143547619Y-84452381D01*
X143500000Y-84404762D01*
X143547619Y-84357143D01*
X143547619Y-84452381D01*
X144785714Y-84452381D02*
X144785714Y-83452381D01*
X145166667Y-83452381D01*
X145261905Y-83500000D01*
X145309524Y-83547619D01*
X145357143Y-83642857D01*
X145357143Y-83785714D01*
X145309524Y-83880952D01*
X145261905Y-83928571D01*
X145166667Y-83976190D01*
X144785714Y-83976190D01*
X145928571Y-84452381D02*
X145833333Y-84404762D01*
X145785714Y-84357143D01*
X145738095Y-84261905D01*
X145738095Y-83976190D01*
X145785714Y-83880952D01*
X145833333Y-83833333D01*
X145928571Y-83785714D01*
X146071429Y-83785714D01*
X146166667Y-83833333D01*
X146214286Y-83880952D01*
X146261905Y-83976190D01*
X146261905Y-84261905D01*
X146214286Y-84357143D01*
X146166667Y-84404762D01*
X146071429Y-84452381D01*
X145928571Y-84452381D01*
X146595238Y-83785714D02*
X146785714Y-84452381D01*
X146976191Y-83976190D01*
X147166667Y-84452381D01*
X147357143Y-83785714D01*
X148119048Y-84404762D02*
X148023810Y-84452381D01*
X147833333Y-84452381D01*
X147738095Y-84404762D01*
X147690476Y-84309524D01*
X147690476Y-83928571D01*
X147738095Y-83833333D01*
X147833333Y-83785714D01*
X148023810Y-83785714D01*
X148119048Y-83833333D01*
X148166667Y-83928571D01*
X148166667Y-84023810D01*
X147690476Y-84119048D01*
X148595238Y-84452381D02*
X148595238Y-83785714D01*
X148595238Y-83976190D02*
X148642857Y-83880952D01*
X148690476Y-83833333D01*
X148785714Y-83785714D01*
X148880953Y-83785714D01*
D14*
X147250000Y-88900000D02*
X148250000Y-88900000D01*
X148250000Y-87200000D02*
X147250000Y-87200000D01*
X147000000Y-100500000D02*
X148000000Y-100500000D01*
X148000000Y-98800000D02*
X147000000Y-98800000D01*
X161680000Y-102180000D02*
X161680000Y-84400000D01*
X161680000Y-84400000D02*
X164220000Y-84400000D01*
X164220000Y-84400000D02*
X164220000Y-102180000D01*
X161400000Y-105000000D02*
X161400000Y-103450000D01*
X161680000Y-102180000D02*
X164220000Y-102180000D01*
X164500000Y-103450000D02*
X164500000Y-105000000D01*
X164500000Y-105000000D02*
X161400000Y-105000000D01*
X135800000Y-83450000D02*
X135800000Y-82950000D01*
X135300000Y-87450000D02*
G75*
G03X135300000Y-87450000I-2000000J0D01*
G01*
X140300000Y-87450000D02*
G75*
G03X140300000Y-87450000I-2000000J0D01*
G01*
X140800000Y-84950000D02*
X130800000Y-84950000D01*
X140800000Y-89850000D02*
X130800000Y-89850000D01*
X140800000Y-83450000D02*
X130800000Y-83450000D01*
X140800000Y-82950000D02*
X130800000Y-82950000D01*
X130800000Y-82950000D02*
X130800000Y-92750000D01*
X130800000Y-92750000D02*
X140800000Y-92750000D01*
X140800000Y-92750000D02*
X140800000Y-82950000D01*
X147275000Y-104700000D02*
X147975000Y-104700000D01*
X147975000Y-105900000D02*
X147275000Y-105900000D01*
X126795000Y-97470000D02*
X126795000Y-100010000D01*
X127075000Y-94650000D02*
X127075000Y-96200000D01*
X126795000Y-97470000D02*
X124255000Y-97470000D01*
X123975000Y-96200000D02*
X123975000Y-94650000D01*
X123975000Y-94650000D02*
X127075000Y-94650000D01*
X124255000Y-97470000D02*
X124255000Y-100010000D01*
X124255000Y-100010000D02*
X126795000Y-100010000D01*
X124255000Y-105480000D02*
X124255000Y-102940000D01*
X123975000Y-108300000D02*
X123975000Y-106750000D01*
X124255000Y-105480000D02*
X126795000Y-105480000D01*
X127075000Y-106750000D02*
X127075000Y-108300000D01*
X127075000Y-108300000D02*
X123975000Y-108300000D01*
X126795000Y-105480000D02*
X126795000Y-102940000D01*
X126795000Y-102940000D02*
X124255000Y-102940000D01*
X152925000Y-103350000D02*
X152925000Y-104550000D01*
X151175000Y-104550000D02*
X151175000Y-103350000D01*
X155175000Y-103350000D02*
X155175000Y-104550000D01*
X153425000Y-104550000D02*
X153425000Y-103350000D01*
X157425000Y-103350000D02*
X157425000Y-104550000D01*
X155675000Y-104550000D02*
X155675000Y-103350000D01*
X159775000Y-103325000D02*
X159775000Y-104525000D01*
X158025000Y-104525000D02*
X158025000Y-103325000D01*
X156450000Y-94075000D02*
X155250000Y-94075000D01*
X155250000Y-92325000D02*
X156450000Y-92325000D01*
X144625000Y-89575000D02*
X144625000Y-89800000D01*
X150375000Y-89575000D02*
X150375000Y-89875000D01*
X150375000Y-98225000D02*
X150375000Y-97925000D01*
X144625000Y-98225000D02*
X144625000Y-97925000D01*
X144625000Y-89575000D02*
X150375000Y-89575000D01*
X144625000Y-98225000D02*
X150375000Y-98225000D01*
X144625000Y-89800000D02*
X143025000Y-89800000D01*
D15*
X146950000Y-103025000D02*
X147950000Y-103025000D01*
X147950000Y-101325000D02*
X146950000Y-101325000D01*
X132450000Y-93175000D02*
X130750000Y-93175000D01*
X130750000Y-93175000D02*
X130750000Y-96325000D01*
X132450000Y-93175000D02*
X132450000Y-96325000D01*
X130225000Y-95700000D02*
X128525000Y-95700000D01*
X128525000Y-95700000D02*
X128525000Y-98850000D01*
X130225000Y-95700000D02*
X130225000Y-98850000D01*
X134825000Y-93175000D02*
X133125000Y-93175000D01*
X133125000Y-93175000D02*
X133125000Y-96325000D01*
X134825000Y-93175000D02*
X134825000Y-96325000D01*
X132450000Y-98225000D02*
X130750000Y-98225000D01*
X130750000Y-98225000D02*
X130750000Y-101375000D01*
X132450000Y-98225000D02*
X132450000Y-101375000D01*
X140075000Y-101025000D02*
X138375000Y-101025000D01*
X138375000Y-101025000D02*
X138375000Y-104175000D01*
X140075000Y-101025000D02*
X140075000Y-104175000D01*
X137400000Y-106050000D02*
X135700000Y-106050000D01*
X135700000Y-106050000D02*
X135700000Y-109200000D01*
X137400000Y-106050000D02*
X137400000Y-109200000D01*
X137425000Y-101025000D02*
X135725000Y-101025000D01*
X135725000Y-101025000D02*
X135725000Y-104175000D01*
X137425000Y-101025000D02*
X137425000Y-104175000D01*
X135125000Y-103525000D02*
X133425000Y-103525000D01*
X133425000Y-103525000D02*
X133425000Y-106675000D01*
X135125000Y-103525000D02*
X135125000Y-106675000D01*
X147250000Y-86525000D02*
X148250000Y-86525000D01*
X148250000Y-84825000D02*
X147250000Y-84825000D01*
D14*
X151033334Y-88357143D02*
X150985715Y-88404762D01*
X150842858Y-88452381D01*
X150747620Y-88452381D01*
X150604762Y-88404762D01*
X150509524Y-88309524D01*
X150461905Y-88214286D01*
X150414286Y-88023810D01*
X150414286Y-87880952D01*
X150461905Y-87690476D01*
X150509524Y-87595238D01*
X150604762Y-87500000D01*
X150747620Y-87452381D01*
X150842858Y-87452381D01*
X150985715Y-87500000D01*
X151033334Y-87547619D01*
X151985715Y-88452381D02*
X151414286Y-88452381D01*
X151700000Y-88452381D02*
X151700000Y-87452381D01*
X151604762Y-87595238D01*
X151509524Y-87690476D01*
X151414286Y-87738095D01*
X143708334Y-100057143D02*
X143660715Y-100104762D01*
X143517858Y-100152381D01*
X143422620Y-100152381D01*
X143279762Y-100104762D01*
X143184524Y-100009524D01*
X143136905Y-99914286D01*
X143089286Y-99723810D01*
X143089286Y-99580952D01*
X143136905Y-99390476D01*
X143184524Y-99295238D01*
X143279762Y-99200000D01*
X143422620Y-99152381D01*
X143517858Y-99152381D01*
X143660715Y-99200000D01*
X143708334Y-99247619D01*
X144089286Y-99247619D02*
X144136905Y-99200000D01*
X144232143Y-99152381D01*
X144470239Y-99152381D01*
X144565477Y-99200000D01*
X144613096Y-99247619D01*
X144660715Y-99342857D01*
X144660715Y-99438095D01*
X144613096Y-99580952D01*
X144041667Y-100152381D01*
X144660715Y-100152381D01*
X164861905Y-84552381D02*
X164861905Y-83552381D01*
X165242858Y-83552381D01*
X165338096Y-83600000D01*
X165385715Y-83647619D01*
X165433334Y-83742857D01*
X165433334Y-83885714D01*
X165385715Y-83980952D01*
X165338096Y-84028571D01*
X165242858Y-84076190D01*
X164861905Y-84076190D01*
X166385715Y-84552381D02*
X165814286Y-84552381D01*
X166100000Y-84552381D02*
X166100000Y-83552381D01*
X166004762Y-83695238D01*
X165909524Y-83790476D01*
X165814286Y-83838095D01*
X135061905Y-91752381D02*
X135061905Y-90752381D01*
X135442858Y-90752381D01*
X135538096Y-90800000D01*
X135585715Y-90847619D01*
X135633334Y-90942857D01*
X135633334Y-91085714D01*
X135585715Y-91180952D01*
X135538096Y-91228571D01*
X135442858Y-91276190D01*
X135061905Y-91276190D01*
X136014286Y-90847619D02*
X136061905Y-90800000D01*
X136157143Y-90752381D01*
X136395239Y-90752381D01*
X136490477Y-90800000D01*
X136538096Y-90847619D01*
X136585715Y-90942857D01*
X136585715Y-91038095D01*
X136538096Y-91180952D01*
X135966667Y-91752381D01*
X136585715Y-91752381D01*
X124736905Y-101652381D02*
X124736905Y-100652381D01*
X125117858Y-100652381D01*
X125213096Y-100700000D01*
X125260715Y-100747619D01*
X125308334Y-100842857D01*
X125308334Y-100985714D01*
X125260715Y-101080952D01*
X125213096Y-101128571D01*
X125117858Y-101176190D01*
X124736905Y-101176190D01*
X126165477Y-100985714D02*
X126165477Y-101652381D01*
X125927381Y-100604762D02*
X125689286Y-101319048D01*
X126308334Y-101319048D01*
X124736905Y-109602381D02*
X124736905Y-108602381D01*
X125117858Y-108602381D01*
X125213096Y-108650000D01*
X125260715Y-108697619D01*
X125308334Y-108792857D01*
X125308334Y-108935714D01*
X125260715Y-109030952D01*
X125213096Y-109078571D01*
X125117858Y-109126190D01*
X124736905Y-109126190D01*
X126213096Y-108602381D02*
X125736905Y-108602381D01*
X125689286Y-109078571D01*
X125736905Y-109030952D01*
X125832143Y-108983333D01*
X126070239Y-108983333D01*
X126165477Y-109030952D01*
X126213096Y-109078571D01*
X126260715Y-109173810D01*
X126260715Y-109411905D01*
X126213096Y-109507143D01*
X126165477Y-109554762D01*
X126070239Y-109602381D01*
X125832143Y-109602381D01*
X125736905Y-109554762D01*
X125689286Y-109507143D01*
X151958334Y-107802381D02*
X151625000Y-107326190D01*
X151386905Y-107802381D02*
X151386905Y-106802381D01*
X151767858Y-106802381D01*
X151863096Y-106850000D01*
X151910715Y-106897619D01*
X151958334Y-106992857D01*
X151958334Y-107135714D01*
X151910715Y-107230952D01*
X151863096Y-107278571D01*
X151767858Y-107326190D01*
X151386905Y-107326190D01*
X152910715Y-107802381D02*
X152339286Y-107802381D01*
X152625000Y-107802381D02*
X152625000Y-106802381D01*
X152529762Y-106945238D01*
X152434524Y-107040476D01*
X152339286Y-107088095D01*
X154158334Y-107777381D02*
X153825000Y-107301190D01*
X153586905Y-107777381D02*
X153586905Y-106777381D01*
X153967858Y-106777381D01*
X154063096Y-106825000D01*
X154110715Y-106872619D01*
X154158334Y-106967857D01*
X154158334Y-107110714D01*
X154110715Y-107205952D01*
X154063096Y-107253571D01*
X153967858Y-107301190D01*
X153586905Y-107301190D01*
X154539286Y-106872619D02*
X154586905Y-106825000D01*
X154682143Y-106777381D01*
X154920239Y-106777381D01*
X155015477Y-106825000D01*
X155063096Y-106872619D01*
X155110715Y-106967857D01*
X155110715Y-107063095D01*
X155063096Y-107205952D01*
X154491667Y-107777381D01*
X155110715Y-107777381D01*
X156483334Y-107702381D02*
X156150000Y-107226190D01*
X155911905Y-107702381D02*
X155911905Y-106702381D01*
X156292858Y-106702381D01*
X156388096Y-106750000D01*
X156435715Y-106797619D01*
X156483334Y-106892857D01*
X156483334Y-107035714D01*
X156435715Y-107130952D01*
X156388096Y-107178571D01*
X156292858Y-107226190D01*
X155911905Y-107226190D01*
X156816667Y-106702381D02*
X157435715Y-106702381D01*
X157102381Y-107083333D01*
X157245239Y-107083333D01*
X157340477Y-107130952D01*
X157388096Y-107178571D01*
X157435715Y-107273810D01*
X157435715Y-107511905D01*
X157388096Y-107607143D01*
X157340477Y-107654762D01*
X157245239Y-107702381D01*
X156959524Y-107702381D01*
X156864286Y-107654762D01*
X156816667Y-107607143D01*
X158733334Y-107702381D02*
X158400000Y-107226190D01*
X158161905Y-107702381D02*
X158161905Y-106702381D01*
X158542858Y-106702381D01*
X158638096Y-106750000D01*
X158685715Y-106797619D01*
X158733334Y-106892857D01*
X158733334Y-107035714D01*
X158685715Y-107130952D01*
X158638096Y-107178571D01*
X158542858Y-107226190D01*
X158161905Y-107226190D01*
X159590477Y-107035714D02*
X159590477Y-107702381D01*
X159352381Y-106654762D02*
X159114286Y-107369048D01*
X159733334Y-107369048D01*
X153352381Y-93316666D02*
X152876190Y-93650000D01*
X153352381Y-93888095D02*
X152352381Y-93888095D01*
X152352381Y-93507142D01*
X152400000Y-93411904D01*
X152447619Y-93364285D01*
X152542857Y-93316666D01*
X152685714Y-93316666D01*
X152780952Y-93364285D01*
X152828571Y-93411904D01*
X152876190Y-93507142D01*
X152876190Y-93888095D01*
X152352381Y-92411904D02*
X152352381Y-92888095D01*
X152828571Y-92935714D01*
X152780952Y-92888095D01*
X152733333Y-92792857D01*
X152733333Y-92554761D01*
X152780952Y-92459523D01*
X152828571Y-92411904D01*
X152923810Y-92364285D01*
X153161905Y-92364285D01*
X153257143Y-92411904D01*
X153304762Y-92459523D01*
X153352381Y-92554761D01*
X153352381Y-92792857D01*
X153304762Y-92888095D01*
X153257143Y-92935714D01*
X146838095Y-93152381D02*
X146838095Y-93961905D01*
X146885714Y-94057143D01*
X146933333Y-94104762D01*
X147028571Y-94152381D01*
X147219048Y-94152381D01*
X147314286Y-94104762D01*
X147361905Y-94057143D01*
X147409524Y-93961905D01*
X147409524Y-93152381D01*
X148409524Y-94152381D02*
X147838095Y-94152381D01*
X148123809Y-94152381D02*
X148123809Y-93152381D01*
X148028571Y-93295238D01*
X147933333Y-93390476D01*
X147838095Y-93438095D01*
X143783334Y-102407143D02*
X143735715Y-102454762D01*
X143592858Y-102502381D01*
X143497620Y-102502381D01*
X143354762Y-102454762D01*
X143259524Y-102359524D01*
X143211905Y-102264286D01*
X143164286Y-102073810D01*
X143164286Y-101930952D01*
X143211905Y-101740476D01*
X143259524Y-101645238D01*
X143354762Y-101550000D01*
X143497620Y-101502381D01*
X143592858Y-101502381D01*
X143735715Y-101550000D01*
X143783334Y-101597619D01*
X144640477Y-101835714D02*
X144640477Y-102502381D01*
X144402381Y-101454762D02*
X144164286Y-102169048D01*
X144783334Y-102169048D01*
X130327381Y-94663095D02*
X129327381Y-94663095D01*
X129327381Y-94425000D01*
X129375000Y-94282142D01*
X129470238Y-94186904D01*
X129565476Y-94139285D01*
X129755952Y-94091666D01*
X129898810Y-94091666D01*
X130089286Y-94139285D01*
X130184524Y-94186904D01*
X130279762Y-94282142D01*
X130327381Y-94425000D01*
X130327381Y-94663095D01*
X130327381Y-93139285D02*
X130327381Y-93710714D01*
X130327381Y-93425000D02*
X129327381Y-93425000D01*
X129470238Y-93520238D01*
X129565476Y-93615476D01*
X129613095Y-93710714D01*
X129752381Y-101413095D02*
X128752381Y-101413095D01*
X128752381Y-101175000D01*
X128800000Y-101032142D01*
X128895238Y-100936904D01*
X128990476Y-100889285D01*
X129180952Y-100841666D01*
X129323810Y-100841666D01*
X129514286Y-100889285D01*
X129609524Y-100936904D01*
X129704762Y-101032142D01*
X129752381Y-101175000D01*
X129752381Y-101413095D01*
X128847619Y-100460714D02*
X128800000Y-100413095D01*
X128752381Y-100317857D01*
X128752381Y-100079761D01*
X128800000Y-99984523D01*
X128847619Y-99936904D01*
X128942857Y-99889285D01*
X129038095Y-99889285D01*
X129180952Y-99936904D01*
X129752381Y-100508333D01*
X129752381Y-99889285D01*
X134377381Y-98963095D02*
X133377381Y-98963095D01*
X133377381Y-98725000D01*
X133425000Y-98582142D01*
X133520238Y-98486904D01*
X133615476Y-98439285D01*
X133805952Y-98391666D01*
X133948810Y-98391666D01*
X134139286Y-98439285D01*
X134234524Y-98486904D01*
X134329762Y-98582142D01*
X134377381Y-98725000D01*
X134377381Y-98963095D01*
X133377381Y-98058333D02*
X133377381Y-97439285D01*
X133758333Y-97772619D01*
X133758333Y-97629761D01*
X133805952Y-97534523D01*
X133853571Y-97486904D01*
X133948810Y-97439285D01*
X134186905Y-97439285D01*
X134282143Y-97486904D01*
X134329762Y-97534523D01*
X134377381Y-97629761D01*
X134377381Y-97915476D01*
X134329762Y-98010714D01*
X134282143Y-98058333D01*
X132102381Y-104013095D02*
X131102381Y-104013095D01*
X131102381Y-103775000D01*
X131150000Y-103632142D01*
X131245238Y-103536904D01*
X131340476Y-103489285D01*
X131530952Y-103441666D01*
X131673810Y-103441666D01*
X131864286Y-103489285D01*
X131959524Y-103536904D01*
X132054762Y-103632142D01*
X132102381Y-103775000D01*
X132102381Y-104013095D01*
X131435714Y-102584523D02*
X132102381Y-102584523D01*
X131054762Y-102822619D02*
X131769048Y-103060714D01*
X131769048Y-102441666D01*
X139527381Y-100638095D02*
X138527381Y-100638095D01*
X138527381Y-100400000D01*
X138575000Y-100257142D01*
X138670238Y-100161904D01*
X138765476Y-100114285D01*
X138955952Y-100066666D01*
X139098810Y-100066666D01*
X139289286Y-100114285D01*
X139384524Y-100161904D01*
X139479762Y-100257142D01*
X139527381Y-100400000D01*
X139527381Y-100638095D01*
X138527381Y-99161904D02*
X138527381Y-99638095D01*
X139003571Y-99685714D01*
X138955952Y-99638095D01*
X138908333Y-99542857D01*
X138908333Y-99304761D01*
X138955952Y-99209523D01*
X139003571Y-99161904D01*
X139098810Y-99114285D01*
X139336905Y-99114285D01*
X139432143Y-99161904D01*
X139479762Y-99209523D01*
X139527381Y-99304761D01*
X139527381Y-99542857D01*
X139479762Y-99638095D01*
X139432143Y-99685714D01*
X138852381Y-108688095D02*
X137852381Y-108688095D01*
X137852381Y-108450000D01*
X137900000Y-108307142D01*
X137995238Y-108211904D01*
X138090476Y-108164285D01*
X138280952Y-108116666D01*
X138423810Y-108116666D01*
X138614286Y-108164285D01*
X138709524Y-108211904D01*
X138804762Y-108307142D01*
X138852381Y-108450000D01*
X138852381Y-108688095D01*
X137852381Y-107259523D02*
X137852381Y-107450000D01*
X137900000Y-107545238D01*
X137947619Y-107592857D01*
X138090476Y-107688095D01*
X138280952Y-107735714D01*
X138661905Y-107735714D01*
X138757143Y-107688095D01*
X138804762Y-107640476D01*
X138852381Y-107545238D01*
X138852381Y-107354761D01*
X138804762Y-107259523D01*
X138757143Y-107211904D01*
X138661905Y-107164285D01*
X138423810Y-107164285D01*
X138328571Y-107211904D01*
X138280952Y-107259523D01*
X138233333Y-107354761D01*
X138233333Y-107545238D01*
X138280952Y-107640476D01*
X138328571Y-107688095D01*
X138423810Y-107735714D01*
X137127381Y-100438095D02*
X136127381Y-100438095D01*
X136127381Y-100200000D01*
X136175000Y-100057142D01*
X136270238Y-99961904D01*
X136365476Y-99914285D01*
X136555952Y-99866666D01*
X136698810Y-99866666D01*
X136889286Y-99914285D01*
X136984524Y-99961904D01*
X137079762Y-100057142D01*
X137127381Y-100200000D01*
X137127381Y-100438095D01*
X136127381Y-99533333D02*
X136127381Y-98866666D01*
X137127381Y-99295238D01*
X134877381Y-109388095D02*
X133877381Y-109388095D01*
X133877381Y-109150000D01*
X133925000Y-109007142D01*
X134020238Y-108911904D01*
X134115476Y-108864285D01*
X134305952Y-108816666D01*
X134448810Y-108816666D01*
X134639286Y-108864285D01*
X134734524Y-108911904D01*
X134829762Y-109007142D01*
X134877381Y-109150000D01*
X134877381Y-109388095D01*
X134305952Y-108245238D02*
X134258333Y-108340476D01*
X134210714Y-108388095D01*
X134115476Y-108435714D01*
X134067857Y-108435714D01*
X133972619Y-108388095D01*
X133925000Y-108340476D01*
X133877381Y-108245238D01*
X133877381Y-108054761D01*
X133925000Y-107959523D01*
X133972619Y-107911904D01*
X134067857Y-107864285D01*
X134115476Y-107864285D01*
X134210714Y-107911904D01*
X134258333Y-107959523D01*
X134305952Y-108054761D01*
X134305952Y-108245238D01*
X134353571Y-108340476D01*
X134401190Y-108388095D01*
X134496429Y-108435714D01*
X134686905Y-108435714D01*
X134782143Y-108388095D01*
X134829762Y-108340476D01*
X134877381Y-108245238D01*
X134877381Y-108054761D01*
X134829762Y-107959523D01*
X134782143Y-107911904D01*
X134686905Y-107864285D01*
X134496429Y-107864285D01*
X134401190Y-107911904D01*
X134353571Y-107959523D01*
X134305952Y-108054761D01*
X150908334Y-86082143D02*
X150860715Y-86129762D01*
X150717858Y-86177381D01*
X150622620Y-86177381D01*
X150479762Y-86129762D01*
X150384524Y-86034524D01*
X150336905Y-85939286D01*
X150289286Y-85748810D01*
X150289286Y-85605952D01*
X150336905Y-85415476D01*
X150384524Y-85320238D01*
X150479762Y-85225000D01*
X150622620Y-85177381D01*
X150717858Y-85177381D01*
X150860715Y-85225000D01*
X150908334Y-85272619D01*
X151241667Y-85177381D02*
X151860715Y-85177381D01*
X151527381Y-85558333D01*
X151670239Y-85558333D01*
X151765477Y-85605952D01*
X151813096Y-85653571D01*
X151860715Y-85748810D01*
X151860715Y-85986905D01*
X151813096Y-86082143D01*
X151765477Y-86129762D01*
X151670239Y-86177381D01*
X151384524Y-86177381D01*
X151289286Y-86129762D01*
X151241667Y-86082143D01*
M02*
