%FSLAX45Y45*%
G04 Gerber Fmt 4.5, Leading zero omitted, Abs format (unit mm)*
G04 Created by KiCad (PCBNEW 4.0.6+dfsg1-1) date Tue Feb 13 22:00:59 2018*
%MOMM*%
%LPD*%
G01*
G04 APERTURE LIST*
%ADD10C,0.127000*%
%ADD11C,0.150000*%
%ADD12C,0.200000*%
%ADD13C,0.300000*%
G04 APERTURE END LIST*
D10*
D11*
X12250000Y-11020000D02*
X12250000Y-8250000D01*
X16710000Y-11020000D02*
X12250000Y-11020000D01*
X16710000Y-8250000D02*
X16710000Y-11020000D01*
X12250000Y-8250000D02*
X16710000Y-8250000D01*
D12*
X13667500Y-9887500D02*
X13707500Y-9927500D01*
X13707500Y-9887500D02*
X13667500Y-9927500D01*
X15305000Y-9737500D02*
X15345000Y-9777500D01*
X15345000Y-9737500D02*
X15305000Y-9777500D01*
X15510000Y-8742500D02*
X15550000Y-8782500D01*
X15550000Y-8742500D02*
X15510000Y-8782500D01*
X12603300Y-9620000D02*
G75*
G03X12603300Y-9620000I-50800J0D01*
G01*
X12603300Y-9874000D02*
G75*
G03X12603300Y-9874000I-50800J0D01*
G01*
X12603300Y-10421000D02*
G75*
G03X12603300Y-10421000I-50800J0D01*
G01*
X12603300Y-10675000D02*
G75*
G03X12603300Y-10675000I-50800J0D01*
G01*
X13380800Y-8755000D02*
G75*
G03X13380800Y-8755000I-50800J0D01*
G01*
X13880800Y-8755000D02*
G75*
G03X13880800Y-8755000I-50800J0D01*
G01*
X16345800Y-8567000D02*
G75*
G03X16345800Y-8567000I-50800J0D01*
G01*
X16345800Y-8821000D02*
G75*
G03X16345800Y-8821000I-50800J0D01*
G01*
X16345800Y-9075000D02*
G75*
G03X16345800Y-9075000I-50800J0D01*
G01*
X16345800Y-9329000D02*
G75*
G03X16345800Y-9329000I-50800J0D01*
G01*
X16345800Y-9583000D02*
G75*
G03X16345800Y-9583000I-50800J0D01*
G01*
X16345800Y-9837000D02*
G75*
G03X16345800Y-9837000I-50800J0D01*
G01*
X16345800Y-10091000D02*
G75*
G03X16345800Y-10091000I-50800J0D01*
G01*
X16345800Y-10345000D02*
G75*
G03X16345800Y-10345000I-50800J0D01*
G01*
D13*
X12513928Y-11493214D02*
X12513928Y-11193214D01*
X12585357Y-11193214D01*
X12628214Y-11207500D01*
X12656786Y-11236071D01*
X12671071Y-11264643D01*
X12685357Y-11321786D01*
X12685357Y-11364643D01*
X12671071Y-11421786D01*
X12656786Y-11450357D01*
X12628214Y-11478929D01*
X12585357Y-11493214D01*
X12513928Y-11493214D01*
X12813928Y-11493214D02*
X12813928Y-11293214D01*
X12813928Y-11350357D02*
X12828214Y-11321786D01*
X12842500Y-11307500D01*
X12871071Y-11293214D01*
X12899643Y-11293214D01*
X12999643Y-11493214D02*
X12999643Y-11293214D01*
X12999643Y-11193214D02*
X12985357Y-11207500D01*
X12999643Y-11221786D01*
X13013928Y-11207500D01*
X12999643Y-11193214D01*
X12999643Y-11221786D01*
X13185357Y-11493214D02*
X13156786Y-11478929D01*
X13142500Y-11450357D01*
X13142500Y-11193214D01*
X13342500Y-11493214D02*
X13313928Y-11478929D01*
X13299643Y-11450357D01*
X13299643Y-11193214D01*
X13685357Y-11493214D02*
X13685357Y-11193214D01*
X13785357Y-11407500D01*
X13885357Y-11193214D01*
X13885357Y-11493214D01*
X14156786Y-11493214D02*
X14156786Y-11336071D01*
X14142500Y-11307500D01*
X14113928Y-11293214D01*
X14056786Y-11293214D01*
X14028214Y-11307500D01*
X14156786Y-11478929D02*
X14128214Y-11493214D01*
X14056786Y-11493214D01*
X14028214Y-11478929D01*
X14013928Y-11450357D01*
X14013928Y-11421786D01*
X14028214Y-11393214D01*
X14056786Y-11378929D01*
X14128214Y-11378929D01*
X14156786Y-11364643D01*
X14299643Y-11293214D02*
X14299643Y-11593214D01*
X14299643Y-11307500D02*
X14328214Y-11293214D01*
X14385357Y-11293214D01*
X14413928Y-11307500D01*
X14428214Y-11321786D01*
X14442500Y-11350357D01*
X14442500Y-11436071D01*
X14428214Y-11464643D01*
X14413928Y-11478929D01*
X14385357Y-11493214D01*
X14328214Y-11493214D01*
X14299643Y-11478929D01*
X14571071Y-11464643D02*
X14585357Y-11478929D01*
X14571071Y-11493214D01*
X14556786Y-11478929D01*
X14571071Y-11464643D01*
X14571071Y-11493214D01*
X14571071Y-11307500D02*
X14585357Y-11321786D01*
X14571071Y-11336071D01*
X14556786Y-11321786D01*
X14571071Y-11307500D01*
X14571071Y-11336071D01*
X12202500Y-11967500D02*
X12242500Y-12007500D01*
X12242500Y-11967500D02*
X12202500Y-12007500D01*
X12571071Y-11823214D02*
X12599643Y-11823214D01*
X12628214Y-11837500D01*
X12642500Y-11851786D01*
X12656786Y-11880357D01*
X12671071Y-11937500D01*
X12671071Y-12008929D01*
X12656786Y-12066071D01*
X12642500Y-12094643D01*
X12628214Y-12108929D01*
X12599643Y-12123214D01*
X12571071Y-12123214D01*
X12542500Y-12108929D01*
X12528214Y-12094643D01*
X12513928Y-12066071D01*
X12499643Y-12008929D01*
X12499643Y-11937500D01*
X12513928Y-11880357D01*
X12528214Y-11851786D01*
X12542500Y-11837500D01*
X12571071Y-11823214D01*
X12799643Y-12094643D02*
X12813928Y-12108929D01*
X12799643Y-12123214D01*
X12785357Y-12108929D01*
X12799643Y-12094643D01*
X12799643Y-12123214D01*
X13071071Y-11923214D02*
X13071071Y-12123214D01*
X12999643Y-11808929D02*
X12928214Y-12023214D01*
X13113928Y-12023214D01*
X13285357Y-11823214D02*
X13313928Y-11823214D01*
X13342500Y-11837500D01*
X13356786Y-11851786D01*
X13371071Y-11880357D01*
X13385357Y-11937500D01*
X13385357Y-12008929D01*
X13371071Y-12066071D01*
X13356786Y-12094643D01*
X13342500Y-12108929D01*
X13313928Y-12123214D01*
X13285357Y-12123214D01*
X13256786Y-12108929D01*
X13242500Y-12094643D01*
X13228214Y-12066071D01*
X13213928Y-12008929D01*
X13213928Y-11937500D01*
X13228214Y-11880357D01*
X13242500Y-11851786D01*
X13256786Y-11837500D01*
X13285357Y-11823214D01*
X13513928Y-12123214D02*
X13513928Y-11923214D01*
X13513928Y-11951786D02*
X13528214Y-11937500D01*
X13556786Y-11923214D01*
X13599643Y-11923214D01*
X13628214Y-11937500D01*
X13642500Y-11966071D01*
X13642500Y-12123214D01*
X13642500Y-11966071D02*
X13656786Y-11937500D01*
X13685357Y-11923214D01*
X13728214Y-11923214D01*
X13756786Y-11937500D01*
X13771071Y-11966071D01*
X13771071Y-12123214D01*
X13913928Y-12123214D02*
X13913928Y-11923214D01*
X13913928Y-11951786D02*
X13928214Y-11937500D01*
X13956786Y-11923214D01*
X13999643Y-11923214D01*
X14028214Y-11937500D01*
X14042500Y-11966071D01*
X14042500Y-12123214D01*
X14042500Y-11966071D02*
X14056786Y-11937500D01*
X14085357Y-11923214D01*
X14128214Y-11923214D01*
X14156786Y-11937500D01*
X14171071Y-11966071D01*
X14171071Y-12123214D01*
X14756786Y-11808929D02*
X14499643Y-12194643D01*
X15142500Y-11823214D02*
X15171071Y-11823214D01*
X15199643Y-11837500D01*
X15213928Y-11851786D01*
X15228214Y-11880357D01*
X15242500Y-11937500D01*
X15242500Y-12008929D01*
X15228214Y-12066071D01*
X15213928Y-12094643D01*
X15199643Y-12108929D01*
X15171071Y-12123214D01*
X15142500Y-12123214D01*
X15113928Y-12108929D01*
X15099643Y-12094643D01*
X15085357Y-12066071D01*
X15071071Y-12008929D01*
X15071071Y-11937500D01*
X15085357Y-11880357D01*
X15099643Y-11851786D01*
X15113928Y-11837500D01*
X15142500Y-11823214D01*
X15371071Y-12094643D02*
X15385357Y-12108929D01*
X15371071Y-12123214D01*
X15356786Y-12108929D01*
X15371071Y-12094643D01*
X15371071Y-12123214D01*
X15571071Y-11823214D02*
X15599643Y-11823214D01*
X15628214Y-11837500D01*
X15642500Y-11851786D01*
X15656785Y-11880357D01*
X15671071Y-11937500D01*
X15671071Y-12008929D01*
X15656785Y-12066071D01*
X15642500Y-12094643D01*
X15628214Y-12108929D01*
X15599643Y-12123214D01*
X15571071Y-12123214D01*
X15542500Y-12108929D01*
X15528214Y-12094643D01*
X15513928Y-12066071D01*
X15499643Y-12008929D01*
X15499643Y-11937500D01*
X15513928Y-11880357D01*
X15528214Y-11851786D01*
X15542500Y-11837500D01*
X15571071Y-11823214D01*
X15956785Y-12123214D02*
X15785357Y-12123214D01*
X15871071Y-12123214D02*
X15871071Y-11823214D01*
X15842500Y-11866071D01*
X15813928Y-11894643D01*
X15785357Y-11908929D01*
X16213928Y-11823214D02*
X16156785Y-11823214D01*
X16128214Y-11837500D01*
X16113928Y-11851786D01*
X16085357Y-11894643D01*
X16071071Y-11951786D01*
X16071071Y-12066071D01*
X16085357Y-12094643D01*
X16099643Y-12108929D01*
X16128214Y-12123214D01*
X16185357Y-12123214D01*
X16213928Y-12108929D01*
X16228214Y-12094643D01*
X16242500Y-12066071D01*
X16242500Y-11994643D01*
X16228214Y-11966071D01*
X16213928Y-11951786D01*
X16185357Y-11937500D01*
X16128214Y-11937500D01*
X16099643Y-11951786D01*
X16085357Y-11966071D01*
X16071071Y-11994643D01*
X16356786Y-11823214D02*
X16356786Y-11880357D01*
X16471071Y-11823214D02*
X16471071Y-11880357D01*
X16913928Y-12237500D02*
X16899643Y-12223214D01*
X16871071Y-12180357D01*
X16856786Y-12151786D01*
X16842500Y-12108929D01*
X16828214Y-12037500D01*
X16828214Y-11980357D01*
X16842500Y-11908929D01*
X16856786Y-11866071D01*
X16871071Y-11837500D01*
X16899643Y-11794643D01*
X16913928Y-11780357D01*
X16999643Y-11823214D02*
X17185357Y-11823214D01*
X17085357Y-11937500D01*
X17128214Y-11937500D01*
X17156786Y-11951786D01*
X17171071Y-11966071D01*
X17185357Y-11994643D01*
X17185357Y-12066071D01*
X17171071Y-12094643D01*
X17156786Y-12108929D01*
X17128214Y-12123214D01*
X17042500Y-12123214D01*
X17013928Y-12108929D01*
X16999643Y-12094643D01*
X17542500Y-12123214D02*
X17542500Y-11823214D01*
X17671071Y-12123214D02*
X17671071Y-11966071D01*
X17656786Y-11937500D01*
X17628214Y-11923214D01*
X17585357Y-11923214D01*
X17556786Y-11937500D01*
X17542500Y-11951786D01*
X17856786Y-12123214D02*
X17828214Y-12108929D01*
X17813928Y-12094643D01*
X17799643Y-12066071D01*
X17799643Y-11980357D01*
X17813928Y-11951786D01*
X17828214Y-11937500D01*
X17856786Y-11923214D01*
X17899643Y-11923214D01*
X17928214Y-11937500D01*
X17942500Y-11951786D01*
X17956786Y-11980357D01*
X17956786Y-12066071D01*
X17942500Y-12094643D01*
X17928214Y-12108929D01*
X17899643Y-12123214D01*
X17856786Y-12123214D01*
X18128214Y-12123214D02*
X18099643Y-12108929D01*
X18085357Y-12080357D01*
X18085357Y-11823214D01*
X18356786Y-12108929D02*
X18328214Y-12123214D01*
X18271071Y-12123214D01*
X18242500Y-12108929D01*
X18228214Y-12080357D01*
X18228214Y-11966071D01*
X18242500Y-11937500D01*
X18271071Y-11923214D01*
X18328214Y-11923214D01*
X18356786Y-11937500D01*
X18371071Y-11966071D01*
X18371071Y-11994643D01*
X18228214Y-12023214D01*
X18485357Y-12108929D02*
X18513929Y-12123214D01*
X18571071Y-12123214D01*
X18599643Y-12108929D01*
X18613929Y-12080357D01*
X18613929Y-12066071D01*
X18599643Y-12037500D01*
X18571071Y-12023214D01*
X18528214Y-12023214D01*
X18499643Y-12008929D01*
X18485357Y-11980357D01*
X18485357Y-11966071D01*
X18499643Y-11937500D01*
X18528214Y-11923214D01*
X18571071Y-11923214D01*
X18599643Y-11937500D01*
X18713928Y-12237500D02*
X18728214Y-12223214D01*
X18756786Y-12180357D01*
X18771071Y-12151786D01*
X18785357Y-12108929D01*
X18799643Y-12037500D01*
X18799643Y-11980357D01*
X18785357Y-11908929D01*
X18771071Y-11866071D01*
X18756786Y-11837500D01*
X18728214Y-11794643D01*
X18713928Y-11780357D01*
X12242500Y-12383500D02*
G75*
G03X12242500Y-12383500I-50800J0D01*
G01*
X12671071Y-12519214D02*
X12499643Y-12519214D01*
X12585357Y-12519214D02*
X12585357Y-12219214D01*
X12556786Y-12262071D01*
X12528214Y-12290643D01*
X12499643Y-12304929D01*
X12799643Y-12490643D02*
X12813928Y-12504929D01*
X12799643Y-12519214D01*
X12785357Y-12504929D01*
X12799643Y-12490643D01*
X12799643Y-12519214D01*
X12999643Y-12219214D02*
X13028214Y-12219214D01*
X13056786Y-12233500D01*
X13071071Y-12247786D01*
X13085357Y-12276357D01*
X13099643Y-12333500D01*
X13099643Y-12404929D01*
X13085357Y-12462071D01*
X13071071Y-12490643D01*
X13056786Y-12504929D01*
X13028214Y-12519214D01*
X12999643Y-12519214D01*
X12971071Y-12504929D01*
X12956786Y-12490643D01*
X12942500Y-12462071D01*
X12928214Y-12404929D01*
X12928214Y-12333500D01*
X12942500Y-12276357D01*
X12956786Y-12247786D01*
X12971071Y-12233500D01*
X12999643Y-12219214D01*
X13213928Y-12247786D02*
X13228214Y-12233500D01*
X13256786Y-12219214D01*
X13328214Y-12219214D01*
X13356786Y-12233500D01*
X13371071Y-12247786D01*
X13385357Y-12276357D01*
X13385357Y-12304929D01*
X13371071Y-12347786D01*
X13199643Y-12519214D01*
X13385357Y-12519214D01*
X13513928Y-12519214D02*
X13513928Y-12319214D01*
X13513928Y-12347786D02*
X13528214Y-12333500D01*
X13556786Y-12319214D01*
X13599643Y-12319214D01*
X13628214Y-12333500D01*
X13642500Y-12362071D01*
X13642500Y-12519214D01*
X13642500Y-12362071D02*
X13656786Y-12333500D01*
X13685357Y-12319214D01*
X13728214Y-12319214D01*
X13756786Y-12333500D01*
X13771071Y-12362071D01*
X13771071Y-12519214D01*
X13913928Y-12519214D02*
X13913928Y-12319214D01*
X13913928Y-12347786D02*
X13928214Y-12333500D01*
X13956786Y-12319214D01*
X13999643Y-12319214D01*
X14028214Y-12333500D01*
X14042500Y-12362071D01*
X14042500Y-12519214D01*
X14042500Y-12362071D02*
X14056786Y-12333500D01*
X14085357Y-12319214D01*
X14128214Y-12319214D01*
X14156786Y-12333500D01*
X14171071Y-12362071D01*
X14171071Y-12519214D01*
X14756786Y-12204929D02*
X14499643Y-12590643D01*
X15142500Y-12219214D02*
X15171071Y-12219214D01*
X15199643Y-12233500D01*
X15213928Y-12247786D01*
X15228214Y-12276357D01*
X15242500Y-12333500D01*
X15242500Y-12404929D01*
X15228214Y-12462071D01*
X15213928Y-12490643D01*
X15199643Y-12504929D01*
X15171071Y-12519214D01*
X15142500Y-12519214D01*
X15113928Y-12504929D01*
X15099643Y-12490643D01*
X15085357Y-12462071D01*
X15071071Y-12404929D01*
X15071071Y-12333500D01*
X15085357Y-12276357D01*
X15099643Y-12247786D01*
X15113928Y-12233500D01*
X15142500Y-12219214D01*
X15371071Y-12490643D02*
X15385357Y-12504929D01*
X15371071Y-12519214D01*
X15356786Y-12504929D01*
X15371071Y-12490643D01*
X15371071Y-12519214D01*
X15571071Y-12219214D02*
X15599643Y-12219214D01*
X15628214Y-12233500D01*
X15642500Y-12247786D01*
X15656785Y-12276357D01*
X15671071Y-12333500D01*
X15671071Y-12404929D01*
X15656785Y-12462071D01*
X15642500Y-12490643D01*
X15628214Y-12504929D01*
X15599643Y-12519214D01*
X15571071Y-12519214D01*
X15542500Y-12504929D01*
X15528214Y-12490643D01*
X15513928Y-12462071D01*
X15499643Y-12404929D01*
X15499643Y-12333500D01*
X15513928Y-12276357D01*
X15528214Y-12247786D01*
X15542500Y-12233500D01*
X15571071Y-12219214D01*
X15928214Y-12319214D02*
X15928214Y-12519214D01*
X15856785Y-12204929D02*
X15785357Y-12419214D01*
X15971071Y-12419214D01*
X16142500Y-12219214D02*
X16171071Y-12219214D01*
X16199643Y-12233500D01*
X16213928Y-12247786D01*
X16228214Y-12276357D01*
X16242500Y-12333500D01*
X16242500Y-12404929D01*
X16228214Y-12462071D01*
X16213928Y-12490643D01*
X16199643Y-12504929D01*
X16171071Y-12519214D01*
X16142500Y-12519214D01*
X16113928Y-12504929D01*
X16099643Y-12490643D01*
X16085357Y-12462071D01*
X16071071Y-12404929D01*
X16071071Y-12333500D01*
X16085357Y-12276357D01*
X16099643Y-12247786D01*
X16113928Y-12233500D01*
X16142500Y-12219214D01*
X16356786Y-12219214D02*
X16356786Y-12276357D01*
X16471071Y-12219214D02*
X16471071Y-12276357D01*
X16913928Y-12633500D02*
X16899643Y-12619214D01*
X16871071Y-12576357D01*
X16856786Y-12547786D01*
X16842500Y-12504929D01*
X16828214Y-12433500D01*
X16828214Y-12376357D01*
X16842500Y-12304929D01*
X16856786Y-12262071D01*
X16871071Y-12233500D01*
X16899643Y-12190643D01*
X16913928Y-12176357D01*
X17185357Y-12519214D02*
X17013928Y-12519214D01*
X17099643Y-12519214D02*
X17099643Y-12219214D01*
X17071071Y-12262071D01*
X17042500Y-12290643D01*
X17013928Y-12304929D01*
X17442500Y-12319214D02*
X17442500Y-12519214D01*
X17371071Y-12204929D02*
X17299643Y-12419214D01*
X17485357Y-12419214D01*
X17828214Y-12519214D02*
X17828214Y-12219214D01*
X17956786Y-12519214D02*
X17956786Y-12362071D01*
X17942500Y-12333500D01*
X17913928Y-12319214D01*
X17871071Y-12319214D01*
X17842500Y-12333500D01*
X17828214Y-12347786D01*
X18142500Y-12519214D02*
X18113928Y-12504929D01*
X18099643Y-12490643D01*
X18085357Y-12462071D01*
X18085357Y-12376357D01*
X18099643Y-12347786D01*
X18113928Y-12333500D01*
X18142500Y-12319214D01*
X18185357Y-12319214D01*
X18213928Y-12333500D01*
X18228214Y-12347786D01*
X18242500Y-12376357D01*
X18242500Y-12462071D01*
X18228214Y-12490643D01*
X18213928Y-12504929D01*
X18185357Y-12519214D01*
X18142500Y-12519214D01*
X18413928Y-12519214D02*
X18385357Y-12504929D01*
X18371071Y-12476357D01*
X18371071Y-12219214D01*
X18642500Y-12504929D02*
X18613929Y-12519214D01*
X18556786Y-12519214D01*
X18528214Y-12504929D01*
X18513929Y-12476357D01*
X18513929Y-12362071D01*
X18528214Y-12333500D01*
X18556786Y-12319214D01*
X18613929Y-12319214D01*
X18642500Y-12333500D01*
X18656786Y-12362071D01*
X18656786Y-12390643D01*
X18513929Y-12419214D01*
X18771071Y-12504929D02*
X18799643Y-12519214D01*
X18856786Y-12519214D01*
X18885357Y-12504929D01*
X18899643Y-12476357D01*
X18899643Y-12462071D01*
X18885357Y-12433500D01*
X18856786Y-12419214D01*
X18813929Y-12419214D01*
X18785357Y-12404929D01*
X18771071Y-12376357D01*
X18771071Y-12362071D01*
X18785357Y-12333500D01*
X18813929Y-12319214D01*
X18856786Y-12319214D01*
X18885357Y-12333500D01*
X18999643Y-12633500D02*
X19013929Y-12619214D01*
X19042500Y-12576357D01*
X19056786Y-12547786D01*
X19071071Y-12504929D01*
X19085357Y-12433500D01*
X19085357Y-12376357D01*
X19071071Y-12304929D01*
X19056786Y-12262071D01*
X19042500Y-12233500D01*
X19013929Y-12190643D01*
X18999643Y-12176357D01*
M02*
