G04 #@! TF.FileFunction,Copper,L1,Top,Signal*
%FSLAX46Y46*%
G04 Gerber Fmt 4.6, Leading zero omitted, Abs format (unit mm)*
G04 Created by KiCad (PCBNEW 4.0.6+dfsg1-1) date Tue Feb 13 22:00:55 2018*
%MOMM*%
%LPD*%
G01*
G04 APERTURE LIST*
%ADD10C,0.100000*%
%ADD11C,0.010000*%
%ADD12R,1.500000X1.250000*%
%ADD13R,2.032000X1.727200*%
%ADD14O,2.032000X1.727200*%
%ADD15R,2.500000X2.500000*%
%ADD16C,2.500000*%
%ADD17R,0.800000X0.750000*%
%ADD18R,2.032000X2.032000*%
%ADD19O,2.032000X2.032000*%
%ADD20R,1.300000X1.500000*%
%ADD21R,1.500000X1.300000*%
%ADD22R,1.750000X0.450000*%
%ADD23R,1.000000X1.000000*%
%ADD24C,0.600000*%
%ADD25C,0.325000*%
%ADD26C,0.250000*%
%ADD27C,0.254000*%
G04 APERTURE END LIST*
D10*
D11*
G36*
X123822227Y-83545823D02*
X123933955Y-83541187D01*
X123984118Y-83580170D01*
X124180049Y-83685886D01*
X124365332Y-83638442D01*
X124495934Y-83450688D01*
X124503090Y-83428713D01*
X124621190Y-83208340D01*
X124781953Y-83142458D01*
X124966374Y-83227852D01*
X125155452Y-83461306D01*
X125203774Y-83547277D01*
X125294215Y-83660647D01*
X125425183Y-83662035D01*
X125555892Y-83610554D01*
X125769190Y-83550484D01*
X125929007Y-83613365D01*
X125974374Y-83654638D01*
X126074062Y-83813548D01*
X126042787Y-84002490D01*
X126018002Y-84057476D01*
X125962359Y-84285151D01*
X126057019Y-84441664D01*
X126280563Y-84531553D01*
X126417447Y-84590978D01*
X126467817Y-84721694D01*
X126472660Y-84842056D01*
X126451353Y-85034190D01*
X126371538Y-85104327D01*
X126327645Y-85108158D01*
X126148532Y-85164883D01*
X126059675Y-85230663D01*
X125924663Y-85289125D01*
X125708120Y-85251207D01*
X125546199Y-85190273D01*
X125315285Y-85087793D01*
X125207221Y-85012449D01*
X125186391Y-84931693D01*
X125199205Y-84873213D01*
X125177645Y-84684420D01*
X125036587Y-84534605D01*
X124825824Y-84466513D01*
X124731799Y-84471970D01*
X124557228Y-84527849D01*
X124480892Y-84651612D01*
X124465857Y-84714909D01*
X124482788Y-84964352D01*
X124623214Y-85138767D01*
X124824211Y-85195395D01*
X124948425Y-85209164D01*
X125036755Y-85277830D01*
X125128921Y-85442436D01*
X125187707Y-85570973D01*
X125274903Y-85818918D01*
X125276415Y-85967809D01*
X125252251Y-85992620D01*
X125159958Y-86104904D01*
X125122007Y-86233066D01*
X125082416Y-86416241D01*
X124994403Y-86486727D01*
X124798615Y-86491062D01*
X124793292Y-86490799D01*
X124611165Y-86455377D01*
X124529296Y-86342683D01*
X124515417Y-86291351D01*
X124414504Y-86056174D01*
X124250797Y-85976504D01*
X124042345Y-86033133D01*
X123839317Y-86093764D01*
X123680719Y-86026734D01*
X123631138Y-85981136D01*
X123526274Y-85831500D01*
X123553777Y-85676665D01*
X123602303Y-85593092D01*
X123681798Y-85402046D01*
X123624665Y-85257055D01*
X123609521Y-85241097D01*
X123438824Y-85132314D01*
X123331565Y-85108157D01*
X123226861Y-85069060D01*
X123188639Y-84922600D01*
X123186551Y-84842056D01*
X123205488Y-84648961D01*
X123289467Y-84559669D01*
X123386051Y-84529841D01*
X123594160Y-84423343D01*
X123683211Y-84255621D01*
X123633287Y-84073348D01*
X123598269Y-84032479D01*
X123516030Y-83917446D01*
X123548185Y-83804590D01*
X123662173Y-83677303D01*
X123822227Y-83545823D01*
X123822227Y-83545823D01*
G37*
X123822227Y-83545823D02*
X123933955Y-83541187D01*
X123984118Y-83580170D01*
X124180049Y-83685886D01*
X124365332Y-83638442D01*
X124495934Y-83450688D01*
X124503090Y-83428713D01*
X124621190Y-83208340D01*
X124781953Y-83142458D01*
X124966374Y-83227852D01*
X125155452Y-83461306D01*
X125203774Y-83547277D01*
X125294215Y-83660647D01*
X125425183Y-83662035D01*
X125555892Y-83610554D01*
X125769190Y-83550484D01*
X125929007Y-83613365D01*
X125974374Y-83654638D01*
X126074062Y-83813548D01*
X126042787Y-84002490D01*
X126018002Y-84057476D01*
X125962359Y-84285151D01*
X126057019Y-84441664D01*
X126280563Y-84531553D01*
X126417447Y-84590978D01*
X126467817Y-84721694D01*
X126472660Y-84842056D01*
X126451353Y-85034190D01*
X126371538Y-85104327D01*
X126327645Y-85108158D01*
X126148532Y-85164883D01*
X126059675Y-85230663D01*
X125924663Y-85289125D01*
X125708120Y-85251207D01*
X125546199Y-85190273D01*
X125315285Y-85087793D01*
X125207221Y-85012449D01*
X125186391Y-84931693D01*
X125199205Y-84873213D01*
X125177645Y-84684420D01*
X125036587Y-84534605D01*
X124825824Y-84466513D01*
X124731799Y-84471970D01*
X124557228Y-84527849D01*
X124480892Y-84651612D01*
X124465857Y-84714909D01*
X124482788Y-84964352D01*
X124623214Y-85138767D01*
X124824211Y-85195395D01*
X124948425Y-85209164D01*
X125036755Y-85277830D01*
X125128921Y-85442436D01*
X125187707Y-85570973D01*
X125274903Y-85818918D01*
X125276415Y-85967809D01*
X125252251Y-85992620D01*
X125159958Y-86104904D01*
X125122007Y-86233066D01*
X125082416Y-86416241D01*
X124994403Y-86486727D01*
X124798615Y-86491062D01*
X124793292Y-86490799D01*
X124611165Y-86455377D01*
X124529296Y-86342683D01*
X124515417Y-86291351D01*
X124414504Y-86056174D01*
X124250797Y-85976504D01*
X124042345Y-86033133D01*
X123839317Y-86093764D01*
X123680719Y-86026734D01*
X123631138Y-85981136D01*
X123526274Y-85831500D01*
X123553777Y-85676665D01*
X123602303Y-85593092D01*
X123681798Y-85402046D01*
X123624665Y-85257055D01*
X123609521Y-85241097D01*
X123438824Y-85132314D01*
X123331565Y-85108157D01*
X123226861Y-85069060D01*
X123188639Y-84922600D01*
X123186551Y-84842056D01*
X123205488Y-84648961D01*
X123289467Y-84559669D01*
X123386051Y-84529841D01*
X123594160Y-84423343D01*
X123683211Y-84255621D01*
X123633287Y-84073348D01*
X123598269Y-84032479D01*
X123516030Y-83917446D01*
X123548185Y-83804590D01*
X123662173Y-83677303D01*
X123822227Y-83545823D01*
D12*
X149000000Y-88050000D03*
X146500000Y-88050000D03*
X148750000Y-99650000D03*
X146250000Y-99650000D03*
D13*
X162950000Y-103450000D03*
D14*
X162950000Y-100910000D03*
X162950000Y-98370000D03*
X162950000Y-95830000D03*
X162950000Y-93290000D03*
X162950000Y-90750000D03*
X162950000Y-88210000D03*
X162950000Y-85670000D03*
D15*
X138300000Y-87550000D03*
D16*
X133300000Y-87550000D03*
D17*
X146875000Y-105300000D03*
X148375000Y-105300000D03*
D18*
X125525000Y-96200000D03*
D19*
X125525000Y-98740000D03*
D18*
X125525000Y-106750000D03*
D19*
X125525000Y-104210000D03*
D20*
X152050000Y-105300000D03*
X152050000Y-102600000D03*
X154300000Y-105300000D03*
X154300000Y-102600000D03*
X156550000Y-105300000D03*
X156550000Y-102600000D03*
X158900000Y-105275000D03*
X158900000Y-102575000D03*
D21*
X154500000Y-93200000D03*
X157200000Y-93200000D03*
D22*
X143900000Y-90325000D03*
X143900000Y-90975000D03*
X143900000Y-91625000D03*
X143900000Y-92275000D03*
X143900000Y-92925000D03*
X143900000Y-93575000D03*
X143900000Y-94225000D03*
X143900000Y-94875000D03*
X143900000Y-95525000D03*
X143900000Y-96175000D03*
X143900000Y-96825000D03*
X143900000Y-97475000D03*
X151100000Y-97475000D03*
X151100000Y-96825000D03*
X151100000Y-96175000D03*
X151100000Y-95525000D03*
X151100000Y-94875000D03*
X151100000Y-94225000D03*
X151100000Y-93575000D03*
X151100000Y-92925000D03*
X151100000Y-92275000D03*
X151100000Y-91625000D03*
X151100000Y-90975000D03*
X151100000Y-90325000D03*
D12*
X148700000Y-102175000D03*
X146200000Y-102175000D03*
D23*
X131600000Y-93825000D03*
X131600000Y-96325000D03*
X129375000Y-96350000D03*
X129375000Y-98850000D03*
X133975000Y-93825000D03*
X133975000Y-96325000D03*
X131600000Y-98875000D03*
X131600000Y-101375000D03*
X139225000Y-101675000D03*
X139225000Y-104175000D03*
X136550000Y-106700000D03*
X136550000Y-109200000D03*
X136575000Y-101675000D03*
X136575000Y-104175000D03*
X134275000Y-104175000D03*
X134275000Y-106675000D03*
D12*
X149000000Y-85675000D03*
X146500000Y-85675000D03*
D24*
X136875000Y-99075000D03*
X155300000Y-87625000D03*
X153250000Y-97575000D03*
D25*
X149000000Y-88050000D02*
X149000000Y-85675000D01*
X149000000Y-85675000D02*
X149005000Y-85670000D01*
X149005000Y-85670000D02*
X151380000Y-85670000D01*
X149000000Y-88050000D02*
X149000000Y-91950000D01*
X149975000Y-92925000D02*
X151100000Y-92925000D01*
X149000000Y-91950000D02*
X149975000Y-92925000D01*
X162950000Y-85670000D02*
X151380000Y-85670000D01*
X154500000Y-93200000D02*
X153500000Y-93200000D01*
X153500000Y-93200000D02*
X153225000Y-92925000D01*
X153225000Y-92925000D02*
X151100000Y-92925000D01*
X162950000Y-88210000D02*
X165240000Y-88210000D01*
X148850000Y-83325000D02*
X146500000Y-85675000D01*
X164950000Y-83325000D02*
X148850000Y-83325000D01*
X165975000Y-84350000D02*
X164950000Y-83325000D01*
X165975000Y-87475000D02*
X165975000Y-84350000D01*
X165240000Y-88210000D02*
X165975000Y-87475000D01*
X151100000Y-94225000D02*
X149375000Y-94225000D01*
X149375000Y-94225000D02*
X147475000Y-92325000D01*
X146500000Y-88050000D02*
X146500000Y-88300000D01*
X146500000Y-88300000D02*
X147475000Y-89275000D01*
X147475000Y-89275000D02*
X147475000Y-92325000D01*
X147475000Y-92325000D02*
X147475000Y-92575000D01*
X148375000Y-105300000D02*
X148375000Y-104875000D01*
X147475000Y-103975000D02*
X147475000Y-92575000D01*
X148375000Y-104875000D02*
X147475000Y-103975000D01*
X158900000Y-102575000D02*
X156575000Y-102575000D01*
X156575000Y-102575000D02*
X156550000Y-102600000D01*
X156550000Y-102600000D02*
X152050000Y-102600000D01*
X152050000Y-102600000D02*
X149350000Y-105300000D01*
X149350000Y-105300000D02*
X148375000Y-105300000D01*
X146500000Y-85675000D02*
X146500000Y-88050000D01*
X136575000Y-101675000D02*
X136575000Y-99375000D01*
X136575000Y-99375000D02*
X136875000Y-99075000D01*
X138300000Y-87550000D02*
X138175000Y-87550000D01*
X138175000Y-87550000D02*
X133975000Y-91750000D01*
X133975000Y-91750000D02*
X133975000Y-93825000D01*
X133975000Y-93825000D02*
X131600000Y-93825000D01*
X136575000Y-101675000D02*
X139225000Y-101675000D01*
X155300000Y-87625000D02*
X152600000Y-90325000D01*
X152600000Y-90325000D02*
X151100000Y-90325000D01*
X153250000Y-97575000D02*
X153150000Y-97475000D01*
X153150000Y-97475000D02*
X151100000Y-97475000D01*
X148700000Y-102175000D02*
X148700000Y-99700000D01*
X148700000Y-99700000D02*
X148750000Y-99650000D01*
X138300000Y-87550000D02*
X139500000Y-87550000D01*
X151100000Y-97475000D02*
X150925000Y-97475000D01*
X150925000Y-97475000D02*
X148750000Y-99650000D01*
X151100000Y-96825000D02*
X151100000Y-97475000D01*
X136550000Y-109200000D02*
X124075000Y-109200000D01*
X124225000Y-101375000D02*
X131600000Y-101375000D01*
X123125000Y-102475000D02*
X124225000Y-101375000D01*
X123125000Y-108250000D02*
X123125000Y-102475000D01*
X124075000Y-109200000D02*
X123125000Y-108250000D01*
X136550000Y-109200000D02*
X142975000Y-109200000D01*
X142975000Y-109200000D02*
X146875000Y-105300000D01*
X134275000Y-106675000D02*
X134275000Y-106925000D01*
X134275000Y-106925000D02*
X136550000Y-109200000D01*
X129375000Y-98850000D02*
X129375000Y-99150000D01*
X129375000Y-99150000D02*
X131600000Y-101375000D01*
X133300000Y-87550000D02*
X133300000Y-86425000D01*
X133300000Y-86425000D02*
X135125000Y-84600000D01*
X144925000Y-87875000D02*
X144925000Y-89250000D01*
X141650000Y-84600000D02*
X144925000Y-87875000D01*
X135125000Y-84600000D02*
X141650000Y-84600000D01*
X146875000Y-105300000D02*
X146875000Y-104875000D01*
X146875000Y-104875000D02*
X146200000Y-104200000D01*
X146200000Y-104200000D02*
X146200000Y-102175000D01*
X146250000Y-99650000D02*
X146250000Y-102125000D01*
X146250000Y-102125000D02*
X146200000Y-102175000D01*
X143900000Y-95525000D02*
X144775000Y-95525000D01*
X144775000Y-95525000D02*
X145500000Y-96250000D01*
X145500000Y-98900000D02*
X146250000Y-99650000D01*
X145500000Y-96250000D02*
X145500000Y-98900000D01*
X145600000Y-91575000D02*
X145600000Y-95000000D01*
X145075000Y-95525000D02*
X143900000Y-95525000D01*
X145600000Y-95000000D02*
X145075000Y-95525000D01*
X133300000Y-87550000D02*
X133300000Y-87650000D01*
X144925000Y-89250000D02*
X145000000Y-89250000D01*
X145000000Y-89250000D02*
X145600000Y-89850000D01*
X145600000Y-89850000D02*
X145600000Y-91575000D01*
X145600000Y-91575000D02*
X145600000Y-91500000D01*
X145600000Y-91500000D02*
X145475000Y-91625000D01*
X145475000Y-91625000D02*
X144550000Y-91625000D01*
X144550000Y-91625000D02*
X143900000Y-92275000D01*
X143900000Y-95525000D02*
X144725000Y-95525000D01*
X143900000Y-95525000D02*
X143900000Y-96175000D01*
D26*
X151100000Y-96175000D02*
X155675000Y-96175000D01*
X155675000Y-96175000D02*
X162950000Y-103450000D01*
X158900000Y-105275000D02*
X164025000Y-105275000D01*
X164550000Y-102510000D02*
X162950000Y-100910000D01*
X164550000Y-104750000D02*
X164550000Y-102510000D01*
X164025000Y-105275000D02*
X164550000Y-104750000D01*
X163810000Y-100910000D02*
X162950000Y-100910000D01*
X151100000Y-95525000D02*
X157565000Y-95525000D01*
X157565000Y-95525000D02*
X162950000Y-100910000D01*
X156550000Y-105300000D02*
X156550000Y-106175000D01*
X157050000Y-106675000D02*
X163825000Y-106675000D01*
X156550000Y-106175000D02*
X157050000Y-106675000D01*
X163825000Y-106675000D02*
X165150000Y-105350000D01*
X165150000Y-105350000D02*
X165150000Y-100570000D01*
X165150000Y-100570000D02*
X162950000Y-98370000D01*
X151100000Y-94875000D02*
X159455000Y-94875000D01*
X159455000Y-94875000D02*
X162950000Y-98370000D01*
X154300000Y-105300000D02*
X154300000Y-106400000D01*
X155250000Y-107350000D02*
X164000000Y-107350000D01*
X154300000Y-106400000D02*
X155250000Y-107350000D01*
X164000000Y-107350000D02*
X165750000Y-105600000D01*
X165750000Y-105600000D02*
X165750000Y-98630000D01*
X165750000Y-98630000D02*
X162950000Y-95830000D01*
X151100000Y-92275000D02*
X153175000Y-92275000D01*
X158400000Y-91950000D02*
X162280000Y-95830000D01*
X153500000Y-91950000D02*
X158400000Y-91950000D01*
X153175000Y-92275000D02*
X153500000Y-91950000D01*
X162280000Y-95830000D02*
X162950000Y-95830000D01*
X152050000Y-105300000D02*
X152050000Y-107100000D01*
X153175000Y-108225000D02*
X163975000Y-108225000D01*
X152050000Y-107100000D02*
X153175000Y-108225000D01*
X163975000Y-108225000D02*
X166300000Y-105900000D01*
X166300000Y-105900000D02*
X166300000Y-96640000D01*
X166300000Y-96640000D02*
X162950000Y-93290000D01*
X151100000Y-91625000D02*
X153075000Y-91625000D01*
X161060000Y-91400000D02*
X162950000Y-93290000D01*
X153300000Y-91400000D02*
X161060000Y-91400000D01*
X153075000Y-91625000D02*
X153300000Y-91400000D01*
X151100000Y-90975000D02*
X153025000Y-90975000D01*
X153250000Y-90750000D02*
X162950000Y-90750000D01*
X153025000Y-90975000D02*
X153250000Y-90750000D01*
X157200000Y-93200000D02*
X155950000Y-93200000D01*
X153000000Y-93650000D02*
X151175000Y-93650000D01*
X153700000Y-94350000D02*
X153000000Y-93650000D01*
X155300000Y-94350000D02*
X153700000Y-94350000D01*
X155750000Y-93900000D02*
X155300000Y-94350000D01*
X155750000Y-93400000D02*
X155750000Y-93900000D01*
X155950000Y-93200000D02*
X155750000Y-93400000D01*
X151175000Y-93650000D02*
X151100000Y-93575000D01*
X129375000Y-96350000D02*
X125675000Y-96350000D01*
X125675000Y-96350000D02*
X125525000Y-96200000D01*
X129275000Y-96450000D02*
X129375000Y-96350000D01*
X131600000Y-96325000D02*
X132150000Y-96325000D01*
X138750000Y-90975000D02*
X143900000Y-90975000D01*
X134675000Y-95050000D02*
X138750000Y-90975000D01*
X133425000Y-95050000D02*
X134675000Y-95050000D01*
X132150000Y-96325000D02*
X133425000Y-95050000D01*
X129375000Y-96350000D02*
X131575000Y-96350000D01*
X131575000Y-96350000D02*
X131600000Y-96325000D01*
X143900000Y-90975000D02*
X143900000Y-90325000D01*
X125525000Y-98740000D02*
X127010000Y-98740000D01*
X130475000Y-97750000D02*
X131600000Y-98875000D01*
X128000000Y-97750000D02*
X130475000Y-97750000D01*
X127010000Y-98740000D02*
X128000000Y-97750000D01*
X133975000Y-96325000D02*
X135775000Y-96325000D01*
X139100000Y-93000000D02*
X143825000Y-93000000D01*
X135775000Y-96325000D02*
X139100000Y-93000000D01*
X143825000Y-93000000D02*
X143900000Y-92925000D01*
X133975000Y-96325000D02*
X133975000Y-96500000D01*
X133975000Y-96500000D02*
X131600000Y-98875000D01*
X143250000Y-93575000D02*
X143900000Y-92925000D01*
X125525000Y-106750000D02*
X132050000Y-106750000D01*
X135250000Y-105400000D02*
X136550000Y-106700000D01*
X133400000Y-105400000D02*
X135250000Y-105400000D01*
X132050000Y-106750000D02*
X133400000Y-105400000D01*
X136550000Y-106700000D02*
X136275000Y-106700000D01*
X139225000Y-104175000D02*
X139075000Y-104175000D01*
X139075000Y-104175000D02*
X136550000Y-106700000D01*
X139225000Y-104175000D02*
X141425000Y-104175000D01*
X143900000Y-101700000D02*
X143900000Y-97475000D01*
X141425000Y-104175000D02*
X143900000Y-101700000D01*
X143900000Y-97475000D02*
X143900000Y-96825000D01*
X125525000Y-104210000D02*
X134240000Y-104210000D01*
X134240000Y-104210000D02*
X134275000Y-104175000D01*
X133990000Y-104460000D02*
X134275000Y-104175000D01*
X136575000Y-104175000D02*
X136575000Y-103650000D01*
X141950000Y-94875000D02*
X143900000Y-94875000D01*
X141225000Y-95600000D02*
X141950000Y-94875000D01*
X141225000Y-101875000D02*
X141225000Y-95600000D01*
X140300000Y-102800000D02*
X141225000Y-101875000D01*
X137425000Y-102800000D02*
X140300000Y-102800000D01*
X136575000Y-103650000D02*
X137425000Y-102800000D01*
X134275000Y-104175000D02*
X137025000Y-104175000D01*
X137025000Y-104175000D02*
X136575000Y-104175000D01*
X125525000Y-104210000D02*
X126415000Y-104210000D01*
X143250000Y-94875000D02*
X143900000Y-94225000D01*
D27*
G36*
X164223000Y-84780998D02*
X163914737Y-84780998D01*
X163636621Y-84570216D01*
X163458000Y-84595436D01*
X163458000Y-85238200D01*
X163859000Y-85238200D01*
X163859000Y-86101800D01*
X163458000Y-86101800D01*
X163458000Y-86398000D01*
X162442000Y-86398000D01*
X162442000Y-86101800D01*
X161732445Y-86101800D01*
X161712225Y-86279089D01*
X161812589Y-86398000D01*
X149975000Y-86398000D01*
X149925590Y-86408006D01*
X149883965Y-86436447D01*
X149856685Y-86478841D01*
X149848000Y-86525000D01*
X149848000Y-89751921D01*
X149747855Y-89898488D01*
X149707048Y-90100000D01*
X149707048Y-90550000D01*
X149726555Y-90653671D01*
X149707048Y-90750000D01*
X149707048Y-91200000D01*
X149726555Y-91303671D01*
X149707048Y-91400000D01*
X149707048Y-91850000D01*
X149726555Y-91953671D01*
X149707048Y-92050000D01*
X149707048Y-92500000D01*
X149742470Y-92688253D01*
X149848000Y-92852251D01*
X149848000Y-93001921D01*
X149747855Y-93148488D01*
X149707048Y-93350000D01*
X149707048Y-93554500D01*
X149652730Y-93554500D01*
X148152000Y-92053770D01*
X148152000Y-85177606D01*
X148268695Y-85060911D01*
X161712225Y-85060911D01*
X161732445Y-85238200D01*
X162442000Y-85238200D01*
X162442000Y-84595436D01*
X162263379Y-84570216D01*
X161883175Y-84858370D01*
X161712225Y-85060911D01*
X148268695Y-85060911D01*
X148977606Y-84352000D01*
X164223000Y-84352000D01*
X164223000Y-84780998D01*
X164223000Y-84780998D01*
G37*
X164223000Y-84780998D02*
X163914737Y-84780998D01*
X163636621Y-84570216D01*
X163458000Y-84595436D01*
X163458000Y-85238200D01*
X163859000Y-85238200D01*
X163859000Y-86101800D01*
X163458000Y-86101800D01*
X163458000Y-86398000D01*
X162442000Y-86398000D01*
X162442000Y-86101800D01*
X161732445Y-86101800D01*
X161712225Y-86279089D01*
X161812589Y-86398000D01*
X149975000Y-86398000D01*
X149925590Y-86408006D01*
X149883965Y-86436447D01*
X149856685Y-86478841D01*
X149848000Y-86525000D01*
X149848000Y-89751921D01*
X149747855Y-89898488D01*
X149707048Y-90100000D01*
X149707048Y-90550000D01*
X149726555Y-90653671D01*
X149707048Y-90750000D01*
X149707048Y-91200000D01*
X149726555Y-91303671D01*
X149707048Y-91400000D01*
X149707048Y-91850000D01*
X149726555Y-91953671D01*
X149707048Y-92050000D01*
X149707048Y-92500000D01*
X149742470Y-92688253D01*
X149848000Y-92852251D01*
X149848000Y-93001921D01*
X149747855Y-93148488D01*
X149707048Y-93350000D01*
X149707048Y-93554500D01*
X149652730Y-93554500D01*
X148152000Y-92053770D01*
X148152000Y-85177606D01*
X148268695Y-85060911D01*
X161712225Y-85060911D01*
X161732445Y-85238200D01*
X162442000Y-85238200D01*
X162442000Y-84595436D01*
X162263379Y-84570216D01*
X161883175Y-84858370D01*
X161712225Y-85060911D01*
X148268695Y-85060911D01*
X148977606Y-84352000D01*
X164223000Y-84352000D01*
X164223000Y-84780998D01*
G36*
X138073000Y-98102606D02*
X138073000Y-98872394D01*
X137410197Y-99535197D01*
X137382334Y-99577211D01*
X137373000Y-99625000D01*
X137373000Y-100300000D01*
X137383006Y-100349410D01*
X137411447Y-100391035D01*
X137453841Y-100418315D01*
X137500000Y-100427000D01*
X140098000Y-100427000D01*
X140098000Y-102106802D01*
X140037802Y-102167000D01*
X137425005Y-102167000D01*
X137425000Y-102166999D01*
X137182762Y-102215183D01*
X137182760Y-102215184D01*
X137182761Y-102215184D01*
X136977401Y-102352401D01*
X136977399Y-102352404D01*
X136831803Y-102498000D01*
X135802000Y-102498000D01*
X135802000Y-98527606D01*
X136702606Y-97627000D01*
X137597394Y-97627000D01*
X138073000Y-98102606D01*
X138073000Y-98102606D01*
G37*
X138073000Y-98102606D02*
X138073000Y-98872394D01*
X137410197Y-99535197D01*
X137382334Y-99577211D01*
X137373000Y-99625000D01*
X137373000Y-100300000D01*
X137383006Y-100349410D01*
X137411447Y-100391035D01*
X137453841Y-100418315D01*
X137500000Y-100427000D01*
X140098000Y-100427000D01*
X140098000Y-102106802D01*
X140037802Y-102167000D01*
X137425005Y-102167000D01*
X137425000Y-102166999D01*
X137182762Y-102215183D01*
X137182760Y-102215184D01*
X137182761Y-102215184D01*
X136977401Y-102352401D01*
X136977399Y-102352404D01*
X136831803Y-102498000D01*
X135802000Y-102498000D01*
X135802000Y-98527606D01*
X136702606Y-97627000D01*
X137597394Y-97627000D01*
X138073000Y-98102606D01*
G36*
X140198000Y-89348000D02*
X137275000Y-89348000D01*
X137225590Y-89358006D01*
X137185197Y-89385197D01*
X134610197Y-91960197D01*
X134582334Y-92002211D01*
X134573000Y-92050000D01*
X134573000Y-94256802D01*
X134412802Y-94417000D01*
X133425000Y-94417000D01*
X133394836Y-94423000D01*
X130927000Y-94423000D01*
X130927000Y-92877000D01*
X133325000Y-92877000D01*
X133374410Y-92866994D01*
X133416035Y-92838553D01*
X133443315Y-92796159D01*
X133452000Y-92750000D01*
X133452000Y-91352606D01*
X136439803Y-88364803D01*
X136467666Y-88322789D01*
X136477000Y-88275000D01*
X136477000Y-88270250D01*
X136669000Y-88270250D01*
X136669000Y-88875785D01*
X136727004Y-89015819D01*
X136834180Y-89122996D01*
X136974214Y-89181000D01*
X137579750Y-89181000D01*
X137675000Y-89085750D01*
X137675000Y-88175000D01*
X138925000Y-88175000D01*
X138925000Y-89085750D01*
X139020250Y-89181000D01*
X139625786Y-89181000D01*
X139765820Y-89122996D01*
X139872996Y-89015819D01*
X139931000Y-88875785D01*
X139931000Y-88270250D01*
X139835750Y-88175000D01*
X138925000Y-88175000D01*
X137675000Y-88175000D01*
X136764250Y-88175000D01*
X136669000Y-88270250D01*
X136477000Y-88270250D01*
X136477000Y-86224215D01*
X136669000Y-86224215D01*
X136669000Y-86829750D01*
X136764250Y-86925000D01*
X137675000Y-86925000D01*
X137675000Y-86014250D01*
X138925000Y-86014250D01*
X138925000Y-86925000D01*
X139835750Y-86925000D01*
X139931000Y-86829750D01*
X139931000Y-86224215D01*
X139872996Y-86084181D01*
X139765820Y-85977004D01*
X139625786Y-85919000D01*
X139020250Y-85919000D01*
X138925000Y-86014250D01*
X137675000Y-86014250D01*
X137579750Y-85919000D01*
X136974214Y-85919000D01*
X136834180Y-85977004D01*
X136727004Y-86084181D01*
X136669000Y-86224215D01*
X136477000Y-86224215D01*
X136477000Y-85752000D01*
X140198000Y-85752000D01*
X140198000Y-89348000D01*
X140198000Y-89348000D01*
G37*
X140198000Y-89348000D02*
X137275000Y-89348000D01*
X137225590Y-89358006D01*
X137185197Y-89385197D01*
X134610197Y-91960197D01*
X134582334Y-92002211D01*
X134573000Y-92050000D01*
X134573000Y-94256802D01*
X134412802Y-94417000D01*
X133425000Y-94417000D01*
X133394836Y-94423000D01*
X130927000Y-94423000D01*
X130927000Y-92877000D01*
X133325000Y-92877000D01*
X133374410Y-92866994D01*
X133416035Y-92838553D01*
X133443315Y-92796159D01*
X133452000Y-92750000D01*
X133452000Y-91352606D01*
X136439803Y-88364803D01*
X136467666Y-88322789D01*
X136477000Y-88275000D01*
X136477000Y-88270250D01*
X136669000Y-88270250D01*
X136669000Y-88875785D01*
X136727004Y-89015819D01*
X136834180Y-89122996D01*
X136974214Y-89181000D01*
X137579750Y-89181000D01*
X137675000Y-89085750D01*
X137675000Y-88175000D01*
X138925000Y-88175000D01*
X138925000Y-89085750D01*
X139020250Y-89181000D01*
X139625786Y-89181000D01*
X139765820Y-89122996D01*
X139872996Y-89015819D01*
X139931000Y-88875785D01*
X139931000Y-88270250D01*
X139835750Y-88175000D01*
X138925000Y-88175000D01*
X137675000Y-88175000D01*
X136764250Y-88175000D01*
X136669000Y-88270250D01*
X136477000Y-88270250D01*
X136477000Y-86224215D01*
X136669000Y-86224215D01*
X136669000Y-86829750D01*
X136764250Y-86925000D01*
X137675000Y-86925000D01*
X137675000Y-86014250D01*
X138925000Y-86014250D01*
X138925000Y-86925000D01*
X139835750Y-86925000D01*
X139931000Y-86829750D01*
X139931000Y-86224215D01*
X139872996Y-86084181D01*
X139765820Y-85977004D01*
X139625786Y-85919000D01*
X139020250Y-85919000D01*
X138925000Y-86014250D01*
X137675000Y-86014250D01*
X137579750Y-85919000D01*
X136974214Y-85919000D01*
X136834180Y-85977004D01*
X136727004Y-86084181D01*
X136669000Y-86224215D01*
X136477000Y-86224215D01*
X136477000Y-85752000D01*
X140198000Y-85752000D01*
X140198000Y-89348000D01*
G36*
X144254500Y-89250000D02*
X144305539Y-89506589D01*
X144450885Y-89724115D01*
X144668411Y-89869461D01*
X144671931Y-89870161D01*
X144929500Y-90127730D01*
X144929500Y-90913335D01*
X144775000Y-90882048D01*
X143025000Y-90882048D01*
X142836747Y-90917470D01*
X142663847Y-91028728D01*
X142547855Y-91198488D01*
X142527703Y-91298000D01*
X142450000Y-91298000D01*
X142400590Y-91308006D01*
X142360197Y-91335197D01*
X141897394Y-91798000D01*
X138875000Y-91798000D01*
X138825590Y-91808006D01*
X138785197Y-91835197D01*
X135247394Y-95373000D01*
X134713313Y-95373000D01*
X134676512Y-95347855D01*
X134475000Y-95307048D01*
X133475000Y-95307048D01*
X133286747Y-95342470D01*
X133113847Y-95453728D01*
X132997855Y-95623488D01*
X132957048Y-95825000D01*
X132957048Y-95838346D01*
X132210197Y-96585197D01*
X132182334Y-96627211D01*
X132173000Y-96675000D01*
X132173000Y-97273000D01*
X130878597Y-97273000D01*
X130717239Y-97165184D01*
X130475000Y-97116999D01*
X130474995Y-97117000D01*
X128000000Y-97117000D01*
X127757761Y-97165184D01*
X127596403Y-97273000D01*
X126922000Y-97273000D01*
X126922000Y-96803250D01*
X126826750Y-96708000D01*
X126033000Y-96708000D01*
X126033000Y-97109000D01*
X125017000Y-97109000D01*
X125017000Y-96708000D01*
X124616000Y-96708000D01*
X124616000Y-95692000D01*
X125017000Y-95692000D01*
X125017000Y-94898250D01*
X126033000Y-94898250D01*
X126033000Y-95692000D01*
X126826750Y-95692000D01*
X126922000Y-95596750D01*
X126922000Y-95108215D01*
X126863996Y-94968181D01*
X126756820Y-94861004D01*
X126616786Y-94803000D01*
X126128250Y-94803000D01*
X126033000Y-94898250D01*
X125017000Y-94898250D01*
X124921750Y-94803000D01*
X124452000Y-94803000D01*
X124452000Y-94602000D01*
X130301785Y-94602000D01*
X130326742Y-94734636D01*
X130435862Y-94904214D01*
X130602360Y-95017977D01*
X130800000Y-95058000D01*
X134576546Y-95058000D01*
X134700000Y-95083000D01*
X134725000Y-95083000D01*
X134903081Y-95050764D01*
X135074149Y-94943997D01*
X135190202Y-94779087D01*
X135232952Y-94582018D01*
X135208000Y-94449412D01*
X135208000Y-92260420D01*
X137485420Y-89983000D01*
X140325000Y-89983000D01*
X140509636Y-89948258D01*
X140679214Y-89839138D01*
X140792977Y-89672640D01*
X140833000Y-89475000D01*
X140833000Y-89077000D01*
X144254500Y-89077000D01*
X144254500Y-89250000D01*
X144254500Y-89250000D01*
G37*
X144254500Y-89250000D02*
X144305539Y-89506589D01*
X144450885Y-89724115D01*
X144668411Y-89869461D01*
X144671931Y-89870161D01*
X144929500Y-90127730D01*
X144929500Y-90913335D01*
X144775000Y-90882048D01*
X143025000Y-90882048D01*
X142836747Y-90917470D01*
X142663847Y-91028728D01*
X142547855Y-91198488D01*
X142527703Y-91298000D01*
X142450000Y-91298000D01*
X142400590Y-91308006D01*
X142360197Y-91335197D01*
X141897394Y-91798000D01*
X138875000Y-91798000D01*
X138825590Y-91808006D01*
X138785197Y-91835197D01*
X135247394Y-95373000D01*
X134713313Y-95373000D01*
X134676512Y-95347855D01*
X134475000Y-95307048D01*
X133475000Y-95307048D01*
X133286747Y-95342470D01*
X133113847Y-95453728D01*
X132997855Y-95623488D01*
X132957048Y-95825000D01*
X132957048Y-95838346D01*
X132210197Y-96585197D01*
X132182334Y-96627211D01*
X132173000Y-96675000D01*
X132173000Y-97273000D01*
X130878597Y-97273000D01*
X130717239Y-97165184D01*
X130475000Y-97116999D01*
X130474995Y-97117000D01*
X128000000Y-97117000D01*
X127757761Y-97165184D01*
X127596403Y-97273000D01*
X126922000Y-97273000D01*
X126922000Y-96803250D01*
X126826750Y-96708000D01*
X126033000Y-96708000D01*
X126033000Y-97109000D01*
X125017000Y-97109000D01*
X125017000Y-96708000D01*
X124616000Y-96708000D01*
X124616000Y-95692000D01*
X125017000Y-95692000D01*
X125017000Y-94898250D01*
X126033000Y-94898250D01*
X126033000Y-95692000D01*
X126826750Y-95692000D01*
X126922000Y-95596750D01*
X126922000Y-95108215D01*
X126863996Y-94968181D01*
X126756820Y-94861004D01*
X126616786Y-94803000D01*
X126128250Y-94803000D01*
X126033000Y-94898250D01*
X125017000Y-94898250D01*
X124921750Y-94803000D01*
X124452000Y-94803000D01*
X124452000Y-94602000D01*
X130301785Y-94602000D01*
X130326742Y-94734636D01*
X130435862Y-94904214D01*
X130602360Y-95017977D01*
X130800000Y-95058000D01*
X134576546Y-95058000D01*
X134700000Y-95083000D01*
X134725000Y-95083000D01*
X134903081Y-95050764D01*
X135074149Y-94943997D01*
X135190202Y-94779087D01*
X135232952Y-94582018D01*
X135208000Y-94449412D01*
X135208000Y-92260420D01*
X137485420Y-89983000D01*
X140325000Y-89983000D01*
X140509636Y-89948258D01*
X140679214Y-89839138D01*
X140792977Y-89672640D01*
X140833000Y-89475000D01*
X140833000Y-89077000D01*
X144254500Y-89077000D01*
X144254500Y-89250000D01*
G36*
X135201742Y-102809636D02*
X135310862Y-102979214D01*
X135477360Y-103092977D01*
X135675000Y-103133000D01*
X137889010Y-103133000D01*
X137883965Y-103136447D01*
X137856685Y-103178841D01*
X137848000Y-103225000D01*
X137848000Y-104506803D01*
X137606803Y-104748000D01*
X133350000Y-104748000D01*
X133300590Y-104758006D01*
X133260197Y-104785197D01*
X133248199Y-104797195D01*
X133157761Y-104815184D01*
X132952401Y-104952401D01*
X132952399Y-104952404D01*
X132581803Y-105323000D01*
X126839318Y-105323000D01*
X126742512Y-105256855D01*
X126541000Y-105216048D01*
X126455662Y-105216048D01*
X126638125Y-105054203D01*
X126730872Y-104915324D01*
X126723536Y-104718000D01*
X126033000Y-104718000D01*
X126033000Y-105119000D01*
X125017000Y-105119000D01*
X125017000Y-104718000D01*
X124616000Y-104718000D01*
X124616000Y-103702000D01*
X125017000Y-103702000D01*
X126033000Y-103702000D01*
X126723536Y-103702000D01*
X126730872Y-103504676D01*
X126638125Y-103365797D01*
X126230331Y-103004084D01*
X126033000Y-103003843D01*
X126033000Y-103702000D01*
X125017000Y-103702000D01*
X125017000Y-103003843D01*
X124819669Y-103004084D01*
X124462381Y-103320998D01*
X124452000Y-103320998D01*
X124452000Y-102827606D01*
X124577606Y-102702000D01*
X135181489Y-102702000D01*
X135201742Y-102809636D01*
X135201742Y-102809636D01*
G37*
X135201742Y-102809636D02*
X135310862Y-102979214D01*
X135477360Y-103092977D01*
X135675000Y-103133000D01*
X137889010Y-103133000D01*
X137883965Y-103136447D01*
X137856685Y-103178841D01*
X137848000Y-103225000D01*
X137848000Y-104506803D01*
X137606803Y-104748000D01*
X133350000Y-104748000D01*
X133300590Y-104758006D01*
X133260197Y-104785197D01*
X133248199Y-104797195D01*
X133157761Y-104815184D01*
X132952401Y-104952401D01*
X132952399Y-104952404D01*
X132581803Y-105323000D01*
X126839318Y-105323000D01*
X126742512Y-105256855D01*
X126541000Y-105216048D01*
X126455662Y-105216048D01*
X126638125Y-105054203D01*
X126730872Y-104915324D01*
X126723536Y-104718000D01*
X126033000Y-104718000D01*
X126033000Y-105119000D01*
X125017000Y-105119000D01*
X125017000Y-104718000D01*
X124616000Y-104718000D01*
X124616000Y-103702000D01*
X125017000Y-103702000D01*
X126033000Y-103702000D01*
X126723536Y-103702000D01*
X126730872Y-103504676D01*
X126638125Y-103365797D01*
X126230331Y-103004084D01*
X126033000Y-103003843D01*
X126033000Y-103702000D01*
X125017000Y-103702000D01*
X125017000Y-103003843D01*
X124819669Y-103004084D01*
X124462381Y-103320998D01*
X124452000Y-103320998D01*
X124452000Y-102827606D01*
X124577606Y-102702000D01*
X135181489Y-102702000D01*
X135201742Y-102809636D01*
G36*
X142653728Y-94161153D02*
X142823488Y-94277145D01*
X143025000Y-94317952D01*
X144775000Y-94317952D01*
X144848000Y-94304216D01*
X144848000Y-94796830D01*
X144775000Y-94782048D01*
X143025000Y-94782048D01*
X142836747Y-94817470D01*
X142663847Y-94928728D01*
X142547855Y-95098488D01*
X142529052Y-95191342D01*
X141910197Y-95810197D01*
X141882334Y-95852211D01*
X141873000Y-95900000D01*
X141873000Y-102722394D01*
X141497394Y-103098000D01*
X140410037Y-103098000D01*
X140579214Y-102989138D01*
X140692977Y-102822640D01*
X140733000Y-102625000D01*
X140733000Y-100300000D01*
X140698258Y-100115364D01*
X140589138Y-99945786D01*
X140422640Y-99832023D01*
X140277000Y-99802530D01*
X140277000Y-95327606D01*
X141577606Y-94027000D01*
X142567403Y-94027000D01*
X142653728Y-94161153D01*
X142653728Y-94161153D01*
G37*
X142653728Y-94161153D02*
X142823488Y-94277145D01*
X143025000Y-94317952D01*
X144775000Y-94317952D01*
X144848000Y-94304216D01*
X144848000Y-94796830D01*
X144775000Y-94782048D01*
X143025000Y-94782048D01*
X142836747Y-94817470D01*
X142663847Y-94928728D01*
X142547855Y-95098488D01*
X142529052Y-95191342D01*
X141910197Y-95810197D01*
X141882334Y-95852211D01*
X141873000Y-95900000D01*
X141873000Y-102722394D01*
X141497394Y-103098000D01*
X140410037Y-103098000D01*
X140579214Y-102989138D01*
X140692977Y-102822640D01*
X140733000Y-102625000D01*
X140733000Y-100300000D01*
X140698258Y-100115364D01*
X140589138Y-99945786D01*
X140422640Y-99832023D01*
X140277000Y-99802530D01*
X140277000Y-95327606D01*
X141577606Y-94027000D01*
X142567403Y-94027000D01*
X142653728Y-94161153D01*
G36*
X126033000Y-98232000D02*
X126723536Y-98232000D01*
X126730872Y-98034676D01*
X126646274Y-97908000D01*
X128623762Y-97908000D01*
X128513847Y-97978728D01*
X128397855Y-98148488D01*
X128357048Y-98350000D01*
X128357048Y-98363346D01*
X126647394Y-100073000D01*
X126414002Y-100073000D01*
X126414002Y-99783000D01*
X126638125Y-99584203D01*
X126730872Y-99445324D01*
X126723536Y-99248000D01*
X126033000Y-99248000D01*
X126033000Y-99649000D01*
X125017000Y-99649000D01*
X125017000Y-99248000D01*
X124616000Y-99248000D01*
X124616000Y-98232000D01*
X125017000Y-98232000D01*
X125017000Y-97908000D01*
X126033000Y-97908000D01*
X126033000Y-98232000D01*
X126033000Y-98232000D01*
G37*
X126033000Y-98232000D02*
X126723536Y-98232000D01*
X126730872Y-98034676D01*
X126646274Y-97908000D01*
X128623762Y-97908000D01*
X128513847Y-97978728D01*
X128397855Y-98148488D01*
X128357048Y-98350000D01*
X128357048Y-98363346D01*
X126647394Y-100073000D01*
X126414002Y-100073000D01*
X126414002Y-99783000D01*
X126638125Y-99584203D01*
X126730872Y-99445324D01*
X126723536Y-99248000D01*
X126033000Y-99248000D01*
X126033000Y-99649000D01*
X125017000Y-99649000D01*
X125017000Y-99248000D01*
X124616000Y-99248000D01*
X124616000Y-98232000D01*
X125017000Y-98232000D01*
X125017000Y-97908000D01*
X126033000Y-97908000D01*
X126033000Y-98232000D01*
G36*
X142385197Y-92564803D02*
X142427211Y-92592666D01*
X142475000Y-92602000D01*
X142526240Y-92602000D01*
X142542470Y-92688253D01*
X142653728Y-92861153D01*
X142823488Y-92977145D01*
X143025000Y-93017952D01*
X144775000Y-93017952D01*
X144823000Y-93008920D01*
X144823000Y-93392000D01*
X141525000Y-93392000D01*
X141333843Y-93429338D01*
X141165790Y-93540790D01*
X140933580Y-93773000D01*
X139400000Y-93773000D01*
X139350590Y-93783006D01*
X139310197Y-93810197D01*
X135272394Y-97848000D01*
X134325000Y-97848000D01*
X134275590Y-97858006D01*
X134235197Y-97885197D01*
X132422394Y-99698000D01*
X130871230Y-99698000D01*
X130392952Y-99219722D01*
X130392952Y-98350000D01*
X130357530Y-98161747D01*
X130302000Y-98075451D01*
X130302000Y-98075000D01*
X130291994Y-98025590D01*
X130263553Y-97983965D01*
X130221159Y-97956685D01*
X130190857Y-97950984D01*
X130127948Y-97908000D01*
X132300000Y-97908000D01*
X132484636Y-97873258D01*
X132654214Y-97764138D01*
X132767977Y-97597640D01*
X132808000Y-97400000D01*
X132808000Y-96885420D01*
X133685420Y-96008000D01*
X135300000Y-96008000D01*
X135491157Y-95970662D01*
X135659210Y-95859210D01*
X139085420Y-92433000D01*
X141950000Y-92433000D01*
X142141157Y-92395662D01*
X142186190Y-92365796D01*
X142385197Y-92564803D01*
X142385197Y-92564803D01*
G37*
X142385197Y-92564803D02*
X142427211Y-92592666D01*
X142475000Y-92602000D01*
X142526240Y-92602000D01*
X142542470Y-92688253D01*
X142653728Y-92861153D01*
X142823488Y-92977145D01*
X143025000Y-93017952D01*
X144775000Y-93017952D01*
X144823000Y-93008920D01*
X144823000Y-93392000D01*
X141525000Y-93392000D01*
X141333843Y-93429338D01*
X141165790Y-93540790D01*
X140933580Y-93773000D01*
X139400000Y-93773000D01*
X139350590Y-93783006D01*
X139310197Y-93810197D01*
X135272394Y-97848000D01*
X134325000Y-97848000D01*
X134275590Y-97858006D01*
X134235197Y-97885197D01*
X132422394Y-99698000D01*
X130871230Y-99698000D01*
X130392952Y-99219722D01*
X130392952Y-98350000D01*
X130357530Y-98161747D01*
X130302000Y-98075451D01*
X130302000Y-98075000D01*
X130291994Y-98025590D01*
X130263553Y-97983965D01*
X130221159Y-97956685D01*
X130190857Y-97950984D01*
X130127948Y-97908000D01*
X132300000Y-97908000D01*
X132484636Y-97873258D01*
X132654214Y-97764138D01*
X132767977Y-97597640D01*
X132808000Y-97400000D01*
X132808000Y-96885420D01*
X133685420Y-96008000D01*
X135300000Y-96008000D01*
X135491157Y-95970662D01*
X135659210Y-95859210D01*
X139085420Y-92433000D01*
X141950000Y-92433000D01*
X142141157Y-92395662D01*
X142186190Y-92365796D01*
X142385197Y-92564803D01*
G36*
X142823488Y-96877145D02*
X143025000Y-96917952D01*
X144775000Y-96917952D01*
X144829500Y-96907697D01*
X144829500Y-98090894D01*
X144610197Y-98310197D01*
X144582334Y-98352211D01*
X144573000Y-98400000D01*
X144573000Y-101922394D01*
X141272394Y-105223000D01*
X138850000Y-105223000D01*
X138800590Y-105233006D01*
X138760197Y-105260197D01*
X137160197Y-106860197D01*
X137132334Y-106902211D01*
X137123000Y-106950000D01*
X137123000Y-107348000D01*
X135727606Y-107348000D01*
X135577000Y-107197394D01*
X135577000Y-106325000D01*
X135566994Y-106275590D01*
X135539803Y-106235197D01*
X135196483Y-105891877D01*
X135146272Y-105813847D01*
X134976512Y-105697855D01*
X134775000Y-105657048D01*
X133775000Y-105657048D01*
X133586747Y-105692470D01*
X133455446Y-105776960D01*
X133425590Y-105783006D01*
X133383965Y-105811447D01*
X133356685Y-105853841D01*
X133348000Y-105900000D01*
X133348000Y-105900098D01*
X133297855Y-105973488D01*
X133257048Y-106175000D01*
X133257048Y-106963346D01*
X132347394Y-107873000D01*
X126909070Y-107873000D01*
X126922000Y-107841785D01*
X126922000Y-107353250D01*
X126826750Y-107258000D01*
X126033000Y-107258000D01*
X126033000Y-107659000D01*
X125017000Y-107659000D01*
X125017000Y-107258000D01*
X124616000Y-107258000D01*
X124616000Y-106242000D01*
X125017000Y-106242000D01*
X125017000Y-105958000D01*
X126033000Y-105958000D01*
X126033000Y-106242000D01*
X126826750Y-106242000D01*
X126922000Y-106146750D01*
X126922000Y-105958000D01*
X132775000Y-105958000D01*
X132966157Y-105920662D01*
X133134210Y-105809210D01*
X133560420Y-105383000D01*
X137700000Y-105383000D01*
X137891157Y-105345662D01*
X138059210Y-105234210D01*
X138334210Y-104959210D01*
X138442977Y-104797640D01*
X138483000Y-104600000D01*
X138483000Y-103733000D01*
X141550000Y-103733000D01*
X141741157Y-103695662D01*
X141909210Y-103584210D01*
X142359210Y-103134210D01*
X142467977Y-102972640D01*
X142508000Y-102775000D01*
X142508000Y-102546606D01*
X142764803Y-102289803D01*
X142792666Y-102247789D01*
X142802000Y-102200000D01*
X142802000Y-96862463D01*
X142823488Y-96877145D01*
X142823488Y-96877145D01*
G37*
X142823488Y-96877145D02*
X143025000Y-96917952D01*
X144775000Y-96917952D01*
X144829500Y-96907697D01*
X144829500Y-98090894D01*
X144610197Y-98310197D01*
X144582334Y-98352211D01*
X144573000Y-98400000D01*
X144573000Y-101922394D01*
X141272394Y-105223000D01*
X138850000Y-105223000D01*
X138800590Y-105233006D01*
X138760197Y-105260197D01*
X137160197Y-106860197D01*
X137132334Y-106902211D01*
X137123000Y-106950000D01*
X137123000Y-107348000D01*
X135727606Y-107348000D01*
X135577000Y-107197394D01*
X135577000Y-106325000D01*
X135566994Y-106275590D01*
X135539803Y-106235197D01*
X135196483Y-105891877D01*
X135146272Y-105813847D01*
X134976512Y-105697855D01*
X134775000Y-105657048D01*
X133775000Y-105657048D01*
X133586747Y-105692470D01*
X133455446Y-105776960D01*
X133425590Y-105783006D01*
X133383965Y-105811447D01*
X133356685Y-105853841D01*
X133348000Y-105900000D01*
X133348000Y-105900098D01*
X133297855Y-105973488D01*
X133257048Y-106175000D01*
X133257048Y-106963346D01*
X132347394Y-107873000D01*
X126909070Y-107873000D01*
X126922000Y-107841785D01*
X126922000Y-107353250D01*
X126826750Y-107258000D01*
X126033000Y-107258000D01*
X126033000Y-107659000D01*
X125017000Y-107659000D01*
X125017000Y-107258000D01*
X124616000Y-107258000D01*
X124616000Y-106242000D01*
X125017000Y-106242000D01*
X125017000Y-105958000D01*
X126033000Y-105958000D01*
X126033000Y-106242000D01*
X126826750Y-106242000D01*
X126922000Y-106146750D01*
X126922000Y-105958000D01*
X132775000Y-105958000D01*
X132966157Y-105920662D01*
X133134210Y-105809210D01*
X133560420Y-105383000D01*
X137700000Y-105383000D01*
X137891157Y-105345662D01*
X138059210Y-105234210D01*
X138334210Y-104959210D01*
X138442977Y-104797640D01*
X138483000Y-104600000D01*
X138483000Y-103733000D01*
X141550000Y-103733000D01*
X141741157Y-103695662D01*
X141909210Y-103584210D01*
X142359210Y-103134210D01*
X142467977Y-102972640D01*
X142508000Y-102775000D01*
X142508000Y-102546606D01*
X142764803Y-102289803D01*
X142792666Y-102247789D01*
X142802000Y-102200000D01*
X142802000Y-96862463D01*
X142823488Y-96877145D01*
G36*
X149853728Y-96761153D02*
X150023488Y-96877145D01*
X150225000Y-96917952D01*
X151975000Y-96917952D01*
X152163253Y-96882530D01*
X152279076Y-96808000D01*
X154078394Y-96808000D01*
X154473000Y-97202606D01*
X154473000Y-97822394D01*
X153997394Y-98298000D01*
X153127606Y-98298000D01*
X152639803Y-97810197D01*
X152597789Y-97782334D01*
X152550000Y-97773000D01*
X151225000Y-97773000D01*
X151175590Y-97783006D01*
X151135197Y-97810197D01*
X149735197Y-99210197D01*
X149707334Y-99252211D01*
X149698000Y-99300000D01*
X149698000Y-102898000D01*
X148145500Y-102898000D01*
X148145500Y-98209106D01*
X149751821Y-96602785D01*
X149853728Y-96761153D01*
X149853728Y-96761153D01*
G37*
X149853728Y-96761153D02*
X150023488Y-96877145D01*
X150225000Y-96917952D01*
X151975000Y-96917952D01*
X152163253Y-96882530D01*
X152279076Y-96808000D01*
X154078394Y-96808000D01*
X154473000Y-97202606D01*
X154473000Y-97822394D01*
X153997394Y-98298000D01*
X153127606Y-98298000D01*
X152639803Y-97810197D01*
X152597789Y-97782334D01*
X152550000Y-97773000D01*
X151225000Y-97773000D01*
X151175590Y-97783006D01*
X151135197Y-97810197D01*
X149735197Y-99210197D01*
X149707334Y-99252211D01*
X149698000Y-99300000D01*
X149698000Y-102898000D01*
X148145500Y-102898000D01*
X148145500Y-98209106D01*
X149751821Y-96602785D01*
X149853728Y-96761153D01*
G36*
X156423000Y-87822394D02*
X154128394Y-90117000D01*
X153250005Y-90117000D01*
X153250000Y-90116999D01*
X153007761Y-90165184D01*
X152802401Y-90302401D01*
X152762802Y-90342000D01*
X152277709Y-90342000D01*
X152176512Y-90272855D01*
X151975000Y-90232048D01*
X150483000Y-90232048D01*
X150483000Y-88802000D01*
X152325000Y-88802000D01*
X152374410Y-88791994D01*
X152414803Y-88764803D01*
X154146606Y-87033000D01*
X156423000Y-87033000D01*
X156423000Y-87822394D01*
X156423000Y-87822394D01*
G37*
X156423000Y-87822394D02*
X154128394Y-90117000D01*
X153250005Y-90117000D01*
X153250000Y-90116999D01*
X153007761Y-90165184D01*
X152802401Y-90302401D01*
X152762802Y-90342000D01*
X152277709Y-90342000D01*
X152176512Y-90272855D01*
X151975000Y-90232048D01*
X150483000Y-90232048D01*
X150483000Y-88802000D01*
X152325000Y-88802000D01*
X152374410Y-88791994D01*
X152414803Y-88764803D01*
X154146606Y-87033000D01*
X156423000Y-87033000D01*
X156423000Y-87822394D01*
G36*
X155398000Y-92856802D02*
X155302401Y-92952401D01*
X155165184Y-93157761D01*
X155116999Y-93400000D01*
X155117000Y-93400005D01*
X155117000Y-93637802D01*
X155037802Y-93717000D01*
X153962197Y-93717000D01*
X153447599Y-93202401D01*
X153242239Y-93065184D01*
X153000000Y-93016999D01*
X152999995Y-93017000D01*
X152364388Y-93017000D01*
X152346272Y-92988847D01*
X152252746Y-92924943D01*
X152279076Y-92908000D01*
X153174995Y-92908000D01*
X153175000Y-92908001D01*
X153417239Y-92859816D01*
X153622599Y-92722599D01*
X153762198Y-92583000D01*
X155398000Y-92583000D01*
X155398000Y-92856802D01*
X155398000Y-92856802D01*
G37*
X155398000Y-92856802D02*
X155302401Y-92952401D01*
X155165184Y-93157761D01*
X155116999Y-93400000D01*
X155117000Y-93400005D01*
X155117000Y-93637802D01*
X155037802Y-93717000D01*
X153962197Y-93717000D01*
X153447599Y-93202401D01*
X153242239Y-93065184D01*
X153000000Y-93016999D01*
X152999995Y-93017000D01*
X152364388Y-93017000D01*
X152346272Y-92988847D01*
X152252746Y-92924943D01*
X152279076Y-92908000D01*
X153174995Y-92908000D01*
X153175000Y-92908001D01*
X153417239Y-92859816D01*
X153622599Y-92722599D01*
X153762198Y-92583000D01*
X155398000Y-92583000D01*
X155398000Y-92856802D01*
G36*
X145273000Y-87052606D02*
X145273000Y-87223276D01*
X145272855Y-87223488D01*
X145232048Y-87425000D01*
X145232048Y-88675000D01*
X145267470Y-88863253D01*
X145378728Y-89036153D01*
X145548488Y-89152145D01*
X145750000Y-89192952D01*
X146188346Y-89192952D01*
X146498000Y-89502606D01*
X146498000Y-97325000D01*
X146508006Y-97374410D01*
X146535197Y-97414803D01*
X146804500Y-97684106D01*
X146804500Y-98390000D01*
X146535750Y-98390000D01*
X146377000Y-98548750D01*
X146377000Y-99523000D01*
X146397000Y-99523000D01*
X146397000Y-99777000D01*
X146377000Y-99777000D01*
X146377000Y-100751250D01*
X146535750Y-100910000D01*
X146804500Y-100910000D01*
X146804500Y-100915000D01*
X146485750Y-100915000D01*
X146327000Y-101073750D01*
X146327000Y-102048000D01*
X146347000Y-102048000D01*
X146347000Y-102302000D01*
X146327000Y-102302000D01*
X146327000Y-103276250D01*
X146485750Y-103435000D01*
X146804500Y-103435000D01*
X146804500Y-103975000D01*
X146855539Y-104231589D01*
X147000885Y-104449115D01*
X147002000Y-104450230D01*
X147002000Y-105173000D01*
X147022000Y-105173000D01*
X147022000Y-105427000D01*
X147002000Y-105427000D01*
X147002000Y-106151250D01*
X147160750Y-106310000D01*
X147401309Y-106310000D01*
X147448000Y-106290660D01*
X147448000Y-106447394D01*
X144278394Y-109617000D01*
X137685000Y-109617000D01*
X137685000Y-109485750D01*
X137526250Y-109327000D01*
X136677000Y-109327000D01*
X136677000Y-109347000D01*
X136423000Y-109347000D01*
X136423000Y-109327000D01*
X135573750Y-109327000D01*
X135415000Y-109485750D01*
X135415000Y-109617000D01*
X123721606Y-109617000D01*
X123083000Y-108978394D01*
X123083000Y-108573691D01*
X135415000Y-108573691D01*
X135415000Y-108914250D01*
X135573750Y-109073000D01*
X136423000Y-109073000D01*
X136423000Y-108223750D01*
X136677000Y-108223750D01*
X136677000Y-109073000D01*
X137526250Y-109073000D01*
X137685000Y-108914250D01*
X137685000Y-108573691D01*
X137588327Y-108340302D01*
X137409699Y-108161673D01*
X137176310Y-108065000D01*
X136835750Y-108065000D01*
X136677000Y-108223750D01*
X136423000Y-108223750D01*
X136264250Y-108065000D01*
X135923690Y-108065000D01*
X135690301Y-108161673D01*
X135511673Y-108340302D01*
X135415000Y-108573691D01*
X123083000Y-108573691D01*
X123083000Y-99827000D01*
X123767000Y-99827000D01*
X123767000Y-100200000D01*
X123801742Y-100384636D01*
X123910862Y-100554214D01*
X124077360Y-100667977D01*
X124275000Y-100708000D01*
X126700000Y-100708000D01*
X126891157Y-100670662D01*
X127059210Y-100559210D01*
X128240000Y-99378420D01*
X128240000Y-99476309D01*
X128336673Y-99709698D01*
X128515301Y-99888327D01*
X128748690Y-99985000D01*
X129089250Y-99985000D01*
X129248000Y-99826250D01*
X129248000Y-98977000D01*
X129228000Y-98977000D01*
X129228000Y-98723000D01*
X129248000Y-98723000D01*
X129248000Y-98703000D01*
X129502000Y-98703000D01*
X129502000Y-98723000D01*
X129522000Y-98723000D01*
X129522000Y-98977000D01*
X129502000Y-98977000D01*
X129502000Y-99826250D01*
X129660750Y-99985000D01*
X130001310Y-99985000D01*
X130118173Y-99936593D01*
X130365790Y-100184210D01*
X130527360Y-100292977D01*
X130725000Y-100333000D01*
X130749168Y-100333000D01*
X130740301Y-100336673D01*
X130561673Y-100515302D01*
X130465000Y-100748691D01*
X130465000Y-101089250D01*
X130623750Y-101248000D01*
X131473000Y-101248000D01*
X131473000Y-101228000D01*
X131727000Y-101228000D01*
X131727000Y-101248000D01*
X132576250Y-101248000D01*
X132735000Y-101089250D01*
X132735000Y-100748691D01*
X132638327Y-100515302D01*
X132459699Y-100336673D01*
X132450832Y-100333000D01*
X132475000Y-100333000D01*
X132666157Y-100295662D01*
X132834210Y-100184210D01*
X134535420Y-98483000D01*
X135167000Y-98483000D01*
X135167000Y-102067000D01*
X132707790Y-102067000D01*
X132735000Y-102001309D01*
X132735000Y-101660750D01*
X132576250Y-101502000D01*
X131727000Y-101502000D01*
X131727000Y-101522000D01*
X131473000Y-101522000D01*
X131473000Y-101502000D01*
X130623750Y-101502000D01*
X130465000Y-101660750D01*
X130465000Y-102001309D01*
X130492210Y-102067000D01*
X124525000Y-102067000D01*
X124333843Y-102104338D01*
X124165790Y-102215790D01*
X123965790Y-102415790D01*
X123857023Y-102577360D01*
X123817000Y-102775000D01*
X123817000Y-105187758D01*
X123807023Y-105202360D01*
X123767000Y-105400000D01*
X123767000Y-108000000D01*
X123801742Y-108184636D01*
X123910862Y-108354214D01*
X124077360Y-108467977D01*
X124275000Y-108508000D01*
X132400000Y-108508000D01*
X132591157Y-108470662D01*
X132759210Y-108359210D01*
X133410197Y-107708223D01*
X133415301Y-107713327D01*
X133648690Y-107810000D01*
X133989250Y-107810000D01*
X134148000Y-107651250D01*
X134148000Y-106802000D01*
X134128000Y-106802000D01*
X134128000Y-106548000D01*
X134148000Y-106548000D01*
X134148000Y-106528000D01*
X134402000Y-106528000D01*
X134402000Y-106548000D01*
X134422000Y-106548000D01*
X134422000Y-106802000D01*
X134402000Y-106802000D01*
X134402000Y-107651250D01*
X134560750Y-107810000D01*
X134901310Y-107810000D01*
X135134699Y-107713327D01*
X135164803Y-107683223D01*
X135315790Y-107834210D01*
X135477360Y-107942977D01*
X135675000Y-107983000D01*
X137250000Y-107983000D01*
X137434636Y-107948258D01*
X137604214Y-107839138D01*
X137717977Y-107672640D01*
X137758000Y-107475000D01*
X137758000Y-107160420D01*
X139060420Y-105858000D01*
X141325000Y-105858000D01*
X141516157Y-105820662D01*
X141684210Y-105709210D01*
X141807670Y-105585750D01*
X145840000Y-105585750D01*
X145840000Y-105801310D01*
X145936673Y-106034699D01*
X146115302Y-106213327D01*
X146348691Y-106310000D01*
X146589250Y-106310000D01*
X146748000Y-106151250D01*
X146748000Y-105427000D01*
X145998750Y-105427000D01*
X145840000Y-105585750D01*
X141807670Y-105585750D01*
X142594730Y-104798690D01*
X145840000Y-104798690D01*
X145840000Y-105014250D01*
X145998750Y-105173000D01*
X146748000Y-105173000D01*
X146748000Y-104448750D01*
X146589250Y-104290000D01*
X146348691Y-104290000D01*
X146115302Y-104386673D01*
X145936673Y-104565301D01*
X145840000Y-104798690D01*
X142594730Y-104798690D01*
X144815000Y-102578420D01*
X144815000Y-102926310D01*
X144911673Y-103159699D01*
X145090302Y-103338327D01*
X145323691Y-103435000D01*
X145914250Y-103435000D01*
X146073000Y-103276250D01*
X146073000Y-102302000D01*
X146053000Y-102302000D01*
X146053000Y-102048000D01*
X146073000Y-102048000D01*
X146073000Y-101073750D01*
X145914250Y-100915000D01*
X145323691Y-100915000D01*
X145208000Y-100962921D01*
X145208000Y-100841368D01*
X145373691Y-100910000D01*
X145964250Y-100910000D01*
X146123000Y-100751250D01*
X146123000Y-99777000D01*
X146103000Y-99777000D01*
X146103000Y-99523000D01*
X146123000Y-99523000D01*
X146123000Y-98548750D01*
X145964250Y-98390000D01*
X145428420Y-98390000D01*
X145434210Y-98384210D01*
X145542977Y-98222640D01*
X145583000Y-98025000D01*
X145583000Y-96450000D01*
X145548258Y-96265364D01*
X145439138Y-96095786D01*
X145410000Y-96075877D01*
X145410000Y-96047998D01*
X145369197Y-96047998D01*
X145345571Y-96031855D01*
X145390597Y-95923153D01*
X145410000Y-95903750D01*
X145410000Y-95796250D01*
X145390597Y-95776847D01*
X145313327Y-95590301D01*
X145303628Y-95580602D01*
X145329214Y-95564138D01*
X145442977Y-95397640D01*
X145483000Y-95200000D01*
X145483000Y-93900000D01*
X145458000Y-93767138D01*
X145458000Y-92475000D01*
X145423258Y-92290364D01*
X145410000Y-92269760D01*
X145410000Y-92147998D01*
X145338885Y-92147998D01*
X145390597Y-92023153D01*
X145410000Y-92003750D01*
X145410000Y-91896250D01*
X145401291Y-91887541D01*
X145554214Y-91789138D01*
X145667977Y-91622640D01*
X145708000Y-91425000D01*
X145708000Y-89750000D01*
X145670662Y-89558843D01*
X145559210Y-89390790D01*
X144759210Y-88590790D01*
X144597640Y-88482023D01*
X144400000Y-88442000D01*
X140833000Y-88442000D01*
X140833000Y-85625000D01*
X140798258Y-85440364D01*
X140689138Y-85270786D01*
X140522640Y-85157023D01*
X140325000Y-85117000D01*
X136350000Y-85117000D01*
X136165364Y-85151742D01*
X135995786Y-85260862D01*
X135882023Y-85427360D01*
X135842000Y-85625000D01*
X135842000Y-88064580D01*
X132965790Y-90940790D01*
X132857023Y-91102360D01*
X132817000Y-91300000D01*
X132817000Y-92242000D01*
X130800000Y-92242000D01*
X130615364Y-92276742D01*
X130445786Y-92385862D01*
X130332023Y-92552360D01*
X130321839Y-92602651D01*
X130308965Y-92611447D01*
X130281685Y-92653841D01*
X130273000Y-92700000D01*
X130273000Y-93948000D01*
X123877000Y-93948000D01*
X123877000Y-88883320D01*
X132146285Y-88883320D01*
X132275533Y-89176123D01*
X132975806Y-89444388D01*
X133725435Y-89424250D01*
X134324467Y-89176123D01*
X134453715Y-88883320D01*
X133300000Y-87729605D01*
X132146285Y-88883320D01*
X123877000Y-88883320D01*
X123877000Y-88377606D01*
X125028800Y-87225806D01*
X131405612Y-87225806D01*
X131425750Y-87975435D01*
X131673877Y-88574467D01*
X131966680Y-88703715D01*
X133120395Y-87550000D01*
X133479605Y-87550000D01*
X134633320Y-88703715D01*
X134926123Y-88574467D01*
X135194388Y-87874194D01*
X135174250Y-87124565D01*
X134926123Y-86525533D01*
X134633320Y-86396285D01*
X133479605Y-87550000D01*
X133120395Y-87550000D01*
X131966680Y-86396285D01*
X131673877Y-86525533D01*
X131405612Y-87225806D01*
X125028800Y-87225806D01*
X126037926Y-86216680D01*
X132146285Y-86216680D01*
X133300000Y-87370395D01*
X134453715Y-86216680D01*
X134324467Y-85923877D01*
X133624194Y-85655612D01*
X132874565Y-85675750D01*
X132275533Y-85923877D01*
X132146285Y-86216680D01*
X126037926Y-86216680D01*
X129171606Y-83083000D01*
X141303394Y-83083000D01*
X145273000Y-87052606D01*
X145273000Y-87052606D01*
G37*
X145273000Y-87052606D02*
X145273000Y-87223276D01*
X145272855Y-87223488D01*
X145232048Y-87425000D01*
X145232048Y-88675000D01*
X145267470Y-88863253D01*
X145378728Y-89036153D01*
X145548488Y-89152145D01*
X145750000Y-89192952D01*
X146188346Y-89192952D01*
X146498000Y-89502606D01*
X146498000Y-97325000D01*
X146508006Y-97374410D01*
X146535197Y-97414803D01*
X146804500Y-97684106D01*
X146804500Y-98390000D01*
X146535750Y-98390000D01*
X146377000Y-98548750D01*
X146377000Y-99523000D01*
X146397000Y-99523000D01*
X146397000Y-99777000D01*
X146377000Y-99777000D01*
X146377000Y-100751250D01*
X146535750Y-100910000D01*
X146804500Y-100910000D01*
X146804500Y-100915000D01*
X146485750Y-100915000D01*
X146327000Y-101073750D01*
X146327000Y-102048000D01*
X146347000Y-102048000D01*
X146347000Y-102302000D01*
X146327000Y-102302000D01*
X146327000Y-103276250D01*
X146485750Y-103435000D01*
X146804500Y-103435000D01*
X146804500Y-103975000D01*
X146855539Y-104231589D01*
X147000885Y-104449115D01*
X147002000Y-104450230D01*
X147002000Y-105173000D01*
X147022000Y-105173000D01*
X147022000Y-105427000D01*
X147002000Y-105427000D01*
X147002000Y-106151250D01*
X147160750Y-106310000D01*
X147401309Y-106310000D01*
X147448000Y-106290660D01*
X147448000Y-106447394D01*
X144278394Y-109617000D01*
X137685000Y-109617000D01*
X137685000Y-109485750D01*
X137526250Y-109327000D01*
X136677000Y-109327000D01*
X136677000Y-109347000D01*
X136423000Y-109347000D01*
X136423000Y-109327000D01*
X135573750Y-109327000D01*
X135415000Y-109485750D01*
X135415000Y-109617000D01*
X123721606Y-109617000D01*
X123083000Y-108978394D01*
X123083000Y-108573691D01*
X135415000Y-108573691D01*
X135415000Y-108914250D01*
X135573750Y-109073000D01*
X136423000Y-109073000D01*
X136423000Y-108223750D01*
X136677000Y-108223750D01*
X136677000Y-109073000D01*
X137526250Y-109073000D01*
X137685000Y-108914250D01*
X137685000Y-108573691D01*
X137588327Y-108340302D01*
X137409699Y-108161673D01*
X137176310Y-108065000D01*
X136835750Y-108065000D01*
X136677000Y-108223750D01*
X136423000Y-108223750D01*
X136264250Y-108065000D01*
X135923690Y-108065000D01*
X135690301Y-108161673D01*
X135511673Y-108340302D01*
X135415000Y-108573691D01*
X123083000Y-108573691D01*
X123083000Y-99827000D01*
X123767000Y-99827000D01*
X123767000Y-100200000D01*
X123801742Y-100384636D01*
X123910862Y-100554214D01*
X124077360Y-100667977D01*
X124275000Y-100708000D01*
X126700000Y-100708000D01*
X126891157Y-100670662D01*
X127059210Y-100559210D01*
X128240000Y-99378420D01*
X128240000Y-99476309D01*
X128336673Y-99709698D01*
X128515301Y-99888327D01*
X128748690Y-99985000D01*
X129089250Y-99985000D01*
X129248000Y-99826250D01*
X129248000Y-98977000D01*
X129228000Y-98977000D01*
X129228000Y-98723000D01*
X129248000Y-98723000D01*
X129248000Y-98703000D01*
X129502000Y-98703000D01*
X129502000Y-98723000D01*
X129522000Y-98723000D01*
X129522000Y-98977000D01*
X129502000Y-98977000D01*
X129502000Y-99826250D01*
X129660750Y-99985000D01*
X130001310Y-99985000D01*
X130118173Y-99936593D01*
X130365790Y-100184210D01*
X130527360Y-100292977D01*
X130725000Y-100333000D01*
X130749168Y-100333000D01*
X130740301Y-100336673D01*
X130561673Y-100515302D01*
X130465000Y-100748691D01*
X130465000Y-101089250D01*
X130623750Y-101248000D01*
X131473000Y-101248000D01*
X131473000Y-101228000D01*
X131727000Y-101228000D01*
X131727000Y-101248000D01*
X132576250Y-101248000D01*
X132735000Y-101089250D01*
X132735000Y-100748691D01*
X132638327Y-100515302D01*
X132459699Y-100336673D01*
X132450832Y-100333000D01*
X132475000Y-100333000D01*
X132666157Y-100295662D01*
X132834210Y-100184210D01*
X134535420Y-98483000D01*
X135167000Y-98483000D01*
X135167000Y-102067000D01*
X132707790Y-102067000D01*
X132735000Y-102001309D01*
X132735000Y-101660750D01*
X132576250Y-101502000D01*
X131727000Y-101502000D01*
X131727000Y-101522000D01*
X131473000Y-101522000D01*
X131473000Y-101502000D01*
X130623750Y-101502000D01*
X130465000Y-101660750D01*
X130465000Y-102001309D01*
X130492210Y-102067000D01*
X124525000Y-102067000D01*
X124333843Y-102104338D01*
X124165790Y-102215790D01*
X123965790Y-102415790D01*
X123857023Y-102577360D01*
X123817000Y-102775000D01*
X123817000Y-105187758D01*
X123807023Y-105202360D01*
X123767000Y-105400000D01*
X123767000Y-108000000D01*
X123801742Y-108184636D01*
X123910862Y-108354214D01*
X124077360Y-108467977D01*
X124275000Y-108508000D01*
X132400000Y-108508000D01*
X132591157Y-108470662D01*
X132759210Y-108359210D01*
X133410197Y-107708223D01*
X133415301Y-107713327D01*
X133648690Y-107810000D01*
X133989250Y-107810000D01*
X134148000Y-107651250D01*
X134148000Y-106802000D01*
X134128000Y-106802000D01*
X134128000Y-106548000D01*
X134148000Y-106548000D01*
X134148000Y-106528000D01*
X134402000Y-106528000D01*
X134402000Y-106548000D01*
X134422000Y-106548000D01*
X134422000Y-106802000D01*
X134402000Y-106802000D01*
X134402000Y-107651250D01*
X134560750Y-107810000D01*
X134901310Y-107810000D01*
X135134699Y-107713327D01*
X135164803Y-107683223D01*
X135315790Y-107834210D01*
X135477360Y-107942977D01*
X135675000Y-107983000D01*
X137250000Y-107983000D01*
X137434636Y-107948258D01*
X137604214Y-107839138D01*
X137717977Y-107672640D01*
X137758000Y-107475000D01*
X137758000Y-107160420D01*
X139060420Y-105858000D01*
X141325000Y-105858000D01*
X141516157Y-105820662D01*
X141684210Y-105709210D01*
X141807670Y-105585750D01*
X145840000Y-105585750D01*
X145840000Y-105801310D01*
X145936673Y-106034699D01*
X146115302Y-106213327D01*
X146348691Y-106310000D01*
X146589250Y-106310000D01*
X146748000Y-106151250D01*
X146748000Y-105427000D01*
X145998750Y-105427000D01*
X145840000Y-105585750D01*
X141807670Y-105585750D01*
X142594730Y-104798690D01*
X145840000Y-104798690D01*
X145840000Y-105014250D01*
X145998750Y-105173000D01*
X146748000Y-105173000D01*
X146748000Y-104448750D01*
X146589250Y-104290000D01*
X146348691Y-104290000D01*
X146115302Y-104386673D01*
X145936673Y-104565301D01*
X145840000Y-104798690D01*
X142594730Y-104798690D01*
X144815000Y-102578420D01*
X144815000Y-102926310D01*
X144911673Y-103159699D01*
X145090302Y-103338327D01*
X145323691Y-103435000D01*
X145914250Y-103435000D01*
X146073000Y-103276250D01*
X146073000Y-102302000D01*
X146053000Y-102302000D01*
X146053000Y-102048000D01*
X146073000Y-102048000D01*
X146073000Y-101073750D01*
X145914250Y-100915000D01*
X145323691Y-100915000D01*
X145208000Y-100962921D01*
X145208000Y-100841368D01*
X145373691Y-100910000D01*
X145964250Y-100910000D01*
X146123000Y-100751250D01*
X146123000Y-99777000D01*
X146103000Y-99777000D01*
X146103000Y-99523000D01*
X146123000Y-99523000D01*
X146123000Y-98548750D01*
X145964250Y-98390000D01*
X145428420Y-98390000D01*
X145434210Y-98384210D01*
X145542977Y-98222640D01*
X145583000Y-98025000D01*
X145583000Y-96450000D01*
X145548258Y-96265364D01*
X145439138Y-96095786D01*
X145410000Y-96075877D01*
X145410000Y-96047998D01*
X145369197Y-96047998D01*
X145345571Y-96031855D01*
X145390597Y-95923153D01*
X145410000Y-95903750D01*
X145410000Y-95796250D01*
X145390597Y-95776847D01*
X145313327Y-95590301D01*
X145303628Y-95580602D01*
X145329214Y-95564138D01*
X145442977Y-95397640D01*
X145483000Y-95200000D01*
X145483000Y-93900000D01*
X145458000Y-93767138D01*
X145458000Y-92475000D01*
X145423258Y-92290364D01*
X145410000Y-92269760D01*
X145410000Y-92147998D01*
X145338885Y-92147998D01*
X145390597Y-92023153D01*
X145410000Y-92003750D01*
X145410000Y-91896250D01*
X145401291Y-91887541D01*
X145554214Y-91789138D01*
X145667977Y-91622640D01*
X145708000Y-91425000D01*
X145708000Y-89750000D01*
X145670662Y-89558843D01*
X145559210Y-89390790D01*
X144759210Y-88590790D01*
X144597640Y-88482023D01*
X144400000Y-88442000D01*
X140833000Y-88442000D01*
X140833000Y-85625000D01*
X140798258Y-85440364D01*
X140689138Y-85270786D01*
X140522640Y-85157023D01*
X140325000Y-85117000D01*
X136350000Y-85117000D01*
X136165364Y-85151742D01*
X135995786Y-85260862D01*
X135882023Y-85427360D01*
X135842000Y-85625000D01*
X135842000Y-88064580D01*
X132965790Y-90940790D01*
X132857023Y-91102360D01*
X132817000Y-91300000D01*
X132817000Y-92242000D01*
X130800000Y-92242000D01*
X130615364Y-92276742D01*
X130445786Y-92385862D01*
X130332023Y-92552360D01*
X130321839Y-92602651D01*
X130308965Y-92611447D01*
X130281685Y-92653841D01*
X130273000Y-92700000D01*
X130273000Y-93948000D01*
X123877000Y-93948000D01*
X123877000Y-88883320D01*
X132146285Y-88883320D01*
X132275533Y-89176123D01*
X132975806Y-89444388D01*
X133725435Y-89424250D01*
X134324467Y-89176123D01*
X134453715Y-88883320D01*
X133300000Y-87729605D01*
X132146285Y-88883320D01*
X123877000Y-88883320D01*
X123877000Y-88377606D01*
X125028800Y-87225806D01*
X131405612Y-87225806D01*
X131425750Y-87975435D01*
X131673877Y-88574467D01*
X131966680Y-88703715D01*
X133120395Y-87550000D01*
X133479605Y-87550000D01*
X134633320Y-88703715D01*
X134926123Y-88574467D01*
X135194388Y-87874194D01*
X135174250Y-87124565D01*
X134926123Y-86525533D01*
X134633320Y-86396285D01*
X133479605Y-87550000D01*
X133120395Y-87550000D01*
X131966680Y-86396285D01*
X131673877Y-86525533D01*
X131405612Y-87225806D01*
X125028800Y-87225806D01*
X126037926Y-86216680D01*
X132146285Y-86216680D01*
X133300000Y-87370395D01*
X134453715Y-86216680D01*
X134324467Y-85923877D01*
X133624194Y-85655612D01*
X132874565Y-85675750D01*
X132275533Y-85923877D01*
X132146285Y-86216680D01*
X126037926Y-86216680D01*
X129171606Y-83083000D01*
X141303394Y-83083000D01*
X145273000Y-87052606D01*
G36*
X159878590Y-101273787D02*
X159676310Y-101190000D01*
X159185750Y-101190000D01*
X159027000Y-101348750D01*
X159027000Y-102448000D01*
X160026250Y-102448000D01*
X160185000Y-102289250D01*
X160185000Y-101698691D01*
X160101212Y-101496409D01*
X161416048Y-102811245D01*
X161416048Y-104313600D01*
X161451470Y-104501853D01*
X161541652Y-104642000D01*
X160067952Y-104642000D01*
X160067952Y-104525000D01*
X160032530Y-104336747D01*
X159921272Y-104163847D01*
X159751512Y-104047855D01*
X159550000Y-104007048D01*
X158250000Y-104007048D01*
X158061747Y-104042470D01*
X157888847Y-104153728D01*
X157772855Y-104323488D01*
X157732048Y-104525000D01*
X157732048Y-106025000D01*
X157735247Y-106042000D01*
X157717952Y-106042000D01*
X157717952Y-104550000D01*
X157682530Y-104361747D01*
X157571272Y-104188847D01*
X157401512Y-104072855D01*
X157200000Y-104032048D01*
X155900000Y-104032048D01*
X155711747Y-104067470D01*
X155538847Y-104178728D01*
X155423444Y-104347626D01*
X155321272Y-104188847D01*
X155151512Y-104072855D01*
X154950000Y-104032048D01*
X153650000Y-104032048D01*
X153461747Y-104067470D01*
X153288847Y-104178728D01*
X153173444Y-104347626D01*
X153071272Y-104188847D01*
X152901512Y-104072855D01*
X152700000Y-104032048D01*
X151400000Y-104032048D01*
X151211747Y-104067470D01*
X151038847Y-104178728D01*
X150922855Y-104348488D01*
X150882048Y-104550000D01*
X150882048Y-106050000D01*
X150917470Y-106238253D01*
X151028728Y-106411153D01*
X151198488Y-106527145D01*
X151400000Y-106567952D01*
X151417000Y-106567952D01*
X151417000Y-107099995D01*
X151416999Y-107100000D01*
X151465184Y-107342239D01*
X151602401Y-107547599D01*
X152727399Y-108672596D01*
X152727401Y-108672599D01*
X152932761Y-108809816D01*
X153175000Y-108858000D01*
X163974995Y-108858000D01*
X163975000Y-108858001D01*
X164217239Y-108809816D01*
X164422599Y-108672599D01*
X166517000Y-106578197D01*
X166517000Y-109617000D01*
X145176420Y-109617000D01*
X147934210Y-106859210D01*
X148042977Y-106697640D01*
X148083000Y-106500000D01*
X148083000Y-106310000D01*
X148089250Y-106310000D01*
X148248000Y-106151250D01*
X148248000Y-105427000D01*
X148502000Y-105427000D01*
X148502000Y-106151250D01*
X148660750Y-106310000D01*
X148901309Y-106310000D01*
X149134698Y-106213327D01*
X149313327Y-106034699D01*
X149410000Y-105801310D01*
X149410000Y-105585750D01*
X149251250Y-105427000D01*
X148502000Y-105427000D01*
X148248000Y-105427000D01*
X148228000Y-105427000D01*
X148228000Y-105173000D01*
X148248000Y-105173000D01*
X148248000Y-104448750D01*
X148502000Y-104448750D01*
X148502000Y-105173000D01*
X149251250Y-105173000D01*
X149410000Y-105014250D01*
X149410000Y-104798690D01*
X149313327Y-104565301D01*
X149134698Y-104386673D01*
X148901309Y-104290000D01*
X148660750Y-104290000D01*
X148502000Y-104448750D01*
X148248000Y-104448750D01*
X148089250Y-104290000D01*
X147966846Y-104290000D01*
X147934210Y-104240790D01*
X147533000Y-103839580D01*
X147533000Y-103258213D01*
X147610862Y-103379214D01*
X147777360Y-103492977D01*
X147975000Y-103533000D01*
X149825000Y-103533000D01*
X150009636Y-103498258D01*
X150179214Y-103389138D01*
X150292977Y-103222640D01*
X150333000Y-103025000D01*
X150333000Y-102885750D01*
X150765000Y-102885750D01*
X150765000Y-103476309D01*
X150861673Y-103709698D01*
X151040301Y-103888327D01*
X151273690Y-103985000D01*
X151764250Y-103985000D01*
X151923000Y-103826250D01*
X151923000Y-102727000D01*
X152177000Y-102727000D01*
X152177000Y-103826250D01*
X152335750Y-103985000D01*
X152826310Y-103985000D01*
X153059699Y-103888327D01*
X153175000Y-103773025D01*
X153290301Y-103888327D01*
X153523690Y-103985000D01*
X154014250Y-103985000D01*
X154173000Y-103826250D01*
X154173000Y-102727000D01*
X154427000Y-102727000D01*
X154427000Y-103826250D01*
X154585750Y-103985000D01*
X155076310Y-103985000D01*
X155309699Y-103888327D01*
X155425000Y-103773025D01*
X155540301Y-103888327D01*
X155773690Y-103985000D01*
X156264250Y-103985000D01*
X156423000Y-103826250D01*
X156423000Y-102727000D01*
X156677000Y-102727000D01*
X156677000Y-103826250D01*
X156835750Y-103985000D01*
X157326310Y-103985000D01*
X157559699Y-103888327D01*
X157737500Y-103710525D01*
X157890301Y-103863327D01*
X158123690Y-103960000D01*
X158614250Y-103960000D01*
X158773000Y-103801250D01*
X158773000Y-102702000D01*
X159027000Y-102702000D01*
X159027000Y-103801250D01*
X159185750Y-103960000D01*
X159676310Y-103960000D01*
X159909699Y-103863327D01*
X160088327Y-103684698D01*
X160185000Y-103451309D01*
X160185000Y-102860750D01*
X160026250Y-102702000D01*
X159027000Y-102702000D01*
X158773000Y-102702000D01*
X157773750Y-102702000D01*
X157712500Y-102763250D01*
X157676250Y-102727000D01*
X156677000Y-102727000D01*
X156423000Y-102727000D01*
X154427000Y-102727000D01*
X154173000Y-102727000D01*
X152177000Y-102727000D01*
X151923000Y-102727000D01*
X150923750Y-102727000D01*
X150765000Y-102885750D01*
X150333000Y-102885750D01*
X150333000Y-101723691D01*
X150765000Y-101723691D01*
X150765000Y-102314250D01*
X150923750Y-102473000D01*
X151923000Y-102473000D01*
X151923000Y-101373750D01*
X152177000Y-101373750D01*
X152177000Y-102473000D01*
X154173000Y-102473000D01*
X154173000Y-101373750D01*
X154427000Y-101373750D01*
X154427000Y-102473000D01*
X156423000Y-102473000D01*
X156423000Y-101373750D01*
X156677000Y-101373750D01*
X156677000Y-102473000D01*
X157676250Y-102473000D01*
X157737500Y-102411750D01*
X157773750Y-102448000D01*
X158773000Y-102448000D01*
X158773000Y-101348750D01*
X158614250Y-101190000D01*
X158123690Y-101190000D01*
X157890301Y-101286673D01*
X157712500Y-101464475D01*
X157559699Y-101311673D01*
X157326310Y-101215000D01*
X156835750Y-101215000D01*
X156677000Y-101373750D01*
X156423000Y-101373750D01*
X156264250Y-101215000D01*
X155773690Y-101215000D01*
X155540301Y-101311673D01*
X155425000Y-101426975D01*
X155309699Y-101311673D01*
X155076310Y-101215000D01*
X154585750Y-101215000D01*
X154427000Y-101373750D01*
X154173000Y-101373750D01*
X154014250Y-101215000D01*
X153523690Y-101215000D01*
X153290301Y-101311673D01*
X153175000Y-101426975D01*
X153059699Y-101311673D01*
X152826310Y-101215000D01*
X152335750Y-101215000D01*
X152177000Y-101373750D01*
X151923000Y-101373750D01*
X151764250Y-101215000D01*
X151273690Y-101215000D01*
X151040301Y-101311673D01*
X150861673Y-101490302D01*
X150765000Y-101723691D01*
X150333000Y-101723691D01*
X150333000Y-99510420D01*
X151435420Y-98408000D01*
X152339580Y-98408000D01*
X152715790Y-98784210D01*
X152877360Y-98892977D01*
X153075000Y-98933000D01*
X154050000Y-98933000D01*
X154241157Y-98895662D01*
X154409210Y-98784210D01*
X154959210Y-98234210D01*
X155067977Y-98072640D01*
X155108000Y-97875000D01*
X155108000Y-97150000D01*
X155070662Y-96958843D01*
X154970624Y-96808000D01*
X155412802Y-96808000D01*
X159878590Y-101273787D01*
X159878590Y-101273787D01*
G37*
X159878590Y-101273787D02*
X159676310Y-101190000D01*
X159185750Y-101190000D01*
X159027000Y-101348750D01*
X159027000Y-102448000D01*
X160026250Y-102448000D01*
X160185000Y-102289250D01*
X160185000Y-101698691D01*
X160101212Y-101496409D01*
X161416048Y-102811245D01*
X161416048Y-104313600D01*
X161451470Y-104501853D01*
X161541652Y-104642000D01*
X160067952Y-104642000D01*
X160067952Y-104525000D01*
X160032530Y-104336747D01*
X159921272Y-104163847D01*
X159751512Y-104047855D01*
X159550000Y-104007048D01*
X158250000Y-104007048D01*
X158061747Y-104042470D01*
X157888847Y-104153728D01*
X157772855Y-104323488D01*
X157732048Y-104525000D01*
X157732048Y-106025000D01*
X157735247Y-106042000D01*
X157717952Y-106042000D01*
X157717952Y-104550000D01*
X157682530Y-104361747D01*
X157571272Y-104188847D01*
X157401512Y-104072855D01*
X157200000Y-104032048D01*
X155900000Y-104032048D01*
X155711747Y-104067470D01*
X155538847Y-104178728D01*
X155423444Y-104347626D01*
X155321272Y-104188847D01*
X155151512Y-104072855D01*
X154950000Y-104032048D01*
X153650000Y-104032048D01*
X153461747Y-104067470D01*
X153288847Y-104178728D01*
X153173444Y-104347626D01*
X153071272Y-104188847D01*
X152901512Y-104072855D01*
X152700000Y-104032048D01*
X151400000Y-104032048D01*
X151211747Y-104067470D01*
X151038847Y-104178728D01*
X150922855Y-104348488D01*
X150882048Y-104550000D01*
X150882048Y-106050000D01*
X150917470Y-106238253D01*
X151028728Y-106411153D01*
X151198488Y-106527145D01*
X151400000Y-106567952D01*
X151417000Y-106567952D01*
X151417000Y-107099995D01*
X151416999Y-107100000D01*
X151465184Y-107342239D01*
X151602401Y-107547599D01*
X152727399Y-108672596D01*
X152727401Y-108672599D01*
X152932761Y-108809816D01*
X153175000Y-108858000D01*
X163974995Y-108858000D01*
X163975000Y-108858001D01*
X164217239Y-108809816D01*
X164422599Y-108672599D01*
X166517000Y-106578197D01*
X166517000Y-109617000D01*
X145176420Y-109617000D01*
X147934210Y-106859210D01*
X148042977Y-106697640D01*
X148083000Y-106500000D01*
X148083000Y-106310000D01*
X148089250Y-106310000D01*
X148248000Y-106151250D01*
X148248000Y-105427000D01*
X148502000Y-105427000D01*
X148502000Y-106151250D01*
X148660750Y-106310000D01*
X148901309Y-106310000D01*
X149134698Y-106213327D01*
X149313327Y-106034699D01*
X149410000Y-105801310D01*
X149410000Y-105585750D01*
X149251250Y-105427000D01*
X148502000Y-105427000D01*
X148248000Y-105427000D01*
X148228000Y-105427000D01*
X148228000Y-105173000D01*
X148248000Y-105173000D01*
X148248000Y-104448750D01*
X148502000Y-104448750D01*
X148502000Y-105173000D01*
X149251250Y-105173000D01*
X149410000Y-105014250D01*
X149410000Y-104798690D01*
X149313327Y-104565301D01*
X149134698Y-104386673D01*
X148901309Y-104290000D01*
X148660750Y-104290000D01*
X148502000Y-104448750D01*
X148248000Y-104448750D01*
X148089250Y-104290000D01*
X147966846Y-104290000D01*
X147934210Y-104240790D01*
X147533000Y-103839580D01*
X147533000Y-103258213D01*
X147610862Y-103379214D01*
X147777360Y-103492977D01*
X147975000Y-103533000D01*
X149825000Y-103533000D01*
X150009636Y-103498258D01*
X150179214Y-103389138D01*
X150292977Y-103222640D01*
X150333000Y-103025000D01*
X150333000Y-102885750D01*
X150765000Y-102885750D01*
X150765000Y-103476309D01*
X150861673Y-103709698D01*
X151040301Y-103888327D01*
X151273690Y-103985000D01*
X151764250Y-103985000D01*
X151923000Y-103826250D01*
X151923000Y-102727000D01*
X152177000Y-102727000D01*
X152177000Y-103826250D01*
X152335750Y-103985000D01*
X152826310Y-103985000D01*
X153059699Y-103888327D01*
X153175000Y-103773025D01*
X153290301Y-103888327D01*
X153523690Y-103985000D01*
X154014250Y-103985000D01*
X154173000Y-103826250D01*
X154173000Y-102727000D01*
X154427000Y-102727000D01*
X154427000Y-103826250D01*
X154585750Y-103985000D01*
X155076310Y-103985000D01*
X155309699Y-103888327D01*
X155425000Y-103773025D01*
X155540301Y-103888327D01*
X155773690Y-103985000D01*
X156264250Y-103985000D01*
X156423000Y-103826250D01*
X156423000Y-102727000D01*
X156677000Y-102727000D01*
X156677000Y-103826250D01*
X156835750Y-103985000D01*
X157326310Y-103985000D01*
X157559699Y-103888327D01*
X157737500Y-103710525D01*
X157890301Y-103863327D01*
X158123690Y-103960000D01*
X158614250Y-103960000D01*
X158773000Y-103801250D01*
X158773000Y-102702000D01*
X159027000Y-102702000D01*
X159027000Y-103801250D01*
X159185750Y-103960000D01*
X159676310Y-103960000D01*
X159909699Y-103863327D01*
X160088327Y-103684698D01*
X160185000Y-103451309D01*
X160185000Y-102860750D01*
X160026250Y-102702000D01*
X159027000Y-102702000D01*
X158773000Y-102702000D01*
X157773750Y-102702000D01*
X157712500Y-102763250D01*
X157676250Y-102727000D01*
X156677000Y-102727000D01*
X156423000Y-102727000D01*
X154427000Y-102727000D01*
X154173000Y-102727000D01*
X152177000Y-102727000D01*
X151923000Y-102727000D01*
X150923750Y-102727000D01*
X150765000Y-102885750D01*
X150333000Y-102885750D01*
X150333000Y-101723691D01*
X150765000Y-101723691D01*
X150765000Y-102314250D01*
X150923750Y-102473000D01*
X151923000Y-102473000D01*
X151923000Y-101373750D01*
X152177000Y-101373750D01*
X152177000Y-102473000D01*
X154173000Y-102473000D01*
X154173000Y-101373750D01*
X154427000Y-101373750D01*
X154427000Y-102473000D01*
X156423000Y-102473000D01*
X156423000Y-101373750D01*
X156677000Y-101373750D01*
X156677000Y-102473000D01*
X157676250Y-102473000D01*
X157737500Y-102411750D01*
X157773750Y-102448000D01*
X158773000Y-102448000D01*
X158773000Y-101348750D01*
X158614250Y-101190000D01*
X158123690Y-101190000D01*
X157890301Y-101286673D01*
X157712500Y-101464475D01*
X157559699Y-101311673D01*
X157326310Y-101215000D01*
X156835750Y-101215000D01*
X156677000Y-101373750D01*
X156423000Y-101373750D01*
X156264250Y-101215000D01*
X155773690Y-101215000D01*
X155540301Y-101311673D01*
X155425000Y-101426975D01*
X155309699Y-101311673D01*
X155076310Y-101215000D01*
X154585750Y-101215000D01*
X154427000Y-101373750D01*
X154173000Y-101373750D01*
X154014250Y-101215000D01*
X153523690Y-101215000D01*
X153290301Y-101311673D01*
X153175000Y-101426975D01*
X153059699Y-101311673D01*
X152826310Y-101215000D01*
X152335750Y-101215000D01*
X152177000Y-101373750D01*
X151923000Y-101373750D01*
X151764250Y-101215000D01*
X151273690Y-101215000D01*
X151040301Y-101311673D01*
X150861673Y-101490302D01*
X150765000Y-101723691D01*
X150333000Y-101723691D01*
X150333000Y-99510420D01*
X151435420Y-98408000D01*
X152339580Y-98408000D01*
X152715790Y-98784210D01*
X152877360Y-98892977D01*
X153075000Y-98933000D01*
X154050000Y-98933000D01*
X154241157Y-98895662D01*
X154409210Y-98784210D01*
X154959210Y-98234210D01*
X155067977Y-98072640D01*
X155108000Y-97875000D01*
X155108000Y-97150000D01*
X155070662Y-96958843D01*
X154970624Y-96808000D01*
X155412802Y-96808000D01*
X159878590Y-101273787D01*
G36*
X147517000Y-92175000D02*
X147554338Y-92366157D01*
X147665790Y-92534210D01*
X149390790Y-94259210D01*
X149552360Y-94367977D01*
X149690333Y-94395917D01*
X149590000Y-94496250D01*
X149590000Y-94576310D01*
X149686673Y-94809699D01*
X149707048Y-94830074D01*
X149707048Y-95100000D01*
X149726555Y-95203671D01*
X149707048Y-95300000D01*
X149707048Y-95750000D01*
X149726555Y-95853671D01*
X149716478Y-95903431D01*
X149583843Y-95929338D01*
X149415790Y-96040790D01*
X147615790Y-97840790D01*
X147533000Y-97963772D01*
X147533000Y-97725000D01*
X147495662Y-97533843D01*
X147384210Y-97365790D01*
X147133000Y-97114580D01*
X147133000Y-89450000D01*
X147105654Y-89310000D01*
X147376309Y-89310000D01*
X147517000Y-89251724D01*
X147517000Y-92175000D01*
X147517000Y-92175000D01*
G37*
X147517000Y-92175000D02*
X147554338Y-92366157D01*
X147665790Y-92534210D01*
X149390790Y-94259210D01*
X149552360Y-94367977D01*
X149690333Y-94395917D01*
X149590000Y-94496250D01*
X149590000Y-94576310D01*
X149686673Y-94809699D01*
X149707048Y-94830074D01*
X149707048Y-95100000D01*
X149726555Y-95203671D01*
X149707048Y-95300000D01*
X149707048Y-95750000D01*
X149726555Y-95853671D01*
X149716478Y-95903431D01*
X149583843Y-95929338D01*
X149415790Y-96040790D01*
X147615790Y-97840790D01*
X147533000Y-97963772D01*
X147533000Y-97725000D01*
X147495662Y-97533843D01*
X147384210Y-97365790D01*
X147133000Y-97114580D01*
X147133000Y-89450000D01*
X147105654Y-89310000D01*
X147376309Y-89310000D01*
X147517000Y-89251724D01*
X147517000Y-92175000D01*
G36*
X166517000Y-95961803D02*
X164387689Y-93832491D01*
X164399450Y-93814889D01*
X164503857Y-93290000D01*
X164399450Y-92765111D01*
X164102125Y-92320132D01*
X163657146Y-92022807D01*
X163643034Y-92020000D01*
X163657146Y-92017193D01*
X164102125Y-91719868D01*
X164399450Y-91274889D01*
X164503857Y-90750000D01*
X164399450Y-90225111D01*
X164102125Y-89780132D01*
X163747144Y-89542942D01*
X163864320Y-89501954D01*
X164300732Y-89112036D01*
X164554709Y-88584791D01*
X164557358Y-88569026D01*
X164436217Y-88337000D01*
X163077000Y-88337000D01*
X163077000Y-88357000D01*
X162823000Y-88357000D01*
X162823000Y-88337000D01*
X161463783Y-88337000D01*
X161342642Y-88569026D01*
X161345291Y-88584791D01*
X161599268Y-89112036D01*
X162035680Y-89501954D01*
X162152856Y-89542942D01*
X161797875Y-89780132D01*
X161572787Y-90117000D01*
X155026420Y-90117000D01*
X156909210Y-88234210D01*
X157017977Y-88072640D01*
X157058000Y-87875000D01*
X157058000Y-87033000D01*
X161907019Y-87033000D01*
X161599268Y-87307964D01*
X161345291Y-87835209D01*
X161342642Y-87850974D01*
X161463783Y-88083000D01*
X162823000Y-88083000D01*
X162823000Y-88063000D01*
X163077000Y-88063000D01*
X163077000Y-88083000D01*
X164436217Y-88083000D01*
X164557358Y-87850974D01*
X164554709Y-87835209D01*
X164300732Y-87307964D01*
X163992981Y-87033000D01*
X164350000Y-87033000D01*
X164534636Y-86998258D01*
X164704214Y-86889138D01*
X164817977Y-86722640D01*
X164858000Y-86525000D01*
X164858000Y-84225000D01*
X164823258Y-84040364D01*
X164714138Y-83870786D01*
X164547640Y-83757023D01*
X164350000Y-83717000D01*
X148925000Y-83717000D01*
X148733843Y-83754338D01*
X148565790Y-83865790D01*
X147764803Y-84666777D01*
X147609698Y-84511673D01*
X147376309Y-84415000D01*
X146785750Y-84415000D01*
X146627000Y-84573750D01*
X146627000Y-85548000D01*
X146647000Y-85548000D01*
X146647000Y-85802000D01*
X146627000Y-85802000D01*
X146627000Y-86776250D01*
X146713250Y-86862500D01*
X146627000Y-86948750D01*
X146627000Y-87923000D01*
X146647000Y-87923000D01*
X146647000Y-88177000D01*
X146627000Y-88177000D01*
X146627000Y-88197000D01*
X146373000Y-88197000D01*
X146373000Y-88177000D01*
X146353000Y-88177000D01*
X146353000Y-87923000D01*
X146373000Y-87923000D01*
X146373000Y-86948750D01*
X146286750Y-86862500D01*
X146373000Y-86776250D01*
X146373000Y-85802000D01*
X145273750Y-85802000D01*
X145115000Y-85960750D01*
X145115000Y-85996580D01*
X144042110Y-84923690D01*
X145115000Y-84923690D01*
X145115000Y-85389250D01*
X145273750Y-85548000D01*
X146373000Y-85548000D01*
X146373000Y-84573750D01*
X146214250Y-84415000D01*
X145623691Y-84415000D01*
X145390302Y-84511673D01*
X145211673Y-84690301D01*
X145115000Y-84923690D01*
X144042110Y-84923690D01*
X142201420Y-83083000D01*
X166517000Y-83083000D01*
X166517000Y-95961803D01*
X166517000Y-95961803D01*
G37*
X166517000Y-95961803D02*
X164387689Y-93832491D01*
X164399450Y-93814889D01*
X164503857Y-93290000D01*
X164399450Y-92765111D01*
X164102125Y-92320132D01*
X163657146Y-92022807D01*
X163643034Y-92020000D01*
X163657146Y-92017193D01*
X164102125Y-91719868D01*
X164399450Y-91274889D01*
X164503857Y-90750000D01*
X164399450Y-90225111D01*
X164102125Y-89780132D01*
X163747144Y-89542942D01*
X163864320Y-89501954D01*
X164300732Y-89112036D01*
X164554709Y-88584791D01*
X164557358Y-88569026D01*
X164436217Y-88337000D01*
X163077000Y-88337000D01*
X163077000Y-88357000D01*
X162823000Y-88357000D01*
X162823000Y-88337000D01*
X161463783Y-88337000D01*
X161342642Y-88569026D01*
X161345291Y-88584791D01*
X161599268Y-89112036D01*
X162035680Y-89501954D01*
X162152856Y-89542942D01*
X161797875Y-89780132D01*
X161572787Y-90117000D01*
X155026420Y-90117000D01*
X156909210Y-88234210D01*
X157017977Y-88072640D01*
X157058000Y-87875000D01*
X157058000Y-87033000D01*
X161907019Y-87033000D01*
X161599268Y-87307964D01*
X161345291Y-87835209D01*
X161342642Y-87850974D01*
X161463783Y-88083000D01*
X162823000Y-88083000D01*
X162823000Y-88063000D01*
X163077000Y-88063000D01*
X163077000Y-88083000D01*
X164436217Y-88083000D01*
X164557358Y-87850974D01*
X164554709Y-87835209D01*
X164300732Y-87307964D01*
X163992981Y-87033000D01*
X164350000Y-87033000D01*
X164534636Y-86998258D01*
X164704214Y-86889138D01*
X164817977Y-86722640D01*
X164858000Y-86525000D01*
X164858000Y-84225000D01*
X164823258Y-84040364D01*
X164714138Y-83870786D01*
X164547640Y-83757023D01*
X164350000Y-83717000D01*
X148925000Y-83717000D01*
X148733843Y-83754338D01*
X148565790Y-83865790D01*
X147764803Y-84666777D01*
X147609698Y-84511673D01*
X147376309Y-84415000D01*
X146785750Y-84415000D01*
X146627000Y-84573750D01*
X146627000Y-85548000D01*
X146647000Y-85548000D01*
X146647000Y-85802000D01*
X146627000Y-85802000D01*
X146627000Y-86776250D01*
X146713250Y-86862500D01*
X146627000Y-86948750D01*
X146627000Y-87923000D01*
X146647000Y-87923000D01*
X146647000Y-88177000D01*
X146627000Y-88177000D01*
X146627000Y-88197000D01*
X146373000Y-88197000D01*
X146373000Y-88177000D01*
X146353000Y-88177000D01*
X146353000Y-87923000D01*
X146373000Y-87923000D01*
X146373000Y-86948750D01*
X146286750Y-86862500D01*
X146373000Y-86776250D01*
X146373000Y-85802000D01*
X145273750Y-85802000D01*
X145115000Y-85960750D01*
X145115000Y-85996580D01*
X144042110Y-84923690D01*
X145115000Y-84923690D01*
X145115000Y-85389250D01*
X145273750Y-85548000D01*
X146373000Y-85548000D01*
X146373000Y-84573750D01*
X146214250Y-84415000D01*
X145623691Y-84415000D01*
X145390302Y-84511673D01*
X145211673Y-84690301D01*
X145115000Y-84923690D01*
X144042110Y-84923690D01*
X142201420Y-83083000D01*
X166517000Y-83083000D01*
X166517000Y-95961803D01*
M02*
